<svg xmlns="http://www.w3.org/2000/svg" viewBox="0 0 1364 960"><path fill="#DDE4F0" d="M661.359 440.809 440.157 569.357l54.949 31.726 221.203-128.549zM153.516 660.794l116.009 66.978 163.299-94.899-106.817-72.32zM1088.037 685.88c-1.271-.689-3.016-1.116-4.939-1.116l-1.472.012.024-7.99c0 .131-.047.273-.083.416.238-1.104-.404-2.256-1.983-3.111-2.731-1.472-7.147-1.472-9.854 0l-1.555.844c-2.458-.855-5.105-1.484-7.848-1.9v-1.39c-.012-1.045-.795-1.994-2.066-2.671-1.259-.688-3.016-1.116-4.939-1.116-3.847 0-6.957 1.698-6.946 3.787l.012 1.187c-2.778.333-5.473.89-8.002 1.663l-1.828-.985c-2.731-1.473-7.147-1.473-9.866 0-1.353.736-2.018 1.686-2.018 2.659l-.024 7.777h-2.41c-3.847 0-6.958 1.697-6.946 3.787l-.047 14.247c.012 1.033.795 1.983 2.066 2.671 1.258.676 3.004 1.104 4.927 1.104h1.484l-.024 7.99c-.012.973.677 1.947 2.054 2.695 2.731 1.472 7.147 1.472 9.866-.012l1.543-.831a44.092 44.092 0 0 0 7.848 1.888v1.401c.012 1.045.796 1.983 2.066 2.671 1.258.689 3.004 1.104 4.939 1.104 3.847 0 6.957-1.686 6.946-3.776l.012-1.199c2.766-.333 5.461-.879 7.99-1.662l1.816.997c2.743 1.473 7.147 1.473 9.866-.012 1.342-.725 2.018-1.686 2.03-2.648l.024-7.789h2.398c3.847 0 6.958-1.686 6.946-3.776l.048-14.247c-.001-1.042-.797-1.992-2.055-2.669zm-48.501 10.947a20.976 20.976 0 0 1-2.944-1.603c.416-.273.855-.546 1.318-.795a26.48 26.48 0 0 1 1.638-.808l-.012 3.206zm27.878-.724c-.522.285-1.068.546-1.626.796l.012-3.194c.511.226 1.009.463 1.484.725.522.273 1.009.57 1.46.878a20.15 20.15 0 0 1-1.33.795z"/><ellipse cx="1072.91" cy="533.884" fill="#DDE4F0" rx="36.686" ry="16.557"/><ellipse cx="915.412" cy="446.431" fill="#DDE4F0" rx="36.686" ry="16.557"/><path fill="#DDE4F0" d="M961.446 659.674v-.103c-.313-3.128-1.997-6.227-5.054-8.949-1.21-1.092-2.634-2.112-4.271-3.061l-45.223-26.108-52.872-30.523-24.17-13.955v.002L768.83 541.74c-12.455-7.183-32.555-7.183-44.915 0l-82.599 48.002-.002.001-1.185.689-34.039 19.78-47.871 27.818-37.422 21.75-92.048 53.496v.003l-.002.001-46.375 26.94c-1.567.914-2.944 1.899-4.108 2.955l-.004-.003c-3.014 2.701-4.684 5.807-4.997 9.105v.052a11.971 11.971 0 0 0-.009 2.126c0 .009.002.017.003.026l-.043 14.089c.718 4.087 3.803 8.06 9.212 11.188l183.295 105.824c5.409 3.12 12.282 4.898 19.341 5.295 9.155.526 18.609-1.237 25.582-5.288l341.541-198.478c6.134-3.569 9.212-8.238 9.219-12.916l.036-12.375a10.99 10.99 0 0 0 .006-2.146zM1018.661 565.688c.178-5.592-2.944-11.232-9.379-15.767a37.136 37.136 0 0 0-2.873-1.841c-9.415-5.426-22.167-7.717-34.395-6.874-8.548.582-17.073-1.294-23.282-4.88l-84.665-49.272c-5.675-3.277-14.877-3.704-20.896-.665-3.455 1.733-5.165 4.168-5.165 6.578-.012-.012-.012-.012-.012-.024l-.012 7.504-4.927 2.837c-1.187.677-1.781 1.579-1.769 2.505 0-.012-.012-.024-.012-.036l-.036 11.398c0 .95.665 1.923 2.018 2.707 2.481 1.294 6.352 1.104 8.715-.261l5.853-3.372c1.199-.689 3.146-.689 4.357.012l5.711 3.324c-.332.439-.51.914-.51 1.389l-.036 11.398c0 .95.653 1.924 2.018 2.707 2.47 1.294 6.352 1.104 8.715-.262l5.853-3.372c1.211-.701 3.158-.689 4.357.012l48.761 28.375c4.31 2.505 7.266 5.699 8.347 9.107l-.024 7.551c-.012 6.174 4.049 12.36 12.276 17.156 17.394 10.032 46.232 9.379 62.011-2.019 5.984-4.31 8.976-9.617 8.988-14.924l.036-11.398c.001.134-.011.277-.023.407zm-18.605 12.858c-6.851 3.941-17.964 3.918-24.873-.071a13.435 13.435 0 0 1-2.125-1.508 13.578 13.578 0 0 1 2.113-1.484c6.851-3.954 17.952-3.942 24.862.048.819.475 1.532.985 2.149 1.52a15.223 15.223 0 0 1-2.126 1.495z"/><linearGradient id="a" x1="667.881" x2="663.124" y1="669.138" y2="869.506" gradientUnits="userSpaceOnUse"><stop offset="0" stop-color="#326ab3"/><stop offset="1" stop-color="#003780"/></linearGradient><path fill="url(#a)" d="m961.446 638.503-.007 2.232-.036 12.389c-.007 4.677-3.085 9.347-9.219 12.915L610.643 864.517c-6.973 4.052-16.427 5.815-25.582 5.288-7.059-.398-13.932-2.175-19.341-5.295L382.425 758.686c-5.409-3.128-8.494-7.101-9.212-11.188l.043-14.117.007-2.175c.313-3.298 1.983-6.405 4.997-9.105 1.208 1.08 2.623 2.097 4.258 3.042l183.295 105.824c5.409 3.12 12.283 4.897 19.348 5.295 9.155.526 18.609-1.237 25.582-5.288l341.534-198.478c1.571-.917 2.95-1.905 4.116-2.943 3.055 2.723 4.74 5.823 5.053 8.95z"/><linearGradient id="b" x1="217.427" x2="1058.082" y1="269.334" y2="1047.591" gradientUnits="userSpaceOnUse"><stop offset="0" stop-color="#fff"/><stop offset="1" stop-color="#bde1ff"/></linearGradient><path fill="url(#b)" d="M961.44 640.741c-.463 4.286-3.514 8.5-9.166 11.778l-45.378 26.369-77.042 44.772-60.492 35.155-10.662 6.198-20.433 11.873-52.964 30.786-43.989 25.562-30.572 17.762c-1.448.854-3.016 1.591-4.654 2.232-6.245 2.458-13.677 3.479-20.932 3.063-7.064-.404-13.939-2.184-19.341-5.295l-7.598-4.393-129.472-74.739-46.232-26.702c-5.402-3.122-8.489-7.1-9.201-11.184-.024-.202-.047-.392-.059-.594-.06-.736-.06-1.46.012-2.173.309-3.3 1.983-6.411 4.998-9.106 1.164-1.057 2.541-2.042 4.108-2.956l46.375-26.94 129.472-75.249 47.871-27.818 35.226-20.469 82.599-48.001c12.359-7.183 32.46-7.183 44.915 0l61.026 35.238 77.042 44.475 45.223 26.108c1.638.95 3.063 1.971 4.274 3.063 3.051 2.718 4.737 5.817 5.046 8.951.084.737.072 1.485 0 2.234z"/><path fill="#DCEDF2" d="m778.054 592.312-1.745 3.443c-.617.819-2.161.641-2.458-.297l-.974-3.051c-.071-1.235-.855-2.375-2.137-3.052-3.906-2.078-11.991-5.39-13.665-3.313-1.722 2.125 6.126 5.319 6.934 8.715.772 3.289-.843 9.142-.843 9.142s-16.028 25.348-26.939 40.356a8.315 8.315 0 0 1-1.033-.819c-1.947-1.781-4.025-3.396-6.292-4.797 1.33-11.932 1.508-25.206.451-36.936.024 0 .036 0 .047.012l1.318-5.426c.463-1.484.606-3.027.392-4.547l-.748-5.854-2.683.012.249 3.717c-.119.95-1.627 1.318-2.386.581l-2.493-2.434c-.724-1.092-2.03-1.852-3.55-2.03-4.642-.535-13.701-.76-14.117 1.686-.427 2.505 8.358 2.719 10.887 5.509 2.434 2.707 4.072 8.56 4.072 8.56h.012l-9.284 32.128c-5.331.118-10.009 3.443-11.41 8.323-2.778 9.652-7.041 27.366-7.017 45.603.024 24.849 6.684 48.31 9.854 58.057-1.733.986-2.755 2.719-2.363 4.583 1.959 9.178 1.306 19.317-1.555 33.006-.641 3.051-1.698 6.019-3.134 8.881a42.141 42.141 0 0 1-3.016 5.034 415.71 415.71 0 0 0-7.124 10.567l52.964-30.786c-.249-2.387-.522-4.488-.831-6.031-1.282-6.328 1.864-16.93 4.951-24.031 1.342 1.544 2.66 3.206 4.013 4.928 3.597 4.559 7.409 9.438 12.3 13.262l10.662-6.198c-4.63-4.547-10.947-9.011-15.126-11.766-2.648-1.746-4.429-2.814-4.429-2.814 1.995-3.645 1.342-7.16-.261-9.582 4.345-8.168 6.649-18.878 5.105-34.466-1.71-17.322 6.91-33.434 12.597-44.962 2.695-5.485-1.627-11.611-7.824-11.647 4.797-10.448 8.513-22.986 11.624-36.663l4.262-4.167c1.199-1.187 2.137-2.529 2.755-3.977l2.422-5.557-2.434-.902z"/><path fill="#6D6E71" d="M641.314 568.674v264.561l-30.572 17.763a33.112 33.112 0 0 1-4.656 2.232V589.145l35.228-20.471zM906.899 600.39v78.501l-77.044 44.773V555.908zM558.221 616.959v229.646l-129.473-74.748v-79.653z"/><linearGradient id="c" x1="801.701" x2="886.488" y1="570.102" y2="570.102" gradientUnits="userSpaceOnUse"><stop offset="0" stop-color="#326ab3"/><stop offset="1" stop-color="#003780"/></linearGradient><path fill="url(#c)" d="m811.987 545.602-7.609 4.422c-3.588 2.085-3.564 5.463.042 7.545l61.432 35.468c3.612 2.085 9.438 2.085 13.027 0l7.609-4.422-74.501-43.013z"/><path fill="#FFF" d="m872.12 586.497-59.322-34.25c-.698-.403-1.821-.403-2.514 0-.693.403-.696 1.058.001 1.46l59.322 34.25c.698.403 1.828.399 2.521-.004.693-.402.689-1.053-.008-1.456z"/><linearGradient id="d" x1="225.083" x2="435.687" y1="590.076" y2="590.076" gradientUnits="userSpaceOnUse"><stop offset="0" stop-color="#ffc54a"/><stop offset="1" stop-color="#ffa561"/></linearGradient><path fill="url(#d)" d="M397.49 453.787c-3.791-2.203-9.043-1.892-14.843 1.457l-15.27 8.816-14.613 8.437-77.012 44.462-14.613 8.438-15.27 8.816c-11.523 6.652-20.823 22.762-20.785 35.989l.346 121.996c.019 6.572 2.339 11.199 6.084 13.375l38.196 22.198c-3.744-2.176-6.065-6.803-6.084-13.376l-.347-121.995c-.037-13.227 9.264-29.337 20.785-35.988l15.271-8.817 14.614-8.438 77.012-44.462 14.613-8.437 15.271-8.817c5.8-3.348 11.052-3.66 14.843-1.457l-38.198-22.197z"/><linearGradient id="e" x1="427.852" x2="212.014" y1="471.09" y2="846.686" gradientUnits="userSpaceOnUse"><stop offset="0" stop-color="#ffc54a"/><stop offset="1" stop-color="#ffa561"/></linearGradient><path fill="url(#e)" d="M441.766 489.35c-.038-13.227-9.399-18.562-20.921-11.909l-15.271 8.817-14.613 8.437-77.012 44.462-14.614 8.438-15.271 8.817c-11.522 6.652-20.822 22.761-20.785 35.988l.346 121.996c.038 13.227 9.399 18.575 20.921 11.923l136.781-78.97c11.523-6.653 20.822-22.774 20.785-36.001l-.346-121.998z"/><linearGradient id="f" x1="371.508" x2="262.176" y1="427.877" y2="552.761" gradientUnits="userSpaceOnUse"><stop offset="0" stop-color="#326ab3"/><stop offset="1" stop-color="#003780"/></linearGradient><path fill="url(#f)" d="m385.665 447.006-19.759-11.483 8.872-5.122c8.495-4.905 16.196-5.359 21.758-2.126l-38.196-22.197c-5.562-3.232-13.264-2.779-21.759 2.127l-45.063 26.017c-16.897 9.756-30.544 33.405-30.489 52.821l.109 38.355 38.196 22.197-.108-38.355c-.055-19.416 13.591-43.065 30.488-52.821l22.967-13.26.083 29.338 38.197 22.198-.103-36.274c-.017-5.611-1.998-9.558-5.193-11.415z"/><linearGradient id="g" x1="299.226" x2="405.573" y1="486.902" y2="486.902" gradientUnits="userSpaceOnUse"><stop offset="0" stop-color="#326ab3"/><stop offset="1" stop-color="#003780"/></linearGradient><path fill="url(#g)" d="M405.464 447.902c-.055-19.416-13.802-27.25-30.687-17.501l-45.064 26.017c-16.897 9.755-30.543 33.404-30.488 52.821l.108 38.355 14.614-8.438-.103-36.274c-.032-11.292 7.912-25.051 17.739-30.725l41.418-23.913c9.827-5.674 17.823-1.117 17.855 10.175l.103 36.274 14.613-8.437-.108-38.354z"/><path fill="#FFF" d="M362.994 546.424c-22.41 12.939-40.516 44.301-40.443 70.039.072 25.751 18.298 36.137 40.708 23.198 22.41-12.938 40.505-44.294 40.433-70.045-.074-25.738-18.288-36.131-40.698-23.192zm.242 85.192c-18.547 10.708-33.624 2.116-33.685-19.196-.06-21.298 14.919-47.244 33.466-57.952 18.535-10.701 33.624-2.116 33.685 19.183.06 21.312-14.931 47.264-33.466 57.965z"/><path fill="#F7B65E" d="M363.017 554.469c-18.547 10.708-33.526 36.654-33.466 57.952.061 21.311 15.138 29.904 33.685 19.196 18.535-10.701 33.526-36.654 33.466-57.965-.061-21.299-15.15-29.885-33.685-19.183zm9.758 59.467c.214 1.868-1.143 4.417-2.884 5.422l-13.356 7.711c-1.753 1.012-3.107.028-2.906-2.079l2.739-28.437c-3.444-.56-5.74-3.695-5.755-8.745-.023-7.925 5.541-17.563 12.438-21.545 6.897-3.982 12.498-.79 12.52 7.135.014 5.049-2.256 10.821-5.687 15.35l2.891 25.188z"/><path fill="#224585" d="M369.884 588.749c3.43-4.529 5.701-10.301 5.687-15.35-.022-7.925-5.623-11.117-12.52-7.135-6.897 3.982-12.461 13.62-12.438 21.545.014 5.049 2.31 8.184 5.755 8.745l-2.739 28.437c-.201 2.107 1.153 3.091 2.906 2.079l13.356-7.711c1.741-1.006 3.098-3.554 2.884-5.422l-2.891-25.188z"/><linearGradient id="h" x1="835.668" x2="321.741" y1="96.804" y2="351.601" gradientUnits="userSpaceOnUse"><stop offset="0" stop-color="#b0deff"/><stop offset="1" stop-color="#82baff"/></linearGradient><path fill="url(#h)" d="M678.705 70.866c-4.99-2.9-12.008-2.45-19.772 2.033l-217.477 125.56c-15.089 8.712-27.282 29.355-27.235 46.097l.389 137.176c.023 8.13 2.926 13.849 7.634 16.584l13.992 8.131c-4.707-2.736-7.61-8.454-7.634-16.584l-.389-137.176c-.048-16.742 12.145-37.385 27.235-46.097L672.925 81.03c7.764-4.482 14.782-4.932 19.772-2.033l-13.992-8.131z"/><linearGradient id="i" x1="834.235" x2="320.307" y1="221.327" y2="476.124" gradientUnits="userSpaceOnUse"><stop offset="0" stop-color="#b0deff"/><stop offset="1" stop-color="#82baff"/></linearGradient><path fill="url(#i)" d="m442.017 396.282.068 23.9 13.991 8.131-.067-23.9z"/><linearGradient id="j" x1="267.762" x2="1000.952" y1="356.938" y2="103.441" gradientUnits="userSpaceOnUse"><stop offset="0" stop-color="#b0deff"/><stop offset="1" stop-color="#82baff"/></linearGradient><path fill="url(#j)" d="M672.925 81.03c15.09-8.712 27.359-2.192 27.407 14.55l.389 137.176c.047 16.749-12.145 37.385-27.235 46.097L482.55 389.089l-26.474 39.224-.068-23.9c-15.09 8.712-27.359 2.2-27.407-14.55l-.389-137.176c-.047-16.742 12.145-37.385 27.235-46.097L672.925 81.03z"/><path fill="#FFF" d="M477.454 282.611a23.041 23.041 0 0 0 1.7-.891c9.295-5.366 17.198-18.081 18.041-29.432.883-12.019-6.505-17.961-16.508-13.24-.571.269-1.138.566-1.7.891-9.294 5.367-17.198 18.081-18.041 29.433-.883 12.018 6.506 17.948 16.508 13.239zm1.226-35.955.02-.012c3.892-2.247 7.07-.465 7.094 4.004.023 4.476-3.112 9.945-7.014 12.21l-.02.012c-3.891 2.247-7.07.465-7.093-4.003-.024-4.477 3.112-9.946 7.013-12.211zm-8.341 27.413c-.019-2.619.838-5.147 2.256-7.38.28-.441.629-.782.979-.984.334-.193.67-.26.949-.166 1.188.371 2.681.151 4.312-.79l.047-.027c1.692-.977 3.241-2.566 4.444-4.414.288-.435.639-.774.991-.977.331-.191.661-.26.938-.174 1.578.49 2.553 2.011 2.572 4.753l.001.235c.004 1.362-.941 3.023-2.127 3.708l-13.199 7.671c-1.185.684-2.158.155-2.162-1.207v-.248zM480.118 304.91a4.993 4.993 0 0 0-.139.081c-10.495 6.134-18.926 20.861-18.816 32.89.098 11.97 8.626 16.748 19.059 10.725l.139-.08c10.495-6.134 18.926-20.861 18.827-32.896-.11-11.965-8.627-16.75-19.07-10.72zm-7.664 22.333.954-.554-.033-5.658c-.007-2.377 1.658-5.273 3.727-6.48l5.516-3.198.021-.011c2.06-1.19 3.746-.246 3.753 2.124l.018 2.854c.002.569-.396 1.258-.892 1.544-.247.143-.463.156-.636.07-.162-.092-.26-.284-.26-.569l-.018-2.594c-.004-1.387-.987-1.935-2.194-1.238l-5.076 2.955c-1.196.691-2.173 2.384-2.169 3.77l.031 5.393 12.192-7.08a.558.558 0 0 1 .033-.019c1.107-.639 2.086-.587 2.633.03l-16.372 9.512-.265.155v-.001l-3.609 2.098c.536-1.252 1.514-2.437 2.646-3.103zm15.028 5.326c-1.901 3.107-4.537 5.87-7.469 7.575a.982.982 0 0 0-.044.025c-5.82 3.36-10.551 1.177-10.59-4.886l-.019-2.991a4.256 4.256 0 0 1 .158-1.133l20.829-12.1c.109.259.164.575.165.946l.019 2.99c.02 3.028-1.147 6.467-3.049 9.574z"/><path fill="#FFF" d="m479.965 327.458-.02.012c-1.95 1.126-3.529 3.873-3.511 6.108.006 2.234 1.595 3.135 3.536 2.014a.352.352 0 0 0 .02-.012c1.961-1.132 3.53-3.873 3.524-6.114-.019-2.227-1.608-3.128-3.549-2.008zm.601 5.842-.129.236-.905.535-.141-.092.145-2.291c-.249-.031-.422-.253-.412-.618.009-.501.353-1.109.784-1.383l.057-.035c.46-.265.839-.052.841.472.001.346-.16.749-.407 1.065l.167 2.111zM527.579 246.689l.08-.047 139.831-81.798c5.883-3.446 10.599-11.688 10.536-18.424l-.034-4.271c-.062-6.694-4.829-9.38-10.677-6.003l-.08.046-139.819 81.791c-5.883 3.447-10.599 11.688-10.547 18.43l.044 4.265c.052 6.701 4.83 9.381 10.666 6.011zm112.02-82.199c2.069-1.195 3.745-.24 3.752 2.137.007 2.378-1.658 5.261-3.727 6.456-2.069 1.194-3.745.239-3.751-2.138-.007-2.377 1.658-5.261 3.726-6.455zm-15.409 8.896c2.068-1.195 3.745-.24 3.751 2.138.007 2.378-1.658 5.261-3.726 6.455-2.059 1.188-3.745.24-3.752-2.138-.007-2.377 1.67-5.266 3.727-6.455zm-15.398 8.89c2.069-1.195 3.745-.24 3.751 2.138.007 2.377-1.658 5.26-3.727 6.455-2.068 1.195-3.745.24-3.751-2.138-.007-2.377 1.658-5.26 3.727-6.455zm-15.409 8.897c2.069-1.194 3.745-.24 3.751 2.137.007 2.378-1.658 5.261-3.727 6.456-2.069 1.194-3.745.239-3.751-2.138-.006-2.377 1.658-5.261 3.727-6.455zm-15.398 8.89c2.058-1.188 3.745-.24 3.751 2.137.008 2.378-1.669 5.268-3.726 6.456-2.069 1.194-3.745.239-3.751-2.138-.008-2.377 1.658-5.26 3.726-6.455zm-15.409 8.896c2.068-1.194 3.745-.24 3.751 2.138.007 2.377-1.658 5.26-3.727 6.455-2.068 1.194-3.745.24-3.751-2.138-.007-2.377 1.658-5.26 3.727-6.455zm-15.398 8.891c2.058-1.188 3.744-.24 3.75 2.138.007 2.378-1.669 5.267-3.727 6.455-2.068 1.194-3.755.246-3.762-2.132-.006-2.377 1.67-5.267 3.739-6.461zm-15.409 8.896c2.069-1.195 3.745-.24 3.751 2.137.007 2.377-1.658 5.261-3.727 6.455-2.069 1.195-3.745.24-3.752-2.138-.006-2.377 1.658-5.26 3.728-6.454zM542.914 278.986l-.021.012-16.163 9.456c-2.521 1.481-4.551 5.021-4.522 7.907l.162 18.51c.018 2.895 2.082 4.031 4.595 2.58l.021-.012 16.163-9.468c2.521-1.468 4.551-5.009 4.522-7.894l-.161-18.523c-.019-2.884-2.074-4.025-4.596-2.568zm-5.475 17.82 3.501 1.29c.274.102.08.68-.217.852a.355.355 0 0 1-.137.047l-4.219.513a.326.326 0 0 0-.128.044.781.781 0 0 0-.345.539l-.74 5.562a.793.793 0 0 1-.359.551c-.16.092-.319.07-.352-.141l-.661-4.778c-.027-.194-.186-.24-.354-.143a.565.565 0 0 0-.121.095l-4.24 4.259a.61.61 0 0 1-.132.104c-.307.177-.499-.185-.215-.611l3.535-5.266c.183-.267.182-.576.009-.637l-3.489-1.309c-.274-.102-.088-.676.214-.85a.345.345 0 0 1 .139-.048l4.208-.507a.326.326 0 0 0 .133-.046.804.804 0 0 0 .351-.543l.74-5.562a.762.762 0 0 1 .35-.545c.162-.093.322-.068.349.153l.672 4.759c.026.192.176.251.345.154a.628.628 0 0 0 .131-.105l4.23-4.253a.643.643 0 0 1 .132-.104c.313-.181.499.195.214.611l-3.536 5.266c-.181.265-.181.575-.008.649zM584.625 254.581l-.02.012-16.173 9.462c-2.522 1.48-4.541 5.015-4.522 7.906l.16 18.523c.03 2.877 2.084 4.019 4.597 2.568a.176.176 0 0 1 .02-.012l16.173-9.462c2.521-1.48 4.541-5.015 4.522-7.906l-.161-18.523c-.03-2.877-2.084-4.018-4.596-2.568zm-6.25 18.429 3.49 1.309c.273.102.088.676-.214.85a.361.361 0 0 1-.14.049l-4.208.507a.358.358 0 0 0-.137.048.793.793 0 0 0-.347.542l-.74 5.561a.757.757 0 0 1-.347.539c-.162.094-.326.07-.353-.146l-.672-4.771c-.026-.186-.182-.241-.355-.141a.604.604 0 0 0-.119.093l-4.241 4.259a.634.634 0 0 1-.137.11c-.302.174-.483-.198-.21-.605l3.547-5.284c.172-.26.182-.577.009-.638l-3.501-1.303c-.274-.101-.088-.675.214-.85a.378.378 0 0 1 .139-.048l4.208-.507a.387.387 0 0 0 .139-.049.774.774 0 0 0 .346-.541l.739-5.561a.781.781 0 0 1 .352-.542c.163-.094.326-.07.36.143l.661 4.765c.026.197.189.249.365.148a.58.58 0 0 0 .12-.094l4.23-4.265a.624.624 0 0 1 .129-.102c.308-.178.502.193.218.609l-3.537 5.278c-.181.266-.18.564-.008.637zM626.345 230.184l-.04.024-16.163 9.455c-2.522 1.469-4.551 5.009-4.522 7.894l.161 18.523c.019 2.883 2.073 4.025 4.584 2.574l.021-.012 16.173-9.462c2.522-1.48 4.551-5.021 4.522-7.906l-.16-18.51c-.019-2.888-2.062-4.032-4.576-2.58zm-5.645 17.981 3.501 1.302c.264.108.078.682-.225.857a.378.378 0 0 1-.14.049l-4.207.507a.336.336 0 0 0-.133.046.806.806 0 0 0-.352.544l-.739 5.562a.768.768 0 0 1-.35.544c-.161.093-.323.069-.35-.152l-.672-4.759c-.026-.192-.176-.251-.344-.154a.603.603 0 0 0-.131.105l-4.23 4.253a.67.67 0 0 1-.132.104c-.314.181-.499-.194-.215-.61l3.536-5.266c.183-.267.182-.576.009-.638l-3.501-1.303c-.273-.102-.08-.68.218-.852a.35.35 0 0 1 .136-.047l4.219-.513a.32.32 0 0 0 .128-.044.792.792 0 0 0 .345-.539l.75-5.568a.762.762 0 0 1 .346-.542c.161-.093.321-.068.354.15l.661 4.765c.027.195.187.24.36.14a.664.664 0 0 0 .126-.098l4.23-4.253a.64.64 0 0 1 .131-.104c.307-.177.499.185.215.611l-3.535 5.266c-.183.266-.182.575-.009.637zM668.055 205.78l-.039.023-16.174 9.462c-2.522 1.468-4.541 5.003-4.522 7.894l.161 18.523c.03 2.87 2.073 4.025 4.576 2.579l.039-.023 16.173-9.462c2.522-1.48 4.541-5.015 4.522-7.906l-.161-18.51c-.028-2.87-2.071-4.025-4.575-2.58zm-5.556 18.091 3.489 1.309c.274.102.088.676-.214.85a.345.345 0 0 1-.139.048l-4.208.507a.355.355 0 0 0-.133.047.787.787 0 0 0-.351.543l-.74 5.562a.783.783 0 0 1-.356.548c-.161.093-.322.068-.355-.15l-.662-4.765c-.026-.195-.185-.24-.354-.143a.599.599 0 0 0-.121.095l-4.241 4.259a.61.61 0 0 1-.13.104c-.305.176-.49-.19-.216-.61l3.547-5.273c.171-.261.171-.57-.002-.632l-3.491-1.309c-.273-.102-.087-.676.214-.85a.361.361 0 0 1 .14-.049l4.208-.507a.364.364 0 0 0 .137-.048.797.797 0 0 0 .347-.541l.74-5.562a.762.762 0 0 1 .35-.545c.161-.093.322-.068.35.152l.672 4.759c.026.192.175.25.344.153a.617.617 0 0 0 .13-.105l4.241-4.259a.592.592 0 0 1 .129-.102c.306-.177.493.198.218.609l-3.547 5.272c-.17.262-.181.578.004.633z"/><linearGradient id="k" x1="469.36" x2="666.177" y1="222.148" y2="222.148" gradientUnits="userSpaceOnUse"><stop offset="0" stop-color="#326ab3"/><stop offset="1" stop-color="#003780"/></linearGradient><path fill="url(#k)" d="M550.929 219.987c-.007-2.377-1.693-3.326-3.75-2.137-2.069 1.195-3.745 4.084-3.738 6.461.006 2.378 1.693 3.326 3.762 2.132 2.057-1.189 3.732-4.078 3.726-6.456z"/><linearGradient id="l" x1="469.36" x2="666.177" y1="320.587" y2="320.587" gradientUnits="userSpaceOnUse"><stop offset="0" stop-color="#326ab3"/><stop offset="1" stop-color="#003780"/></linearGradient><path fill="url(#l)" d="m473.417 328.25.265-.155 16.372-9.513c-.547-.618-1.526-.67-2.633-.031a.558.558 0 0 1-.033.019l-12.192 7.08-.031-5.393c-.004-1.386.973-3.079 2.169-3.77l5.076-2.955c1.207-.697 2.191-.149 2.195 1.238l.018 2.594c.001.285.098.476.26.569.173.086.389.073.636-.07.496-.286.893-.975.892-1.544l-.018-2.854c-.007-2.37-1.693-3.314-3.753-2.124l-.021.011-5.516 3.198c-2.069 1.207-3.734 4.102-3.727 6.48l.033 5.658-.954.554c-1.131.665-2.11 1.851-2.646 3.103l3.609-2.098v.003z"/><linearGradient id="m" x1="469.36" x2="666.177" y1="330.402" y2="330.402" gradientUnits="userSpaceOnUse"><stop offset="0" stop-color="#326ab3"/><stop offset="1" stop-color="#003780"/></linearGradient><path fill="url(#m)" d="m490.347 319.059-20.829 12.1c-.107.396-.16.774-.158 1.133l.019 2.991c.039 6.064 4.771 8.247 10.59 4.886a.982.982 0 0 1 .044-.025c2.931-1.705 5.568-4.467 7.469-7.575 1.902-3.107 3.069-6.546 3.049-9.573l-.019-2.99c-.001-.373-.056-.688-.165-.947zm-10.358 16.521-.02.012c-1.941 1.121-3.53.22-3.536-2.014-.017-2.234 1.562-4.982 3.511-6.108l.02-.012c1.941-1.121 3.53-.219 3.548 2.008.007 2.241-1.561 4.982-3.523 6.114z"/><linearGradient id="n" x1="469.36" x2="666.174" y1="331.804" y2="331.804" gradientUnits="userSpaceOnUse"><stop offset="0" stop-color="#326ab3"/><stop offset="1" stop-color="#003780"/></linearGradient><path fill="url(#n)" d="M479.965 329.652a1.262 1.262 0 0 0-.057.035c-.431.274-.775.881-.784 1.383-.01.365.163.587.412.618l-.145 2.291.141.092.905-.535.129-.236-.168-2.11c.247-.316.408-.719.407-1.066-.002-.524-.381-.738-.84-.472z"/><linearGradient id="o" x1="469.36" x2="666.176" y1="231.042" y2="231.042" gradientUnits="userSpaceOnUse"><stop offset="0" stop-color="#326ab3"/><stop offset="1" stop-color="#003780"/></linearGradient><path fill="url(#o)" d="M531.793 235.339c2.069-1.195 3.734-4.078 3.727-6.455-.006-2.378-1.682-3.332-3.751-2.138-2.069 1.195-3.734 4.078-3.727 6.455.007 2.377 1.682 3.332 3.751 2.138z"/><linearGradient id="p" x1="469.36" x2="666.177" y1="297.94" y2="297.94" gradientUnits="userSpaceOnUse"><stop offset="0" stop-color="#326ab3"/><stop offset="1" stop-color="#003780"/></linearGradient><path fill="url(#p)" d="M540.984 290.889c.284-.416.099-.792-.214-.611a.643.643 0 0 0-.132.104l-4.23 4.253a.628.628 0 0 1-.131.105c-.169.098-.318.039-.345-.154l-.672-4.759c-.027-.221-.188-.247-.349-.153a.762.762 0 0 0-.35.545l-.74 5.562a.804.804 0 0 1-.351.543.321.321 0 0 1-.133.046l-4.208.507a.35.35 0 0 0-.139.048c-.302.174-.488.749-.214.851l3.489 1.309c.173.061.174.371-.009.637l-3.535 5.266c-.284.426-.091.788.215.611a.61.61 0 0 0 .132-.104l4.24-4.259a.67.67 0 0 1 .121-.095c.168-.097.327-.051.354.143l.661 4.777c.033.211.192.233.352.141a.79.79 0 0 0 .359-.551l.74-5.562a.788.788 0 0 1 .345-.539.31.31 0 0 1 .128-.044l4.219-.514a.34.34 0 0 0 .137-.047c.297-.171.49-.75.217-.852l-3.501-1.29c-.173-.074-.173-.383.009-.65l3.535-5.264z"/><linearGradient id="q" x1="469.36" x2="666.177" y1="225.023" y2="225.023" gradientUnits="userSpaceOnUse"><stop offset="0" stop-color="#326ab3"/><stop offset="1" stop-color="#003780"/></linearGradient><path fill="url(#q)" d="M662.499 223.871c-.185-.055-.174-.371-.003-.631l3.547-5.272c.275-.411.088-.786-.218-.609a.592.592 0 0 0-.129.102l-4.241 4.259a.617.617 0 0 1-.13.105c-.169.097-.318.039-.344-.153l-.672-4.759c-.028-.221-.19-.246-.35-.152a.758.758 0 0 0-.35.545l-.74 5.562c-.034.224-.18.445-.347.541a.352.352 0 0 1-.137.048l-4.208.507a.361.361 0 0 0-.14.049c-.302.174-.487.748-.214.85l3.491 1.309c.172.061.173.371.002.632l-3.547 5.273c-.274.42-.089.786.216.61a.58.58 0 0 0 .13-.104l4.241-4.259a.637.637 0 0 1 .121-.095c.168-.097.327-.052.354.143l.662 4.765c.033.218.195.243.355.15a.783.783 0 0 0 .356-.547l.74-5.562a.792.792 0 0 1 .351-.543.349.349 0 0 1 .133-.047l4.208-.507a.345.345 0 0 0 .139-.048c.302-.174.488-.748.214-.85l-3.49-1.312z"/><linearGradient id="r" x1="469.361" x2="666.177" y1="186.573" y2="186.573" gradientUnits="userSpaceOnUse"><stop offset="0" stop-color="#326ab3"/><stop offset="1" stop-color="#003780"/></linearGradient><path fill="url(#r)" d="M605.065 188.731c.007 2.378 1.683 3.332 3.751 2.138 2.069-1.195 3.734-4.078 3.727-6.455-.007-2.378-1.682-3.332-3.751-2.138-2.069 1.195-3.734 4.078-3.727 6.455z"/><linearGradient id="s" x1="469.36" x2="666.178" y1="267.471" y2="267.471" gradientUnits="userSpaceOnUse"><stop offset="0" stop-color="#326ab3"/><stop offset="1" stop-color="#003780"/></linearGradient><path fill="url(#s)" d="m472.502 275.524 13.199-7.671c1.186-.685 2.131-2.346 2.127-3.708l-.001-.235c-.019-2.742-.994-4.263-2.572-4.753-.277-.086-.607-.017-.938.174-.351.203-.702.542-.991.977-1.203 1.848-2.753 3.437-4.444 4.414l-.047.027c-1.631.942-3.123 1.161-4.312.79-.279-.093-.616-.026-.949.166-.35.202-.699.543-.979.984-1.418 2.233-2.275 4.761-2.256 7.38v.248c.004 1.362.978 1.891 2.163 1.207z"/><linearGradient id="t" x1="469.361" x2="666.177" y1="195.469" y2="195.469" gradientUnits="userSpaceOnUse"><stop offset="0" stop-color="#326ab3"/><stop offset="1" stop-color="#003780"/></linearGradient><path fill="url(#t)" d="M593.383 191.173c-2.068 1.194-3.733 4.078-3.727 6.455.007 2.378 1.682 3.332 3.751 2.138 2.068-1.195 3.734-4.079 3.727-6.456-.006-2.377-1.682-3.332-3.751-2.137z"/><linearGradient id="u" x1="469.361" x2="666.176" y1="204.361" y2="204.361" gradientUnits="userSpaceOnUse"><stop offset="0" stop-color="#326ab3"/><stop offset="1" stop-color="#003780"/></linearGradient><path fill="url(#u)" d="M577.985 200.063c-2.068 1.195-3.734 4.078-3.726 6.455.007 2.377 1.682 3.332 3.751 2.138 2.058-1.188 3.734-4.078 3.726-6.455-.007-2.378-1.693-3.326-3.751-2.138z"/><linearGradient id="v" x1="469.36" x2="666.177" y1="254.757" y2="254.757" gradientUnits="userSpaceOnUse"><stop offset="0" stop-color="#326ab3"/><stop offset="1" stop-color="#003780"/></linearGradient><path fill="url(#v)" d="m478.76 262.87.02-.012c3.901-2.264 7.037-7.734 7.014-12.209-.024-4.469-3.201-6.251-7.094-4.004l-.02.012c-3.901 2.264-7.037 7.734-7.013 12.21.023 4.468 3.201 6.249 7.093 4.003z"/><linearGradient id="w" x1="469.361" x2="666.178" y1="249.312" y2="249.312" gradientUnits="userSpaceOnUse"><stop offset="0" stop-color="#326ab3"/><stop offset="1" stop-color="#003780"/></linearGradient><path fill="url(#w)" d="M619.496 250.925a.352.352 0 0 1 .133-.046l4.207-.507a.361.361 0 0 0 .14-.049c.302-.175.489-.749.225-.856l-3.501-1.303c-.173-.062-.174-.371.009-.637l3.535-5.266c.284-.426.091-.788-.215-.611a.64.64 0 0 0-.131.104l-4.23 4.253a.664.664 0 0 1-.126.098c-.173.1-.333.054-.36-.14l-.661-4.765c-.033-.218-.194-.243-.354-.15a.762.762 0 0 0-.346.542l-.75 5.568a.799.799 0 0 1-.345.539.316.316 0 0 1-.128.044l-4.219.513a.35.35 0 0 0-.136.047c-.297.172-.491.75-.218.852l3.501 1.302c.173.061.174.371-.009.638l-3.536 5.266c-.284.416-.099.792.215.61a.635.635 0 0 0 .132-.104l4.23-4.253a.603.603 0 0 1 .131-.105c.168-.097.318-.039.344.154l.672 4.759c.027.221.189.246.35.152a.768.768 0 0 0 .35-.544l.739-5.562a.81.81 0 0 1 .352-.543z"/><linearGradient id="x" x1="469.361" x2="666.177" y1="177.681" y2="177.681" gradientUnits="userSpaceOnUse"><stop offset="0" stop-color="#326ab3"/><stop offset="1" stop-color="#003780"/></linearGradient><path fill="url(#x)" d="M624.19 173.386c-2.058 1.189-3.734 4.078-3.727 6.455.007 2.378 1.693 3.326 3.752 2.138 2.068-1.194 3.733-4.077 3.726-6.455-.006-2.377-1.682-3.332-3.751-2.138z"/><linearGradient id="y" x1="469.361" x2="666.177" y1="168.786" y2="168.786" gradientUnits="userSpaceOnUse"><stop offset="0" stop-color="#326ab3"/><stop offset="1" stop-color="#003780"/></linearGradient><path fill="url(#y)" d="M639.599 164.49c-2.069 1.195-3.733 4.078-3.727 6.455.007 2.377 1.682 3.332 3.751 2.138 2.069-1.195 3.734-4.078 3.727-6.456-.006-2.377-1.682-3.332-3.751-2.137z"/><linearGradient id="z" x1="469.361" x2="666.177" y1="213.256" y2="213.256" gradientUnits="userSpaceOnUse"><stop offset="0" stop-color="#326ab3"/><stop offset="1" stop-color="#003780"/></linearGradient><path fill="url(#z)" d="M566.327 211.097c-.007-2.378-1.683-3.332-3.751-2.138-2.069 1.195-3.734 4.077-3.727 6.455.007 2.377 1.683 3.332 3.751 2.137 2.069-1.193 3.734-4.077 3.727-6.454z"/><linearGradient id="A" x1="469.36" x2="666.177" y1="274.152" y2="274.152" gradientUnits="userSpaceOnUse"><stop offset="0" stop-color="#326ab3"/><stop offset="1" stop-color="#003780"/></linearGradient><path fill="url(#A)" d="M581.651 275.169c.302-.174.487-.749.214-.851l-3.49-1.309c-.173-.074-.174-.371.008-.638l3.537-5.278c.283-.416.09-.787-.218-.609a.648.648 0 0 0-.128.102l-4.23 4.265a.639.639 0 0 1-.12.093c-.176.101-.339.049-.365-.148l-.661-4.765c-.034-.214-.197-.237-.36-.143a.779.779 0 0 0-.352.541l-.739 5.561a.774.774 0 0 1-.346.541.357.357 0 0 1-.139.049l-4.208.507a.35.35 0 0 0-.139.048c-.302.175-.488.749-.214.851l3.501 1.303c.173.061.163.377-.009.638l-3.547 5.284c-.273.407-.091.779.21.605a.634.634 0 0 0 .137-.11l4.241-4.259a.668.668 0 0 1 .119-.093c.173-.1.329-.045.355.141l.672 4.771c.028.216.191.24.353.146a.75.75 0 0 0 .347-.538l.74-5.561a.792.792 0 0 1 .347-.542.347.347 0 0 1 .137-.048l4.208-.507a.328.328 0 0 0 .139-.047z"/><linearGradient id="B" x1="634.869" x2="694.709" y1="215.84" y2="215.84" gradientUnits="userSpaceOnUse"><stop offset="0" stop-color="#e85467"/><stop offset="1" stop-color="#b01c30"/></linearGradient><path fill="url(#B)" d="M678.865 180.716c-4.682-2.721-11.165-2.337-18.319 1.793-14.229 8.215-25.722 28.122-25.676 44.472.023 8.116 2.889 13.827 7.511 16.513l15.845 9.208c-4.622-2.686-7.488-8.398-7.511-16.514-.046-16.35 11.447-36.257 25.676-44.472 7.154-4.13 13.637-4.514 18.32-1.793l-15.846-9.207z"/><linearGradient id="C" x1="650.714" x2="702.224" y1="221.313" y2="221.313" gradientUnits="userSpaceOnUse"><stop offset="0" stop-color="#e85467"/><stop offset="1" stop-color="#b01c30"/></linearGradient><path fill="url(#C)" d="M676.39 191.717c-14.229 8.215-25.722 28.122-25.676 44.472.046 16.34 11.615 22.932 25.844 14.717 14.219-8.209 25.713-28.116 25.666-44.456-.047-16.351-11.615-22.943-25.834-14.733z"/><path fill="#FFF" d="M680.54 222.239c3.422-5.564 6.844-11.128 10.257-16.686l-4.266-2.628c-3.011 5.842-6.021 11.695-9.032 17.537-3.034-2.287-6.077-4.568-9.11-6.865-1.387 2.535-2.774 5.058-4.152 7.587l10.269 4.605c-3.355 5.525-6.701 11.045-10.057 16.56 1.425.878 2.851 1.756 4.267 2.639 2.953-5.82 5.907-11.63 8.86-17.438 3.091 2.253 6.191 4.501 9.282 6.766 1.387-2.535 2.774-5.069 4.161-7.593-3.49-1.496-6.99-2.987-10.479-4.484z"/><path fill="#F9CBCB" d="M775.363 359.758c-.019.143-.019.303-.054.464-.341 2.839-2.13 6.088-4.596 9.372-4.684 6.229-11.867 12.562-16.476 16.345-2.645 2.159-4.432 3.496-4.432 3.496 4.564 10.325-4.692 19.818-7.438 14.352-.571-1.178 1.521-5.213 1.522-6.82.001-1-1.756-2.108-2.964-3.877-1.371-2.01-.209-4.518.631-5.696 1.627-2.231 3.218-4.73 4.845-7.3 4.344-6.836 8.992-14.261 15.478-19.274-10.942-5.829-18.315-8.441-25.864-15.34l3.592-28.461c.001-.001 36.676 29.686 35.756 42.739z"/><linearGradient id="D" x1="759.456" x2="726.702" y1="356.901" y2="342.731" gradientUnits="userSpaceOnUse"><stop offset="0" stop-color="#e85467"/><stop offset="1" stop-color="#b01c30"/></linearGradient><path fill="url(#D)" d="M775.363 359.758c-.019.143-.019.303-.054.464a1598.76 1598.76 0 0 1-4.596 9.372c-4.684 6.229-11.867 12.562-16.476 16.345l-7.835-5.845c4.344-6.836 8.992-14.261 15.478-19.274-10.942-5.829-18.315-8.441-25.864-15.34l3.592-28.461c0-.001 36.675 29.686 35.755 42.739z"/><path fill="#F9CBCB" d="M710.571 390.902s1.456 90.676 18.012 110.925c7.988 9.77 34.584 62.045 34.584 62.045 2.978.414 5.744-.187 7.888-3.752-5.418-29.599-12.644-54.937-24.296-69.654-6.082-41.743 11.756-59.96-7.923-99.543l-28.265-.021z"/><path fill="#F9CBCB" d="M703.47 384.641c-6.986 43.512-4.464 68.31 1.028 113.708.056.461.137.927.242 1.376l16.166 69.542 8.148 1.126c2.055-22.978.865-51.873-3.193-71.309 3.016-56.66 31.526-72.432 4.993-114.423l-27.384-.02z"/><linearGradient id="E" x1="692.639" x2="768.068" y1="453.43" y2="453.43" gradientUnits="userSpaceOnUse"><stop offset="0" stop-color="#326ab3"/><stop offset="1" stop-color="#003780"/></linearGradient><path fill="url(#E)" d="M758.385 514.501c-9.106-1.131-17.406-6.385-23.196.235-4.236 4.829-9.131 8.762-15.204 10.757a28.853 28.853 0 0 1-8.376 1.452c-5.553.141-10.497-4.09-11.957-10.361-2.778-11.999-7.029-34.018-7.013-56.681.03-40.49 11.485-78.078 11.485-78.078s.178-.042.5-.124c3.733-.831 27.397-5.646 36.085 5.128 9.438 11.713 16.337 27.194 13.94 57.352-1.712 21.535 6.917 41.558 12.603 55.893 2.836 7.187-2.117 15.287-8.867 14.427z"/><path fill="#F9CBCB" d="m710.324 314.372-9.908 20.993s-.338-.536-.909-1.483c-3.782-6.128-18.121-29.602-21.757-38.962-2.923-7.538-3.462-26.896-2.935-40.038.2-4.875.542-8.91.972-11.16 0 0-6.139-5.611-.44-8.733 5.484-2.996 1.633-11.766 3.687-12.051 2.054-.284 3.17 11.574 3.17 11.574s2.913-3.088 3.894-1.908c1.481 1.751-3.561 11.122-3.561 11.122.713 2.161 1.39 4.377 2.031 6.627 3.313 11.645 5.572 24.307 6.723 37.915 6.119 6.345 12.523 15.653 19.033 26.104z"/><path fill="#3E3279" d="m737.684 383.802-35.374-.026c1.845-8.034 6.366-12.334-.263-30.572-2.763-7.591-3.24-14.02-2.54-19.323 1.759-13.177 10.817-19.51 10.817-19.51l8.486-4.761 10.375.007 10.423 7.4s-.539 29.303-2.171 39.319c-1.436 8.84-3.121 18.928.247 27.466z"/><linearGradient id="F" x1="674.635" x2="743.52" y1="321.591" y2="321.591" gradientUnits="userSpaceOnUse"><stop offset="0" stop-color="#e85467"/><stop offset="1" stop-color="#b01c30"/></linearGradient><path fill="url(#F)" d="M743.52 389.289c-16.274 8.327-21.839-.641-34.196-.739a29.857 29.857 0 0 0-3.036.159c-3.75.408-6.784-2.952-6.156-6.666 1.954-11.409 1.303-24.017-1.56-41.036a52.614 52.614 0 0 0-3.135-11.039 54.512 54.512 0 0 0-3.013-6.252c-5.332-9.539-12.199-22.438-14.676-28.796-2.923-7.538-3.462-26.896-2.935-40.038l9.753-4.529c3.313 11.645 5.769 23.165 7.777 37.452 4.96 5.164 20.589 25.104 23.894 23.25l2.572-1.444 10.375.007 10.423 7.4s-.539 29.303-2.171 39.319c-1.435 8.839 2.715 24.413 6.084 32.952z"/><path fill="#F9CBCB" d="M707.647 275.628s-4.466 12.34-1.043 20.057c3.423 7.717 17.141 2.412 17.141 2.412l-16.098-22.469z"/><path fill="#F9CBCB" d="m716.607 298.557-2.078 11.601 9.535.006-.318-12.067z"/><path fill="#30334D" d="m729.405 566.596 1.316 6.744c.465 1.842.597 3.752.391 5.64l-.755 7.285-2.673-.021.238-4.612c-.117-1.192-1.616-1.649-2.378-.725l-2.495 3.024c-.72 1.355-2.034 2.308-3.552 2.526-4.636.665-13.696.945-14.114-2.094-.43-3.125 8.361-3.38 10.882-6.858 2.441-3.367 4.082-10.637 4.082-10.637 2.758 1.109 6.009.751 9.058-.272zM771.054 560.119l4.257 5.19a16.01 16.01 0 0 1 2.755 4.936l2.42 6.913-2.428 1.119-1.749-4.273c-.614-1.029-2.165-.804-2.461.357l-.969 3.798c-.076 1.532-.858 2.955-2.14 3.798-3.911 2.577-11.989 6.688-13.661 4.116-1.72-2.644 6.125-6.62 6.925-10.839.774-4.086-.837-11.363-.837-11.363 2.969-.17 5.566-1.527 7.888-3.752zM724.225 266.453c-3.379-3.197-17.065-4.054-17.497 6.801-.402 10.12 11.843 19.505 7.049 29.6-4.794 10.095-3.935 13.517 5.646 16.597 9.582 3.08 26.521 5.133 25.152-10.779-1.369-15.912-4.89-31.828-10.779-38.412-4.17-4.662-9.571-3.807-9.571-3.807z"/><linearGradient id="G" x1="993.568" x2="778.11" y1="564.053" y2="429.962" gradientUnits="userSpaceOnUse"><stop offset="0" stop-color="#ffc54a"/><stop offset="1" stop-color="#ffa561"/></linearGradient><path fill="url(#G)" d="M977.922 562.549c6.852-3.951 17.951-3.942 24.865.049 3.434 1.998 5.146 4.615 5.139 7.226l.032-11.397c.008-2.612-1.704-5.228-5.138-7.226-6.914-3.991-18.013-4-24.865-.049-3.43 1.978-5.15 4.575-5.157 7.176l-.032 11.397c.007-2.601 1.726-5.198 5.156-7.176z"/><linearGradient id="H" x1="990.32" x2="774.861" y1="569.273" y2="435.18" gradientUnits="userSpaceOnUse"><stop offset="0" stop-color="#ffc54a"/><stop offset="1" stop-color="#ffa561"/></linearGradient><path fill="url(#H)" d="M1012.444 567.284c-15.781 11.395-44.621 12.048-62.012 2.007-6.625-3.857-10.542-8.617-11.812-13.545l.023-8.257c.013-4.469-3.298-8.796-8.816-12.009l-48.759-28.377c-1.201-.698-3.15-.703-4.356-.008l-5.858 3.373a8.017 8.017 0 0 1-1.971.784l.03-10.482c.001-.457-.298-.914-.897-1.264l-13.06-7.597c-1.201-.698-3.15-.703-4.351-.01l-5.854 3.376c-.468.27-1.008.48-1.573.655l.03-10.577c.001-.327-.149-.658-.449-.958-1.347-1.352-2.018-2.867-2.014-4.38l-.033 11.397c-.004 1.513.667 3.028 2.014 4.38.072.072.135.147.19.223-2.237.622-4.972.514-6.884-.487-1.353-.778-2.013-1.753-2.01-2.706l-.032 11.397c-.003.953.657 1.928 2.01 2.706 2.481 1.299 6.359 1.108 8.719-.253l5.853-3.376c1.202-.693 3.151-.688 4.352.01l13.06 7.597c.22.129.386.275.525.428-2.132.472-4.603.316-6.369-.608-1.355-.779-2.016-1.755-2.013-2.707l-.032 11.397c-.003.953.659 1.928 2.013 2.707 2.477 1.296 6.355 1.105 8.714-.255l5.858-3.373c1.206-.696 3.154-.691 4.355.008l48.759 28.377c4.313 2.512 7.269 5.705 8.351 9.114l-.021 7.546c-.017 6.172 4.043 12.358 12.274 17.151 17.391 10.041 46.231 9.388 62.012-2.007 5.981-4.321 8.97-9.622 8.985-14.931l.032-11.397c-.013 5.308-3.002 10.609-8.983 14.931z"/><linearGradient id="I" x1="858.681" x2="1092.041" y1="480.264" y2="618.912" gradientUnits="userSpaceOnUse"><stop offset="0" stop-color="#ffc54a"/><stop offset="1" stop-color="#ffa561"/></linearGradient><path fill="url(#I)" d="M1012.033 536.989a37.686 37.686 0 0 0-2.875-1.833c-9.411-5.434-22.165-7.723-34.393-6.881-8.553.587-17.081-1.293-23.282-4.873l-84.672-49.281c-5.668-3.272-14.874-3.695-20.896-.66-5.594 2.822-6.649 7.427-3.155 10.934.716.716.578 1.613-.433 2.196l-6.523 3.76c-2.412 1.392-2.41 3.659.229 5.177 2.481 1.299 6.359 1.108 8.718-.253l5.853-3.376c1.202-.693 3.151-.688 4.351.01l13.06 7.597c1.196.701 1.198 1.827-.008 2.523l-6.097 3.518c-2.417 1.389-2.414 3.657.229 5.177 2.477 1.296 6.355 1.105 8.714-.255l5.858-3.373c1.206-.696 3.155-.691 4.355.008l48.759 28.377c6.258 3.644 9.677 8.72 8.629 13.812-1.468 7.079 2.475 14.467 11.976 19.999 17.391 10.04 46.231 9.388 62.012-2.007 12.143-8.773 11.955-21.581-.409-30.296zm-9.23 28.622c-6.852 3.951-17.956 3.925-24.865-.064-6.86-3.992-6.852-10.434.017-14.395 6.852-3.951 17.951-3.942 24.865.049 6.86 3.992 6.848 10.452-.017 14.41z"/><linearGradient id="J" x1="1052.377" x2="1050.95" y1="683.463" y2="665.489" gradientUnits="userSpaceOnUse"><stop offset="0" stop-color="#b0deff"/><stop offset="1" stop-color="#82baff"/></linearGradient><path fill="url(#J)" d="m1073.405 679.621-.043 14.245c.009-2.899-2.035-5.802-6.127-8.014-8.133-4.396-21.281-4.398-29.365 0-4.013 2.183-6.021 5.041-6.03 7.903l.043-14.245c.009-2.862 2.017-5.719 6.03-7.903 8.085-4.398 21.233-4.396 29.365 0 4.092 2.211 6.136 5.114 6.127 8.014z"/><linearGradient id="K" x1="1024.39" x2="1027.529" y1="692.236" y2="692.236" gradientUnits="userSpaceOnUse"><stop offset="0" stop-color="#b0deff"/><stop offset="1" stop-color="#82baff"/></linearGradient><path fill="url(#K)" d="m1027.529 687.286-.043 14.245c-1.438-1.373-2.474-2.842-3.096-4.344l.043-14.245c.623 1.502 1.658 2.971 3.096 4.344z"/><linearGradient id="L" x1="1056.115" x2="1033.29" y1="677.92" y2="688.761" gradientUnits="userSpaceOnUse"><stop offset="0" stop-color="#b0deff"/><stop offset="1" stop-color="#82baff"/></linearGradient><path fill="url(#L)" d="M1061.897 674.534c5.139 2.778 5.166 7.287.056 10.067-5.106 2.778-13.416 2.775-18.555-.003-5.144-2.78-5.171-7.284-.065-10.062 5.11-2.78 13.421-2.782 18.564-.002z"/><linearGradient id="M" x1="1077.003" x2="1080.518" y1="693.007" y2="693.007" gradientUnits="userSpaceOnUse"><stop offset="0" stop-color="#b0deff"/><stop offset="1" stop-color="#82baff"/></linearGradient><path fill="url(#M)" d="m1080.518 683.761-.043 14.245c-.742 1.479-1.907 2.914-3.472 4.246l.043-14.245c1.565-1.332 2.73-2.767 3.472-4.246z"/><linearGradient id="N" x1="1024.577" x2="1028.235" y1="676.484" y2="676.484" gradientUnits="userSpaceOnUse"><stop offset="0" stop-color="#b0deff"/><stop offset="1" stop-color="#82baff"/></linearGradient><path fill="url(#N)" d="m1026.633 684.53 1.559.843.043-14.245-1.559-.843c-1.373-.742-2.059-1.716-2.056-2.689l-.043 14.245c-.003.973.683 1.947 2.056 2.689z"/><linearGradient id="O" x1="1066.913" x2="1090.046" y1="688.879" y2="688.879" gradientUnits="userSpaceOnUse"><stop offset="0" stop-color="#b0deff"/><stop offset="1" stop-color="#82baff"/></linearGradient><path fill="url(#O)" d="M1083.093 683.761h-1.978c.288-.422.44-.864.441-1.309l.043-14.245c-.003.962-.679 1.923-2.029 2.657l-1.819.99-.043 14.245 1.819-.99c.387-.211.712-.441.988-.684l-.024 7.94c-.278.67-.89 1.308-1.85 1.83-2.714 1.477-7.128 1.479-9.86.003l-1.826-.987-.043 14.245 1.826.987c2.732 1.476 7.146 1.474 9.86-.003 1.348-.734 2.023-1.693 2.026-2.653l.023-7.782h2.402c3.854-.003 6.965-1.695 6.953-3.783l.043-14.245c.013 2.088-3.098 3.781-6.952 3.784z"/><linearGradient id="P" x1="1039.478" x2="1065.769" y1="696.813" y2="696.813" gradientUnits="userSpaceOnUse"><stop offset="0" stop-color="#b0deff"/><stop offset="1" stop-color="#82baff"/></linearGradient><path fill="url(#P)" d="M1061.953 684.601c-5.106 2.778-13.416 2.775-18.555-.003-2.589-1.399-3.882-3.235-3.876-5.068l-.043 14.245c-.006 1.833 1.287 3.669 3.876 5.068.512.277 1.064.519 1.633.74l-.028 9.332.008 1.396c.006 1.044.792 1.989 2.059 2.673 1.266.684 3.013 1.108 4.939 1.109 3.854-.003 6.965-1.695 6.953-3.782l.031-10.264c1.061-.317 2.062-.714 2.96-1.203 2.539-1.381 3.81-3.19 3.816-5.001l.043-14.245c-.006 1.813-1.276 3.621-3.816 5.003z"/><linearGradient id="Q" x1="1015.202" x2="1037.161" y1="694.063" y2="694.063" gradientUnits="userSpaceOnUse"><stop offset="0" stop-color="#b0deff"/><stop offset="1" stop-color="#82baff"/></linearGradient><path fill="url(#Q)" d="M1025.747 693.617c-.568-.307-1.01-.654-1.343-1.024l.029-9.651-2.195-.005c-1.924 0-3.669-.423-4.935-1.107-1.266-.684-2.052-1.629-2.058-2.673l-.043 14.245c.006 1.043.792 1.988 2.058 2.673 1.266.684 3.011 1.107 4.935 1.107l1.478.003-.024 7.987c-.003.973.682 1.947 2.056 2.69 2.732 1.476 7.151 1.476 9.865 0l1.549-.843.043-14.245-1.549.843c-2.715 1.476-7.134 1.476-9.866 0z"/><linearGradient id="R" x1="1037.117" x2="1045.003" y1="700.845" y2="700.845" gradientUnits="userSpaceOnUse"><stop offset="0" stop-color="#b0deff"/><stop offset="1" stop-color="#82baff"/></linearGradient><path fill="url(#R)" d="m1045.003 694.671-.043 14.245c-2.735-.41-5.38-1.044-7.842-1.896l.043-14.245c2.461.852 5.107 1.486 7.842 1.896z"/><linearGradient id="S" x1="1058.912" x2="1066.956" y1="701.167" y2="701.167" gradientUnits="userSpaceOnUse"><stop offset="0" stop-color="#b0deff"/><stop offset="1" stop-color="#82baff"/></linearGradient><path fill="url(#S)" d="m1066.956 693.212-.043 14.245c-2.528.776-5.224 1.332-8.001 1.664l.043-14.245c2.778-.332 5.473-.888 8.001-1.664z"/><linearGradient id="T" x1="1015.245" x2="1090.046" y1="679.569" y2="679.569" gradientUnits="userSpaceOnUse"><stop offset="0" stop-color="#b0deff"/><stop offset="1" stop-color="#82baff"/></linearGradient><path fill="url(#T)" d="M1087.987 677.305c-1.266-.684-3.013-1.108-4.939-1.109l-2.2.003c-.617-1.51-1.648-2.971-3.096-4.344l1.818-.989c2.714-1.477 2.704-3.87-.027-5.347-2.732-1.476-7.151-1.476-9.864 0l-1.549.842c-2.461-.853-5.112-1.484-7.847-1.894l-.008-1.397c-.006-1.043-.792-1.988-2.059-2.673-1.266-.685-3.012-1.108-4.94-1.11-3.849 0-6.96 1.693-6.948 3.78l.007 1.195c-2.778.327-5.473.884-7.996 1.662l-1.831-.99c-2.732-1.476-7.146-1.474-9.86.003-2.714 1.476-2.704 3.87.028 5.347l1.559.843c-1.565 1.332-2.721 2.767-3.467 4.249h-2.575c-3.849 0-6.96 1.693-6.948 3.78.006 1.044.792 1.988 2.058 2.673 1.266.684 3.011 1.107 4.935 1.107l2.195.005c.622 1.502 1.657 2.971 3.096 4.344l-1.809.984c-2.714 1.476-2.704 3.87.027 5.346 2.731 1.477 7.151 1.477 9.864 0l1.549-.843c2.462.853 5.108 1.487 7.842 1.897l.009 1.396c.006 1.044.793 1.989 2.058 2.673 1.266.684 3.013 1.108 4.94 1.11 3.854-.003 6.965-1.695 6.953-3.783l-.007-1.19c2.778-.333 5.474-.889 8.002-1.664l1.826.987c2.732 1.476 7.146 1.474 9.86-.003 2.714-1.476 2.7-3.867-.032-5.344l-1.564-.845c1.565-1.332 2.73-2.767 3.471-4.246h2.575c3.854-.002 6.965-1.695 6.953-3.782-.007-1.043-.793-1.988-2.059-2.673zm-20.618 10.223c-8.08 4.396-21.223 4.396-29.356 0-8.133-4.396-8.18-11.525-.1-15.921 8.085-4.398 21.233-4.396 29.365 0 8.133 4.396 8.175 11.523.091 15.921z"/><linearGradient id="U" x1="888.068" x2="948.053" y1="417.813" y2="417.813" gradientUnits="userSpaceOnUse"><stop offset="0" stop-color="#b0deff"/><stop offset="1" stop-color="#82baff"/></linearGradient><path fill="url(#U)" d="M928.066 387.971c-5.573-3.217-10.622-3.516-14.268-1.397l-25.73 14.953c3.646-2.119 8.695-1.82 14.268 1.397 11.075 6.394 20.023 21.892 19.987 34.618-.018 6.324-2.25 10.773-5.85 12.865l25.73-14.953c3.6-2.092 5.832-6.541 5.85-12.865.036-12.726-8.912-28.224-19.987-34.618z"/><linearGradient id="V" x1="898.768" x2="907.796" y1="406.554" y2="456.581" gradientUnits="userSpaceOnUse"><stop offset="0" stop-color="#b0deff"/><stop offset="1" stop-color="#82baff"/></linearGradient><path fill="url(#V)" d="M902.336 402.923c11.075 6.394 20.023 21.892 19.987 34.618-.036 12.73-9.043 17.862-20.117 11.468-11.075-6.394-20.023-21.892-19.987-34.622.036-12.725 9.043-17.858 20.117-11.464z"/><linearGradient id="W" x1="915.412" x2="974.407" y1="367.893" y2="367.893" gradientUnits="userSpaceOnUse"><stop offset="0" stop-color="#b0deff"/><stop offset="1" stop-color="#82baff"/></linearGradient><path fill="url(#W)" d="m948.677 357.211 25.73-14.953c-13.372 7.771-25.571 15.84-29.053 30.135-.716 2.935-2.205 5.016-4.211 6.182l-25.73 14.952c2.007-1.166 3.495-3.248 4.211-6.182 3.482-14.295 15.681-22.363 29.053-30.134z"/><linearGradient id="X" x1="882.464" x2="917.607" y1="224.959" y2="224.959" gradientUnits="userSpaceOnUse"><stop offset="0" stop-color="#b0deff"/><stop offset="1" stop-color="#82baff"/></linearGradient><path fill="url(#X)" d="m891.877 228.362 25.73-14.952a9.446 9.446 0 0 0-2.593 2.187c-2.127 2.607-4.422 4.568-6.82 5.962l-25.73 14.952c2.398-1.393 4.693-3.355 6.82-5.962a9.429 9.429 0 0 1 2.593-2.187z"/><linearGradient id="Y" x1="848.723" x2="1017.646" y1="249.926" y2="249.926" gradientUnits="userSpaceOnUse"><stop offset="0" stop-color="#b0deff"/><stop offset="1" stop-color="#82baff"/></linearGradient><path fill="url(#Y)" d="M991.274 207.228c-14.191-21.884-31.101-37.401-48.049-47.187-24.27-14.012-48.623-16.276-65.206-8.666a41.872 41.872 0 0 0-3.565 1.843l-25.73 14.952a41.872 41.872 0 0 1 3.565-1.843c16.582-7.61 40.936-5.346 65.206 8.666 16.949 9.785 33.858 25.302 48.049 47.186 27.23 41.989 33.257 85.459 18.623 107.619-6.663 10.089-17.149 16.788-27.795 22.975l25.729-14.953c10.646-6.187 21.132-12.886 27.795-22.975 14.635-22.158 8.607-65.629-18.622-107.617z"/><linearGradient id="Z" x1="914.129" x2="910.367" y1="181.019" y2="433.039" gradientUnits="userSpaceOnUse"><stop offset="0" stop-color="#b0deff"/><stop offset="1" stop-color="#82baff"/></linearGradient><path fill="url(#Z)" d="M917.495 174.994c16.949 9.785 33.858 25.302 48.049 47.187 27.23 41.988 33.257 85.459 18.622 107.62-16.751 25.364-57.662 29.299-64.542 57.546-1.793 7.346-8.424 9.347-15.913 5.023-9.573-5.573-16.989-19.164-16.285-29.664 4.415-65.721 75.2-53.214 42.393-114.955-4.158-7.826-9.964-13.408-15.956-16.868-9.875-5.702-20.254-5.634-24.578-.334-8.695 10.657-20.208 10.528-29.983 4.885-4.631-2.674-8.874-6.587-12.239-11.177-17.09-23.307-18.313-47.127 5.227-57.929 16.581-7.611 40.934-5.347 65.205 8.666z"/><linearGradient id="aa" x1="1038.652" x2="1098.639" y1="509.174" y2="509.174" gradientUnits="userSpaceOnUse"><stop offset="0" stop-color="#b0deff"/><stop offset="1" stop-color="#82baff"/></linearGradient><path fill="url(#aa)" d="M1078.65 479.332c-5.573-3.218-10.622-3.516-14.268-1.398l-25.73 14.952c3.646-2.119 8.695-1.82 14.268 1.398 11.075 6.394 20.026 21.894 19.99 34.62-.018 6.322-2.25 10.77-5.85 12.863l25.729-14.953c3.6-2.092 5.833-6.541 5.851-12.863.035-12.725-8.916-28.225-19.99-34.619z"/><linearGradient id="ab" x1="1032.802" x2="1072.909" y1="517.327" y2="517.327" gradientUnits="userSpaceOnUse"><stop offset="0" stop-color="#b0deff"/><stop offset="1" stop-color="#82baff"/></linearGradient><path fill="url(#ab)" d="M1052.92 494.284c11.075 6.394 20.026 21.894 19.99 34.62-.036 12.726-9.046 17.86-20.121 11.466s-20.023-21.896-19.986-34.622c.036-12.725 9.042-17.858 20.117-11.464z"/><linearGradient id="ac" x1="1035.763" x2="1105.108" y1="362.686" y2="362.686" gradientUnits="userSpaceOnUse"><stop offset="0" stop-color="#b0deff"/><stop offset="1" stop-color="#82baff"/></linearGradient><path fill="url(#ac)" d="M1079.319 243.071c-6.897-3.982-13.173-4.298-17.827-1.594l-25.73 14.952c4.654-2.704 10.93-2.388 17.827 1.594 14.292 8.251 25.839 29.117 25.789 46.606l-12.853 171.369c-.406 4.742-2.023 8.159-4.601 9.657l25.73-14.952c2.578-1.498 4.194-4.915 4.6-9.657l12.853-171.369c.051-17.488-11.497-38.354-25.788-46.606z"/><linearGradient id="ad" x1="1027.624" x2="1079.379" y1="370.584" y2="370.584" gradientUnits="userSpaceOnUse"><stop offset="0" stop-color="#b0deff"/><stop offset="1" stop-color="#82baff"/></linearGradient><path fill="url(#ad)" d="M1053.589 258.024c14.291 8.251 25.839 29.117 25.789 46.606l-12.853 171.369c-.766 8.928-5.821 13.161-13.502 8.726-7.675-4.431-12.683-14.458-13.406-24.238l-11.994-185.737c.051-17.49 11.675-24.977 25.966-16.726z"/><linearGradient id="ae" x1="-10962.82" x2="-10890.518" y1="331.151" y2="331.151" gradientTransform="matrix(-1 0 0 1 -10659.477 0)" gradientUnits="userSpaceOnUse"><stop offset="0" stop-color="#e85467"/><stop offset="1" stop-color="#b01c30"/></linearGradient><path fill="url(#ae)" d="m231.622 395.736 52.868-136.513c.831-2.146 2.292-3.823 3.755-4.668 1.119-.646 2.239-.806 3.08-.317l12.02 6.985c-.841-.489-1.961-.329-3.08.317-1.463.845-2.924 2.521-3.755 4.668l-52.868 136.513c-1.045 2.7-.602 4.87.704 5.629l-12.02-6.985c-1.305-.759-1.749-2.929-.704-5.629z"/><linearGradient id="af" x1="-11017.574" x2="-10902.537" y1="334.789" y2="334.789" gradientTransform="matrix(-1 0 0 1 -10659.477 0)" gradientUnits="userSpaceOnUse"><stop offset="0" stop-color="#e85467"/><stop offset="1" stop-color="#b01c30"/></linearGradient><path fill="url(#af)" d="m243.642 402.721 52.868-136.513c.831-2.147 2.292-3.823 3.755-4.668 1.463-.845 2.929-.858 3.769.324l53.468 75.12c1.681 2.363-.393 7.727-3.741 9.66l-106.336 61.393c-3.343 1.93-5.445-1.023-3.783-5.316z"/><path fill="#FFF" d="m256.346 396.058 92.714-53.529c1.982-1.144 3.216-4.326 2.22-5.73l-46.619-65.496c-.501-.701-1.371-.694-2.238-.193-.868.501-1.733 1.496-2.226 2.77l-46.096 119.024c-.985 2.55.258 4.302 2.245 3.154zm42.567-40.222c-.007-2.377 1.665-5.272 3.733-6.467 2.063-1.191 3.746-.232 3.752 2.145.007 2.371-1.665 5.265-3.728 6.457-2.068 1.194-3.75.236-3.757-2.135zm-2.452-51.438c-.158-2.014 1.279-4.649 3.114-5.708l5.847-3.376c1.835-1.059 3.282-.091 3.13 2.103l-2.811 41.456c-.131 1.943-1.482 4.158-3.11 5.098-1.628.94-2.988.29-3.134-1.492l-3.036-38.081z"/><linearGradient id="ag" x1="-10968.04" x2="-10955.926" y1="319.642" y2="319.642" gradientTransform="matrix(-1 0 0 1 -10659.477 0)" gradientUnits="userSpaceOnUse"><stop offset="0" stop-color="#e85467"/><stop offset="1" stop-color="#b01c30"/></linearGradient><path fill="url(#ag)" d="m299.574 298.69 5.847-3.376c1.835-1.059 3.282-.091 3.13 2.103l-2.811 41.456c-.131 1.943-1.482 4.158-3.11 5.098-1.628.94-2.988.29-3.134-1.492l-3.036-38.08c-.158-2.015 1.28-4.65 3.114-5.709z"/><linearGradient id="ah" x1="-10965.876" x2="-10958.39" y1="353.671" y2="353.671" gradientTransform="matrix(-1 0 0 1 -10659.477 0)" gradientUnits="userSpaceOnUse"><stop offset="0" stop-color="#e85467"/><stop offset="1" stop-color="#b01c30"/></linearGradient><path fill="url(#ah)" d="M302.646 349.369c2.063-1.191 3.746-.232 3.752 2.145.007 2.371-1.665 5.265-3.728 6.457-2.069 1.195-3.751.236-3.758-2.135-.006-2.377 1.666-5.272 3.734-6.467z"/><path fill="#DDE4F0" d="m990.429 771.098-.039 16.539c-.029 9.276-6.089 18.522-18.206 25.558-12.197 7.085-28.252 10.628-44.357 10.628-13.124 0-26.278-2.349-37.389-7.046l-.869.503-.01 1.362-10.5 6.108-75.332 43.784v.198l-6.089 3.533c-5.487 3.188-14.447 3.188-19.993-.02-2.802-1.618-4.203-3.74-4.203-5.862l.039-13.391c.01-2.082 1.362-4.154 4.085-5.723l5.911-3.434-.178-.109 3.869-2.24 71.819-41.742v.01l7.055-4.105c-1.184-2.862-1.776-5.783-1.766-8.704l.04-16.539c0 .089 0 .178.01.266-.089-9.365 5.96-18.7 18.197-25.815 24.463-14.22 64.477-14.17 89.226.109 12.809 7.401 19.025 17.19 18.65 26.89.01-.255.03-.502.03-.758z"/><linearGradient id="ai" x1="8750.362" x2="8857.223" y1="765.016" y2="765.016" gradientTransform="translate(-7878.807)" gradientUnits="userSpaceOnUse"><stop offset="0" stop-color="#fff"/><stop offset="1" stop-color="#bde1ff"/></linearGradient><path fill="url(#ai)" d="M887.327 744.007c20.935-11.603 54.767-11.601 75.561 0 20.799 11.604 20.689 30.414-.246 42.018-20.935 11.603-54.762 11.603-75.561 0-20.794-11.601-20.689-30.415.246-42.018z"/><linearGradient id="aj" x1="8750.362" x2="8857.174" y1="753.142" y2="753.142" gradientTransform="translate(-7878.807)" gradientUnits="userSpaceOnUse"><stop offset="0" stop-color="#326ab3"/><stop offset="1" stop-color="#003780"/></linearGradient><path fill="url(#aj)" d="m978.367 760.472-.047 16.546c.023-7.985-5.264-15.993-15.838-22.098-20.968-12.106-54.76-12.151-75.503-.097-10.266 5.966-15.402 13.778-15.424 21.615l.047-16.546c.022-7.837 5.158-15.649 15.424-21.615 20.742-12.054 54.534-12.009 75.503.097 10.574 6.105 15.86 14.113 15.838 22.098z"/><ellipse cx="924.985" cy="766.063" fill="#6D6E71" rx="53.43" ry="28.664" transform="translate(-1.873 2.268)"/><linearGradient id="ak" x1="8740.689" x2="8753.43" y1="779.177" y2="779.177" gradientTransform="translate(-7878.807)" gradientUnits="userSpaceOnUse"><stop offset="0" stop-color="#326ab3"/><stop offset="1" stop-color="#003780"/></linearGradient><path fill="url(#ak)" d="m861.882 776.387.047-16.546c-.022 7.783 4.213 15.587 12.694 22.126l-.047 16.546c-8.481-6.539-12.716-14.343-12.694-22.126z"/><linearGradient id="al" x1="8761.546" x2="8766.898" y1="799.479" y2="799.479" gradientTransform="translate(-7878.807)" gradientUnits="userSpaceOnUse"><stop offset="0" stop-color="#326ab3"/><stop offset="1" stop-color="#003780"/></linearGradient><path fill="url(#al)" d="m888.092 789.664-.047 16.546-5.306 3.083.047-16.546z"/><linearGradient id="am" x1="8766.853" x2="8866.849" y1="786.895" y2="786.895" gradientTransform="translate(-7878.807)" gradientUnits="userSpaceOnUse"><stop offset="0" stop-color="#326ab3"/><stop offset="1" stop-color="#003780"/></linearGradient><path fill="url(#am)" d="m988.042 760.532-.047 16.546c-.026 9.271-6.087 18.514-18.205 25.556-22.131 12.861-56.992 14.038-81.745 3.576l.047-16.546c24.753 10.462 59.614 9.285 81.745-3.576 12.118-7.042 18.179-16.285 18.205-25.556z"/><linearGradient id="an" x1="8755.471" x2="8766.014" y1="804.439" y2="804.439" gradientTransform="translate(-7878.807)" gradientUnits="userSpaceOnUse"><stop offset="0" stop-color="#326ab3"/><stop offset="1" stop-color="#003780"/></linearGradient><path fill="url(#an)" d="m887.207 794.691-.038 13.392-10.505 6.105.038-13.393z"/><linearGradient id="ao" x1="8705.046" x2="8716.389" y1="805.412" y2="856.518" gradientTransform="translate(-7878.807)" gradientUnits="userSpaceOnUse"><stop offset="0" stop-color="#ffca59"/><stop offset="1" stop-color="#ff8f5c"/></linearGradient><path fill="url(#ao)" d="m876.702 800.795-75.681 43.981-20.109-11.609 3.867-2.247 71.814-41.734z"/><linearGradient id="ap" x1="8713.953" x2="8725.92" y1="816.778" y2="857.912" gradientTransform="translate(-7878.807)" gradientUnits="userSpaceOnUse"><stop offset="0" stop-color="#ffca59"/><stop offset="1" stop-color="#ff8f5c"/></linearGradient><path fill="url(#ap)" d="m876.702 800.795-.038 13.393-75.681 43.981.038-13.393z"/><linearGradient id="aq" x1="8665.019" x2="8665.019" y1="841.513" y2="866.193" gradientTransform="translate(-7878.807)" gradientUnits="userSpaceOnUse"><stop offset="0" stop-color="#326ab3"/><stop offset="1" stop-color="#003780"/></linearGradient><path fill="url(#aq)" d="M795.283 848.313c-5.482 3.186-14.442 3.18-19.992-.024-2.805-1.62-4.205-3.744-4.199-5.86l-.038 13.393c-.006 2.117 1.394 4.241 4.2 5.86 5.549 3.204 14.509 3.21 19.991.024l6.086-3.537.038-13.393-6.086 3.537z"/><linearGradient id="ar" x1="8649.898" x2="8680.176" y1="840.808" y2="840.808" gradientTransform="translate(-7878.807)" gradientUnits="userSpaceOnUse"><stop offset="0" stop-color="#326ab3"/><stop offset="1" stop-color="#003780"/></linearGradient><path fill="url(#ar)" d="m785.127 830.92-3.867 2.247 20.109 11.61-6.086 3.537c-5.482 3.186-14.442 3.18-19.992-.024-5.559-3.21-5.599-8.4-.117-11.586l9.953-5.784z"/><linearGradient id="as" x1="8735.404" x2="8866.849" y1="762.229" y2="762.229" gradientTransform="translate(-7878.807)" gradientUnits="userSpaceOnUse"><stop offset="0" stop-color="#326ab3"/><stop offset="1" stop-color="#003780"/></linearGradient><path fill="url(#as)" d="M969.353 734.408c-24.74-14.284-64.758-14.328-89.221-.112-22.292 12.955-24.086 33.346-5.509 47.671l4.314-2.506-4.314 2.507-4.709 2.737-2.817-1.625-10.499 6.108 20.101 11.605 10.509-6.098-3.897-2.252 4.782-2.779c24.753 10.462 59.614 9.285 81.745-3.576 24.462-14.217 24.242-37.404-.485-51.68zM962.93 782.1c-20.729 12.047-54.521 12.002-75.477-.097-20.969-12.106-21.156-31.68-.427-43.726 20.742-12.054 54.534-12.009 75.503.097 20.956 12.098 21.143 31.672.401 43.726z"/><ellipse cx="1150.831" cy="579.115" fill="#DDE1F5" rx="29.123" ry="8.093"/><path fill="#0D3F75" d="M1137.726 565.743c-3.091-13.293-5.141-51.484 1.97-77.087 6.156-22.166.107-35.167.045-35.296l1.314-.634c.262.544 6.362 13.58.045 36.321-7.044 25.368-5.016 63.201-1.953 76.366l-1.421.33z"/><path fill="#0D3F75" d="M1145.056 566.827c-.994-.348-5.854-3.936-3.898-40.493 1.97-36.86-17.195-42.824-17.388-42.879l.405-1.402c.836.242 20.472 6.352 18.439 44.358-1.91 35.727 2.943 39.04 2.993 39.068l-.551 1.348z"/><path fill="#0D3F75" d="M1142.495 564.744c-1.081-4.642.911-14.787 3.02-25.527 1.419-7.228 2.887-14.704 3.182-19.776.301-5.171-.505-11.335-1.286-17.298-1.094-8.359-2.127-16.256-.395-21.833 1.094-3.519 3.65-6.14 7.013-7.193 3.618-1.124 7.693-.307 10.904 2.201l-.897 1.148c-2.835-2.214-6.413-2.95-9.57-1.956-2.942.92-5.093 3.133-6.056 6.233-1.638 5.272-.624 13.015.447 21.21.789 6.03 1.606 12.264 1.296 17.573-.301 5.17-1.778 12.694-3.207 19.972-1.987 10.116-4.041 20.576-3.03 24.914l-1.421.332z"/><path fill="#195494" d="M1100.457 500.05c4.219-1.74 9.128-9.992 13.739-9.798 1.052 5.251-6.727 5.476-9.647 8.593-2.416 3.214 9.055 4.975 14.01 1.685 4.155-2.521 2.383-8.486 6.842-17.413 3.702-7.684 6.478-7.935 6.776-12.531.544-8.408-8.185-16.03-9.112-15.481-.374.222.692 1.661 1.158 5.439.333.309.335 15.19-3.53 10.312-2.708-6.175 4.311-10.772-.412-17.771-3.544-5.247-12.631-5.05-12.824-4.397 4.614 1.055 7.584 12.874 5.611 17.641-1.419 2.762-2.57.447-2.984-2.335-2.575-8.971-3.31-13.877-9.934-17.447-8.12-4.376-14.451 3.368-24.679 5.172 0 0-2.33 12.524 2.744 19.408 4.883 6.625 11.606.299 16.965 1.845 2.386.443 3.008 3.493 1.538 4.984-2.052 3.032-6.872 3.344-10.351 3.53-5.764.306-7.826-.905-8.47.17-1.8 2.789 7.247 10.371 12.108 8.576 6.166.422 12.929-10.048 19.157-7.426.203 4.894-11.995 10.465-17.253 10.87-2.791-.102-4.695-1.338-4.955-.904 1.343 2.703 9.609 8.586 13.503 7.278z"/><path fill="#8DB5E0" d="M1110.81 499.017a8.84 8.84 0 0 0 3.924-1.549c1.129-.796 2.018-1.851 2.698-3.046.744-1.312 1.257-2.731 1.807-4.131a41.203 41.203 0 0 1 2.051-4.434c.351-.646.698-1.308 1.119-1.912.35-.503.809-.985 1.452-1.054.007-.001.009-.007.016-.008.099.056.2.107.297.167.329.195.653.398.97.616.019-.052.042-.097.067-.147a18.338 18.338 0 0 0-1.792-1.065c-.002-.004-.004-.008-.007-.009a3.086 3.086 0 0 1-.551-.716c-.143-.243-.292-.529-.289-.818.007-.43.178-.863.336-1.259.161-.395.332-.79.511-1.178 1.258-2.734 2.892-5.312 3.797-8.199.741-2.373.998-4.988.081-7.352-.037-.095-.183-.029-.145.07.532 1.378.664 2.868.52 4.334-.283 2.868-1.565 5.478-2.865 8.009-.722 1.402-1.459 2.798-2.049 4.261-.216.538-.47 1.169-.26 1.744.115.322.303.639.526.915-1.756-.854-3.632-1.425-5.494-1.997-.085-.028-.175-.054-.26-.081l-.002-.004c-.979-1.039-1.589-2.362-1.907-3.747-.65-2.822-.006-5.651.728-8.388.201-.749.406-1.499.595-2.253.178-.706.355-1.423.432-2.152.127-1.24-.081-2.598-1.005-3.507-.073-.071-.198.03-.123.102 1.163 1.143 1.114 2.882.811 4.368-.604 2.952-1.764 5.811-1.874 8.855-.083 2.337.484 4.845 2.052 6.637-1.744-.539-3.491-1.111-5.117-1.955a17.075 17.075 0 0 1-2.507-1.622c-.005-.005-.005-.012-.014-.019-.009-.004-.017-.01-.029-.014a28.455 28.455 0 0 1-2.051-1.767c-1.095-1.03-2.141-2.11-3.225-3.152-.644-1.445-.911-3.034-1.068-4.598-.284-2.808-.076-5.721-.997-8.43-.821-2.41-2.835-4.73-5.544-4.822-.104-.004-.117.155-.013.159 1.506.05 2.854.855 3.841 1.965 1.909 2.148 2.213 5.127 2.35 7.879.125 2.532.183 5.193 1.144 7.576-.139-.132-.278-.268-.42-.402a26.226 26.226 0 0 0-4.617-3.424c-3.415-1.984-7.176-3.261-10.902-4.515-.096-.035-.151.116-.055.151.456.152.912.305 1.368.46 3.583 1.223 7.187 2.549 10.399 4.585-1.007-.203-2.073.043-3.056.262-1.232.274-2.676.54-3.774-.266-.084-.061-.175.069-.092.13 1.028.756 2.388.617 3.564.366 1.224-.26 2.563-.659 3.787-.207.006.002.008-.004.014-.001l.003.001c1.59 1.057 3.009 2.313 4.372 3.646 1.305 1.277 2.568 2.596 3.956 3.787.133.113.27.224.403.335-1.379-.502-2.964-.254-4.303.306-1.549.647-2.831 1.78-4.084 2.869-1.244 1.082-2.526 2.085-3.959 2.9a20.95 20.95 0 0 1-9.039 2.688c-.103.004-.073.164.028.157a21.032 21.032 0 0 0 9.327-2.843c1.381-.814 2.617-1.8 3.824-2.848 1.258-1.094 2.551-2.219 4.122-2.841 1.45-.574 3.208-.773 4.615.029a18.128 18.128 0 0 0 3.743 2.226c1.847.802 3.792 1.343 5.709 1.942l.488.157c-1.093.172-2.129.668-3.025 1.31-.964.689-1.763 1.582-2.547 2.463-.811.916-1.631 1.818-2.533 2.646a27.01 27.01 0 0 1-5.809 4.076c-.093.048-.024.196.066.147a27.154 27.154 0 0 0 6.024-4.263c.871-.819 1.664-1.704 2.455-2.596.795-.891 1.613-1.787 2.606-2.462.92-.627 1.982-1.096 3.099-1.204.004-.002.002-.006.005-.005 1.429.469 2.834 1.005 4.154 1.717-.557.125-.987.538-1.317.994-.488.665-.871 1.419-1.261 2.143a41.444 41.444 0 0 0-1.998 4.335c-.562 1.429-1.082 2.887-1.86 4.217-.707 1.21-1.633 2.254-2.799 3.03a8.696 8.696 0 0 1-3.649 1.376c-.098.012-.069.168.031.154z"/><path fill="#195494" d="M1192.468 465.742c-4.513.683-11.248 7.527-15.679 6.239.23-5.35 7.839-3.714 11.418-6.044 3.113-2.545-7.607-6.99-13.204-4.977-4.636 1.457-4.338 7.673-10.797 15.278-5.427 6.58-8.183 6.162-9.569 10.553-2.533 8.035 4.127 17.52 5.158 17.208.416-.126-.276-1.777.173-5.558-.25-.379 3.297-14.832 5.887-9.173 1.157 6.642-6.755 9.433-3.837 17.357 2.19 5.941 11.062 7.916 11.406 7.328-4.229-2.125-4.295-14.311-1.242-18.47 2.037-2.344 2.602.179 2.341 2.979.361 9.326-.095 14.266 5.487 19.313 6.842 6.186 14.837.175 25.201.863 0 0 5.249-11.608 1.963-19.502-3.162-7.598-11.2-3.058-16.036-5.837-2.212-.999-2.088-4.109-.305-5.207 2.716-2.455 7.471-1.609 10.894-.96 5.67 1.077 7.385 2.745 8.266 1.855 2.413-2.28-4.565-11.8-9.714-11.216-5.887-1.88-14.952 6.674-20.375 2.643.971-4.801 14.145-7.303 19.347-6.443 2.686.765 4.24 2.419 4.597 2.06-.662-2.947-7.286-10.631-11.38-10.289z"/><path fill="#8DB5E0" d="M1182.167 464.276a8.847 8.847 0 0 0-4.18.568c-1.286.504-2.401 1.316-3.347 2.315-1.035 1.097-1.872 2.353-2.74 3.581a41.293 41.293 0 0 1-3.05 3.817c-.495.544-.99 1.104-1.543 1.59-.46.405-1.02.763-1.661.678-.007-.001-.011.004-.018.004-.082-.079-.169-.152-.249-.233-.273-.267-.54-.542-.795-.829-.03.045-.064.084-.1.126.467.513.964 1.004 1.486 1.462.001.005.002.009.004.011.165.249.28.538.365.826.081.271.157.583.085.863-.109.417-.378.796-.626 1.143-.251.346-.511.688-.777 1.022-1.874 2.356-4.076 4.469-5.643 7.057-1.286 2.128-2.158 4.607-1.832 7.121.013.101.171.072.157-.033-.188-1.464.039-2.944.529-4.332.959-2.718 2.826-4.947 4.692-7.095 1.035-1.189 2.084-2.37 3.007-3.65.339-.471.735-1.023.668-1.632a3.21 3.21 0 0 0-.293-1.014c1.502 1.249 3.188 2.25 4.86 3.25l.233.141.001.004c.703 1.242.98 2.673.958 4.094-.041 2.896-1.341 5.489-2.707 7.973-.374.679-.752 1.359-1.115 2.046-.342.643-.683 1.297-.933 1.987-.419 1.174-.541 2.542.139 3.646.054.086.2.018.143-.07-.857-1.387-.394-3.064.254-4.435 1.291-2.723 3.099-5.223 3.931-8.153.638-2.249.686-4.821-.41-6.935 1.566.94 3.125 1.911 4.503 3.119a16.879 16.879 0 0 1 2.047 2.173c.004.006.003.013.009.022.008.005.014.013.025.021a28.77 28.77 0 0 1 1.571 2.205c.818 1.261 1.576 2.56 2.38 3.83.281 1.557.162 3.163-.059 4.72-.394 2.795-1.29 5.574-1.043 8.424.223 2.537 1.625 5.269 4.234 6.005.1.029.151-.122.051-.151-1.451-.408-2.568-1.511-3.262-2.824-1.342-2.542-.926-5.507-.403-8.212.482-2.489 1.061-5.087.696-7.63.104.162.206.327.312.49a26.285 26.285 0 0 0 3.667 4.426c2.844 2.741 6.192 4.878 9.511 6.985.085.057.174-.076.089-.133-.407-.257-.813-.514-1.218-.773-3.188-2.042-6.372-4.189-9.005-6.932.93.438 2.023.452 3.03.475 1.262.027 2.728.114 3.602 1.158.067.079.187-.025.12-.105-.818-.98-2.172-1.169-3.373-1.206-1.251-.039-2.647.029-3.727-.702-.005-.004-.009.002-.014-.002l-.003-.002c-1.292-1.405-2.37-2.964-3.377-4.583-.963-1.551-1.875-3.134-2.938-4.621-.102-.141-.208-.282-.312-.421 1.22.817 2.818.953 4.252.729 1.658-.259 3.174-1.053 4.65-1.812 1.466-.755 2.951-1.423 4.536-1.873a20.974 20.974 0 0 1 9.419-.455c.101.022.11-.142.01-.159a21.072 21.072 0 0 0-9.736.537c-1.536.461-2.97 1.124-4.393 1.854-1.482.762-3.006 1.547-4.68 1.777-1.545.211-3.3-.014-4.474-1.129a18.09 18.09 0 0 0-3.104-3.054c-1.602-1.219-3.362-2.209-5.081-3.248l-.437-.269c1.102.094 2.227-.141 3.25-.551 1.1-.44 2.089-1.116 3.061-1.784 1.006-.696 2.017-1.377 3.09-1.966a27.087 27.087 0 0 1 6.613-2.573c.102-.025.07-.185-.029-.158a27.273 27.273 0 0 0-6.867 2.704c-1.041.587-2.022 1.257-3.004 1.935-.984.676-1.992 1.351-3.117 1.77-1.043.389-2.186.592-3.297.431-.005.001-.004.005-.007.003-1.276-.796-2.512-1.651-3.624-2.658.571.012 1.087-.287 1.516-.651.632-.53 1.185-1.17 1.736-1.781a41.591 41.591 0 0 0 2.974-3.733c.886-1.254 1.739-2.546 2.812-3.653.974-1.006 2.123-1.799 3.44-2.275a8.674 8.674 0 0 1 3.872-.466c.104.007.114-.152.013-.162z"/><path fill="#4E88C7" d="M1112.262 445.863c4.024 2.153 13.516.701 16.295 4.384-3.386 4.149-8.503-1.715-12.765-1.991-4.017.177 1.911 10.153 7.6 11.889 4.587 1.607 8.067-3.551 17.793-5.779 8.286-2.024 10.244-.04 13.982-2.728 6.839-4.922 7.179-16.506 6.166-16.872-.409-.148-.843 1.589-3.465 4.349-.027.453-11.518 9.909-10.206 3.826 3.048-6.014 11.057-3.515 13.462-11.609 1.8-6.07-4.126-12.962-4.753-12.696 2.116 4.234-5.123 14.036-10.058 15.541-3.034.659-1.978-1.701-.092-3.788 5.292-7.688 8.614-11.372 7.162-18.756-1.78-9.051-11.782-9.02-19.673-15.773 0 0-11.152 6.158-13.244 14.45-2.013 7.98 7.143 9.152 9.354 14.273 1.174 2.123-.786 4.542-2.872 4.355-3.645.342-6.949-3.183-9.303-5.751-3.898-4.256-4.273-6.618-5.513-6.433-3.297.383-3.404 12.185 1.07 14.798 3.592 5.03 15.973 3.601 17.906 10.076-3.651 3.266-15.703-2.614-19.355-6.417-1.694-2.221-1.949-4.476-2.45-4.401-1.234 2.756-.526 12.877 2.959 15.053z"/><path fill="#DAF2EE" d="M1119.637 453.202a8.835 8.835 0 0 0 3.689 2.046c1.332.366 2.711.382 4.066.149 1.486-.259 2.908-.764 4.339-1.228 1.55-.5 3.128-.921 4.727-1.233.722-.14 1.454-.292 2.188-.351.611-.049 1.274-.001 1.736.451.005.005.011.003.017.008.019.112.044.222.061.336.058.377.107.757.141 1.14.051-.018.102-.029.155-.041a18.396 18.396 0 0 0-.316-2.06c.002-.004.004-.008.003-.011a3.06 3.06 0 0 1 .203-.88c.097-.265.223-.561.448-.743.337-.268.779-.411 1.186-.541.407-.127.821-.245 1.234-.354 2.911-.766 5.94-1.141 8.744-2.277 2.304-.935 4.486-2.399 5.729-4.608.05-.089-.094-.16-.146-.068-.726 1.286-1.793 2.336-3.016 3.155-2.395 1.603-5.224 2.272-8.006 2.876-1.541.333-3.087.651-4.592 1.125-.554.175-1.202.38-1.512.907a3.18 3.18 0 0 0-.372.988c-.456-1.899-1.207-3.71-1.949-5.512-.033-.084-.07-.169-.103-.253l.002-.004c.18-1.416.815-2.728 1.682-3.853 1.766-2.295 4.36-3.595 6.941-4.767.706-.321 1.416-.639 2.117-.972.659-.311 1.324-.63 1.936-1.034 1.038-.689 1.955-1.713 2.07-3.004.008-.102-.149-.134-.157-.03-.144 1.625-1.518 2.691-2.858 3.401-2.664 1.409-5.609 2.329-8.028 4.179-1.858 1.42-3.435 3.452-3.823 5.802-.692-1.69-1.36-3.402-1.741-5.194a16.976 16.976 0 0 1-.34-2.966c.001-.007.006-.012.006-.022l-.008-.031c-.026-.902.002-1.805.062-2.707.099-1.5.269-2.994.385-4.493.707-1.415 1.764-2.631 2.873-3.746 1.988-2.004 4.369-3.693 5.876-6.125 1.34-2.165 1.852-5.194.202-7.345-.063-.083-.194.008-.131.091.918 1.195 1.153 2.747.923 4.215-.446 2.839-2.554 4.966-4.591 6.82-1.876 1.706-3.894 3.441-5.124 5.697.014-.192.031-.385.044-.58a26.267 26.267 0 0 0-.289-5.741c-.638-3.898-2.041-7.613-3.439-11.287-.034-.096-.185-.043-.151.053.172.449.344.898.513 1.348 1.332 3.544 2.598 7.169 3.066 10.943-.483-.907-1.35-1.573-2.144-2.194-.995-.777-2.118-1.724-2.193-3.084-.006-.103-.165-.092-.159.012.069 1.274 1.041 2.236 1.981 2.985.979.779 2.138 1.56 2.566 2.792.002.006.008.004.01.01l.001.003c.194 1.899.125 3.793-.037 5.692-.157 1.819-.373 3.633-.411 5.461-.003.174-.002.351-.002.524-.488-1.384-1.687-2.45-2.97-3.129-1.483-.785-3.173-1.056-4.81-1.331-1.626-.273-3.215-.626-4.755-1.214a20.97 20.97 0 0 1-7.819-5.272c-.068-.078-.173.047-.103.121a21.053 21.053 0 0 0 8.121 5.396c1.505.549 3.052.877 4.628 1.143 1.644.276 3.335.56 4.813 1.377 1.365.756 2.635 1.986 2.909 3.582.052 1.457.26 2.892.66 4.304.554 1.936 1.372 3.782 2.127 5.643l.189.477c-.827-.734-1.868-1.22-2.934-1.503-1.145-.306-2.342-.356-3.521-.403-1.222-.044-2.44-.104-3.652-.274a27.085 27.085 0 0 1-6.838-1.896c-.096-.041-.167.106-.072.144a27.325 27.325 0 0 0 7.12 1.943c1.186.153 2.372.203 3.565.248 1.193.048 2.404.11 3.557.448 1.069.313 2.106.834 2.899 1.628.004.002.006-.002.007.001.546 1.401 1.025 2.827 1.313 4.298-.45-.351-1.042-.421-1.605-.386-.823.046-1.649.229-2.456.388a41.27 41.27 0 0 0-4.616 1.211c-1.461.474-2.917.999-4.438 1.243-1.383.223-2.778.171-4.118-.237a8.671 8.671 0 0 1-3.381-1.944c-.075-.066-.179.055-.104.124z"/><path fill="#D94559" d="M1158.551 552.982a44.452 44.452 0 0 1-.285 2.213 44.05 44.05 0 0 0-.095.664c-.016.19-.047.363-.079.553-.031.237-.063.49-.11.759-.285 1.96-.648 4.363-1.012 6.86l-.38 2.466a57.95 57.95 0 0 0-.252 1.691 517.198 517.198 0 0 0-.949 6.513c-.095.711-.174 1.359-.253 1.897-.032.237-.063.458-.079.648a17.89 17.89 0 0 1-.048.474c0 .048 0 .49-.063.648-.427 1.154-2.339 2.182-5.121 2.893-2.356.569-5.343.933-8.583.933-3.652 0-6.955-.443-9.405-1.17-2.466-.727-4.078-1.739-4.332-2.861v-.016a4.665 4.665 0 0 1-.032-.363c-.395-3.636-2.513-15.649-3.477-21.624-.221-1.391-.38-2.45-.443-3.004 0-.063-.016-.126-.016-.174h35.014z"/><path fill="#C43348" d="M1158.551 552.982a44.452 44.452 0 0 1-.285 2.213 44.05 44.05 0 0 0-.095.664c-.016.19-.047.363-.079.553-.031.237-.063.49-.11.759-.285 1.96-.648 4.363-1.012 6.86l-.38 2.466c-.079.569-.174 1.122-.252 1.691a517.198 517.198 0 0 0-.949 6.513c-.11.711-.19 1.359-.253 1.897-.032.237-.063.458-.079.648-.048.364-.079.68-.095.917 0 .079-.016.142-.016.205-.427 1.154-2.339 2.182-5.121 2.893.585-2.45.996-5.943.996-7.334.048-9.611-6.813-17.767-16.424-17.767h-10.575c-.127-1.47-.221-2.513-.269-3.004 0-.063-.016-.126-.016-.174h35.014z"/><path fill="#D94559" d="M1157.872 552.978h-33.641c-2.257 0-4.087-1.484-4.087-3.316 0-1.831 1.83-3.315 4.087-3.315h33.641c2.258 0 4.088 1.484 4.088 3.315 0 1.832-1.83 3.316-4.088 3.316z"/><linearGradient id="at" x1="1034.555" x2="1049.845" y1="175.7" y2="185.744" gradientUnits="userSpaceOnUse"><stop offset="0" stop-color="#ff9666"/><stop offset="1" stop-color="#c42d40"/></linearGradient><path fill="url(#at)" d="M1048.058 178.221c.384.62.507 1.368.327 2.104a2.742 2.742 0 0 1-1.913 2l-9.272 2.704a2.74 2.74 0 0 1-2.688-.657 2.743 2.743 0 0 1-.775-2.657l2.294-9.382a2.74 2.74 0 0 1 1.913-2 2.74 2.74 0 0 1 2.688.658l6.978 6.677c.175.169.325.354.448.553zm-12.135 4.455a.619.619 0 0 0 .097.12c.073.07.276.225.569.139l9.272-2.704a.577.577 0 0 0 .405-.423.575.575 0 0 0-.164-.562l-6.978-6.678a.574.574 0 0 0-.569-.139.575.575 0 0 0-.405.423l-2.294 9.382a.556.556 0 0 0 .067.442z"/><linearGradient id="au" x1="171.792" x2="187.082" y1="513.303" y2="523.346" gradientUnits="userSpaceOnUse"><stop offset="0" stop-color="#ff9666"/><stop offset="1" stop-color="#c42d40"/></linearGradient><path fill="url(#au)" d="M185.294 515.823c.384.62.507 1.368.327 2.104a2.742 2.742 0 0 1-1.913 2l-9.272 2.704a2.74 2.74 0 0 1-2.688-.657 2.743 2.743 0 0 1-.775-2.657l2.294-9.382a2.74 2.74 0 0 1 1.913-2 2.74 2.74 0 0 1 2.688.658l6.978 6.677c.176.17.326.355.448.553zm-12.135 4.456a.619.619 0 0 0 .097.12c.073.07.276.225.569.139l9.272-2.704a.577.577 0 0 0 .405-.423.575.575 0 0 0-.164-.562l-6.978-6.678a.574.574 0 0 0-.569-.139.575.575 0 0 0-.405.423l-2.294 9.382a.565.565 0 0 0 .067.442z"/><linearGradient id="av" x1="1159.989" x2="1172.682" y1="344.333" y2="355.942" gradientUnits="userSpaceOnUse"><stop offset="0" stop-color="#ffca59"/><stop offset="1" stop-color="#ff8f5c"/></linearGradient><path fill="url(#av)" d="m1167.736 348.861 3.411-3.411a1.982 1.982 0 0 0-2.803-2.803l-3.411 3.411-3.411-3.411a1.982 1.982 0 0 0-2.803 2.803l3.411 3.411-3.404 3.405a1.982 1.982 0 1 0 2.804 2.803l3.405-3.405 3.405 3.405a1.978 1.978 0 0 0 2.804 0 1.98 1.98 0 0 0 0-2.803l-3.408-3.405z"/><linearGradient id="aw" x1="358.148" x2="370.841" y1="231.329" y2="242.938" gradientUnits="userSpaceOnUse"><stop offset="0" stop-color="#ffca59"/><stop offset="1" stop-color="#ff8f5c"/></linearGradient><path fill="url(#aw)" d="m365.895 235.856 3.411-3.411a1.983 1.983 0 0 0-2.803-2.804l-3.411 3.411-3.411-3.411a1.982 1.982 0 1 0-2.803 2.804l3.411 3.411-3.404 3.404a1.981 1.981 0 0 0 1.402 3.385c.508 0 1.015-.194 1.402-.581l3.405-3.405 3.405 3.405a1.978 1.978 0 0 0 2.804 0 1.983 1.983 0 0 0 0-2.804l-3.408-3.404z"/><linearGradient id="ax" x1="809.762" x2="825.342" y1="275.822" y2="275.822" gradientUnits="userSpaceOnUse"><stop offset="0" stop-color="#326ab3"/><stop offset="1" stop-color="#003780"/></linearGradient><path fill="url(#ax)" d="M817.552 283.612c-4.295 0-7.79-3.495-7.79-7.79s3.495-7.79 7.79-7.79 7.79 3.495 7.79 7.79c0 4.296-3.495 7.79-7.79 7.79zm0-13.142a5.358 5.358 0 0 0-5.352 5.352 5.358 5.358 0 0 0 5.352 5.352 5.358 5.358 0 0 0 5.352-5.352 5.358 5.358 0 0 0-5.352-5.352z"/></svg>