<svg xmlns="http://www.w3.org/2000/svg" viewBox="0 0 1364 960"><path fill="#3A67B3" d="M1269.733 735.87c-2.945 1.922-7.727 4.465-16.73 5.914-5.528.87-13.182 2.121-22.806.096-.416-.088-1.149-.236-2.093-.492a.987.987 0 0 1-.145-.034c-.086-.014-.177-.037-.271-.053-.32-.079-.659-.172-1.023-.242-7.059-1.938-21.605-7.146-26.382-19.305-.286-.695-3.692-9.564.049-12.911 4.719-4.137 17.22 3.209 18.692.772.738-1.238-2.16-3.375-4.578-6.981-5.509-8.051-7.411-21.412-1.024-27.222 2.997-2.78 7.988-3.936 12.299-2.529 7.031 2.209 8.475 12.881 9.344 12.664 1.244-.367-7.393-19.43.43-28.425 2.76-3.143 7.781-5.307 11.169-3.932 4.963 2.024 4.264 10.905 6.82 11.112 2.709.22 3.03-9.637 11.224-16.882 2.092-1.823 6.989-6.137 12.62-5.053 4.888.89 8.895 5.366 9.62 10.099.645 4.375-1.668 7.848-2.333 8.781-4.21 6.133-10.29 4.727-20.057 12.025-3.415 2.534-6.831 5.804-6.171 7.084.549.911 2.912-.148 6.64.725.079.011.197.028.352.082 1.134.281 5.166 1.301 7.171 4.623.104.127 2.201 3.778.609 6.511-.796 1.425-2.27 2.001-2.903 2.275-6.36 2.637-13.442 7.833-13.04 8.882.426 1.216 10.642-3.133 13.373.194 2.265 2.767-1.904 9.254-2.444 10.09-4.535 6.945-12.167 9.791-11.869 10.333.272.451 5.674-3.299 12.338-2.523 3.104.341 8.125 1.823 8.836 4.849.918 3.712-5.155 7.773-7.717 9.473z"/><path fill="#FFF" d="M1258.631 714.363c-.986-1.162-2.68-.953-3.959-.463-1.614.618-3.039 1.648-4.318 2.794-2.69 2.412-4.845 5.515-8.05 7.306-1.62.905-3.45 1.429-5.31 1.206 1.816-5.39 2.99-10.999 4.079-16.573.408-2.086.809-4.18 1.235-6.271 3.938-4.151 10.395-3.802 14.842-7.183 1.183-.9 2.144-2.039 2.722-3.415.097-.232-.271-.359-.368-.129-1.108 2.635-3.662 4.182-6.209 5.208-2.521 1.015-5.209 1.565-7.674 2.728-1.16.547-2.24 1.244-3.172 2.122 1.164-5.642 2.535-11.248 4.775-16.568 2.714-6.441 6.714-12.54 12.43-16.692a28.011 28.011 0 0 1 2.218-1.448c.211-.133.044-.481-.173-.358-5.881 3.491-10.238 8.977-13.292 15.019a50.835 50.835 0 0 0-1.442 3.133.183.183 0 0 0-.07-.12c-2.791-2.049-2.61-5.852-2.152-8.902.25-1.668.574-3.339.546-5.033-.022-1.407-.246-2.92-1.253-3.98-.173-.181-.47.071-.297.253 1.177 1.238 1.232 3.155 1.136 4.763-.105 1.75-.489 3.467-.687 5.207-.326 2.859-.023 6.17 2.486 8.013.081.06.158.034.217-.016-2.509 5.964-3.968 12.32-5.229 18.658-.7 3.513-1.359 7.043-2.116 10.547-4.055-1.309-7.584-4.336-9.592-8.082-1.097-2.046-1.575-4.219-1.751-6.521-.19-2.499-.151-5.056-.924-7.469-.763-2.381-2.446-4.611-4.983-5.216-.241-.057-.373.31-.129.368 2.555.609 4.167 2.91 4.849 5.321.699 2.472.616 5.063.848 7.6.201 2.195.742 4.272 1.806 6.211.989 1.803 2.313 3.411 3.855 4.768 1.725 1.517 3.745 2.708 5.937 3.408-.932 4.265-2.023 8.488-3.558 12.585-1.062 2.841-2.356 5.627-3.913 8.244-2.227-5.905-8.968-8.016-13-12.379-1.18-1.277-2.126-2.755-2.588-4.442-.066-.24-.449-.168-.383.075 1.697 6.201 8.518 8.52 12.722 12.65 1.271 1.248 2.328 2.688 2.941 4.37.018.05.053.074.088.09-1.198 1.969-2.545 3.841-4.082 5.548.093.016.184.04.271.053a.987.987 0 0 0 .145.034c2.612-2.931 4.724-6.325 6.407-9.911.9-1.922 1.672-3.89 2.359-5.888 3.133.42 6.056-1.201 8.329-3.212 2.638-2.335 4.734-5.305 7.762-7.184 1.397-.866 4.02-2.173 5.374-.577.161.195.457-.058.295-.25z"/><path fill="#5E8BD6" d="M1170.823 737.581c1.92 1.253 5.038 2.911 10.908 3.856 3.604.567 8.594 1.383 14.87.063.271-.057.749-.154 1.364-.321a.597.597 0 0 0 .095-.022c.056-.009.115-.024.176-.035.208-.051.43-.112.667-.158 4.603-1.264 14.087-4.659 17.201-12.587.187-.453 2.407-6.236-.032-8.418-3.077-2.697-11.228 2.092-12.187.503-.481-.807 1.408-2.201 2.985-4.552 3.592-5.249 4.832-13.96.668-17.749-1.954-1.812-5.208-2.566-8.019-1.649-4.584 1.44-5.526 8.398-6.093 8.257-.811-.239 4.82-12.668-.28-18.533-1.799-2.05-5.073-3.46-7.282-2.564-3.236 1.32-2.78 7.11-4.446 7.245-1.766.143-1.975-6.283-7.318-11.007-1.364-1.189-4.557-4.001-8.228-3.295-3.187.581-5.799 3.498-6.272 6.585-.421 2.852 1.088 5.117 1.521 5.725 2.745 3.999 6.709 3.082 13.077 7.841 2.227 1.652 4.454 3.784 4.023 4.619-.358.594-1.898-.096-4.329.473a1.118 1.118 0 0 0-.229.053c-.739.183-3.368.849-4.676 3.014-.068.083-1.435 2.463-.397 4.245.519.929 1.48 1.305 1.893 1.484 4.147 1.719 8.764 5.107 8.502 5.791-.278.793-6.938-2.042-8.719.126-1.477 1.804 1.241 6.034 1.594 6.578 2.957 4.528 7.933 6.384 7.739 6.737-.177.294-3.7-2.151-8.045-1.645-2.024.222-5.297 1.189-5.761 3.161-.6 2.423 3.36 5.071 5.03 6.179z"/><path fill="#FFF" d="M1178.062 723.559c.643-.758 1.747-.621 2.582-.302 1.052.403 1.981 1.074 2.815 1.822 1.754 1.573 3.159 3.596 5.248 4.764 1.056.59 2.25.932 3.462.786-1.184-3.514-1.949-7.171-2.659-10.806-.266-1.36-.528-2.726-.805-4.089-2.567-2.706-6.778-2.479-9.677-4.683-.771-.587-1.398-1.33-1.775-2.226-.063-.151.177-.234.24-.084.723 1.718 2.388 2.727 4.048 3.395 1.644.662 3.396 1.02 5.003 1.779a7.937 7.937 0 0 1 2.068 1.383c-.759-3.679-1.653-7.334-3.113-10.802-1.77-4.2-4.378-8.176-8.105-10.883a18.28 18.28 0 0 0-1.446-.944c-.138-.086-.029-.313.113-.233 3.835 2.276 6.675 5.853 8.666 9.792.34.671.648 1.354.94 2.043a.12.12 0 0 1 .046-.078c1.819-1.336 1.702-3.816 1.403-5.804-.163-1.087-.374-2.177-.356-3.281.015-.917.16-1.904.817-2.595.113-.118.307.046.194.165-.768.807-.803 2.057-.741 3.105.068 1.141.319 2.261.448 3.395.213 1.864.015 4.023-1.621 5.224-.053.039-.103.022-.141-.01 1.636 3.889 2.587 8.033 3.41 12.165.456 2.29.886 4.592 1.38 6.877 2.644-.853 4.945-2.827 6.254-5.269.716-1.334 1.027-2.751 1.141-4.252.124-1.629.099-3.297.603-4.87.497-1.553 1.595-3.007 3.249-3.401.157-.037.243.202.084.24-1.666.397-2.717 1.897-3.161 3.469-.456 1.612-.401 3.301-.553 4.955-.131 1.431-.484 2.785-1.178 4.05a11.575 11.575 0 0 1-2.514 3.108c-1.125.989-2.441 1.766-3.871 2.222.608 2.781 1.319 5.534 2.32 8.206a33.32 33.32 0 0 0 2.551 5.375c1.452-3.85 5.847-5.226 8.476-8.071.769-.832 1.386-1.796 1.687-2.896.043-.157.293-.11.25.049-1.106 4.043-5.554 5.555-8.295 8.248-.828.814-1.518 1.753-1.918 2.849a.1.1 0 0 1-.057.059 24.113 24.113 0 0 0 2.661 3.617c-.061.011-.12.026-.176.035a.597.597 0 0 1-.095.022c-1.703-1.911-3.08-4.124-4.177-6.462a38.647 38.647 0 0 1-1.538-3.839c-2.043.274-3.948-.783-5.43-2.094-1.72-1.523-3.086-3.459-5.061-4.684-.911-.565-2.621-1.417-3.504-.376-.105.125-.298-.04-.192-.165z"/><path fill="#3A67B3" d="M117.65 735.87c2.945 1.922 7.727 4.465 16.731 5.914 5.528.87 13.182 2.121 22.806.096.416-.088 1.149-.236 2.093-.492a.987.987 0 0 0 .145-.034c.086-.014.177-.037.271-.053.32-.079.659-.172 1.023-.242 7.059-1.938 21.605-7.146 26.382-19.305.286-.695 3.692-9.564-.049-12.911-4.719-4.137-17.22 3.209-18.692.772-.738-1.238 2.16-3.375 4.578-6.981 5.509-8.051 7.411-21.412 1.024-27.222-2.997-2.78-7.988-3.936-12.299-2.529-7.031 2.209-8.475 12.881-9.344 12.664-1.244-.367 7.393-19.43-.43-28.425-2.76-3.143-7.781-5.307-11.169-3.932-4.963 2.024-4.264 10.905-6.82 11.112-2.709.22-3.03-9.637-11.224-16.882-2.092-1.823-6.989-6.137-12.619-5.053-4.888.89-8.895 5.366-9.621 10.099-.645 4.375 1.668 7.848 2.333 8.781 4.21 6.133 10.29 4.727 20.057 12.025 3.415 2.534 6.831 5.804 6.171 7.084-.549.911-2.912-.148-6.64.725a1.719 1.719 0 0 0-.352.082c-1.134.281-5.166 1.301-7.171 4.623-.104.127-2.201 3.778-.609 6.511.796 1.425 2.27 2.001 2.903 2.275 6.36 2.637 13.442 7.833 13.04 8.882-.426 1.216-10.642-3.133-13.372.194-2.265 2.767 1.904 9.254 2.444 10.09 4.535 6.945 12.167 9.791 11.869 10.333-.272.451-5.674-3.299-12.338-2.523-3.104.341-8.125 1.823-8.836 4.849-.92 3.712 5.153 7.773 7.715 9.473z"/><path fill="#FFF" d="M128.752 714.363c.986-1.162 2.68-.953 3.96-.463 1.614.618 3.039 1.648 4.318 2.794 2.69 2.412 4.845 5.515 8.05 7.306 1.62.905 3.45 1.429 5.31 1.206-1.816-5.39-2.99-10.999-4.079-16.573-.408-2.086-.809-4.18-1.235-6.271-3.938-4.151-10.395-3.802-14.842-7.183-1.183-.9-2.144-2.039-2.722-3.415-.097-.232.271-.359.368-.129 1.108 2.635 3.663 4.182 6.209 5.208 2.521 1.015 5.209 1.565 7.674 2.728 1.16.547 2.24 1.244 3.172 2.122-1.164-5.642-2.535-11.248-4.775-16.568-2.714-6.441-6.714-12.54-12.431-16.692a28.178 28.178 0 0 0-2.217-1.448c-.211-.133-.044-.481.173-.358 5.881 3.491 10.238 8.977 13.292 15.019a50.835 50.835 0 0 1 1.442 3.133.183.183 0 0 1 .07-.12c2.791-2.049 2.61-5.852 2.152-8.902-.25-1.668-.574-3.339-.546-5.033.022-1.407.246-2.92 1.253-3.98.173-.181.47.071.297.253-1.177 1.238-1.232 3.155-1.136 4.763.105 1.75.489 3.467.687 5.207.326 2.859.023 6.17-2.486 8.013-.081.06-.158.034-.217-.016 2.509 5.964 3.968 12.32 5.229 18.658.7 3.513 1.359 7.043 2.116 10.547 4.055-1.309 7.584-4.336 9.592-8.082 1.097-2.046 1.576-4.219 1.751-6.521.19-2.499.152-5.056.924-7.469.763-2.381 2.446-4.611 4.983-5.216.242-.057.373.31.129.368-2.555.609-4.167 2.91-4.849 5.321-.699 2.472-.616 5.063-.848 7.6-.201 2.195-.742 4.272-1.806 6.211-.989 1.803-2.312 3.411-3.855 4.768-1.725 1.517-3.744 2.708-5.937 3.408.932 4.265 2.023 8.488 3.558 12.585 1.062 2.841 2.356 5.627 3.913 8.244 2.227-5.905 8.968-8.016 12.999-12.379 1.18-1.277 2.126-2.755 2.588-4.442.065-.24.449-.168.383.075-1.697 6.201-8.518 8.52-12.722 12.65-1.27 1.248-2.328 2.688-2.941 4.37a.153.153 0 0 1-.088.09c1.198 1.969 2.545 3.841 4.082 5.548-.093.016-.184.04-.271.053a.987.987 0 0 1-.145.034c-2.612-2.931-4.724-6.325-6.407-9.911a59.387 59.387 0 0 1-2.359-5.888c-3.133.42-6.056-1.201-8.329-3.212-2.638-2.335-4.734-5.305-7.762-7.184-1.397-.866-4.02-2.173-5.374-.577-.161.195-.457-.058-.295-.25z"/><path fill="#5E8BD6" d="M216.56 737.581c-1.92 1.253-5.038 2.911-10.908 3.856-3.604.567-8.594 1.383-14.87.063-.271-.057-.749-.154-1.364-.321a.597.597 0 0 1-.095-.022c-.056-.009-.116-.024-.176-.035-.208-.051-.43-.112-.667-.158-4.603-1.264-14.087-4.659-17.201-12.587-.187-.453-2.407-6.236.032-8.418 3.077-2.697 11.228 2.092 12.187.503.481-.807-1.408-2.201-2.985-4.552-3.592-5.249-4.832-13.96-.668-17.749 1.954-1.812 5.208-2.566 8.019-1.649 4.584 1.44 5.526 8.398 6.093 8.257.811-.239-4.82-12.668.28-18.533 1.799-2.05 5.073-3.46 7.282-2.564 3.236 1.32 2.78 7.11 4.446 7.245 1.766.143 1.975-6.283 7.318-11.007 1.364-1.189 4.557-4.001 8.228-3.295 3.187.581 5.799 3.498 6.273 6.585.421 2.852-1.088 5.117-1.521 5.725-2.745 3.999-6.709 3.082-13.077 7.841-2.227 1.652-4.454 3.784-4.023 4.619.358.594 1.898-.096 4.329.473.051.007.128.018.229.053.739.183 3.368.849 4.675 3.014.068.083 1.435 2.463.397 4.245-.519.929-1.48 1.305-1.893 1.484-4.147 1.719-8.764 5.107-8.502 5.791.278.793 6.939-2.042 8.719.126 1.477 1.804-1.241 6.034-1.594 6.578-2.957 4.528-7.933 6.384-7.738 6.737.177.294 3.7-2.151 8.045-1.645 2.024.222 5.297 1.189 5.761 3.161.599 2.423-3.361 5.071-5.031 6.179z"/><path fill="#FFF" d="M209.321 723.559c-.643-.758-1.747-.621-2.582-.302-1.052.403-1.981 1.074-2.815 1.822-1.754 1.573-3.159 3.596-5.248 4.764-1.056.59-2.25.932-3.462.786 1.184-3.514 1.949-7.171 2.659-10.806.266-1.36.528-2.726.805-4.089 2.567-2.706 6.778-2.479 9.677-4.683.771-.587 1.398-1.33 1.775-2.226.063-.151-.177-.234-.24-.084-.723 1.718-2.388 2.727-4.048 3.395-1.644.662-3.396 1.02-5.003 1.779a7.937 7.937 0 0 0-2.068 1.383c.759-3.679 1.653-7.334 3.113-10.802 1.77-4.2 4.378-8.176 8.105-10.883.468-.338.951-.654 1.446-.944.138-.086.029-.313-.113-.233-3.835 2.276-6.675 5.853-8.666 9.792-.34.671-.648 1.354-.94 2.043a.12.12 0 0 0-.046-.078c-1.819-1.336-1.702-3.816-1.403-5.804.163-1.087.374-2.177.356-3.281-.015-.917-.16-1.904-.817-2.595-.113-.118-.307.046-.194.165.768.807.803 2.057.741 3.105-.068 1.141-.319 2.261-.448 3.395-.213 1.864-.015 4.023 1.621 5.224.053.039.103.022.141-.01-1.636 3.889-2.587 8.033-3.41 12.165-.456 2.29-.886 4.592-1.38 6.877-2.644-.853-4.945-2.827-6.254-5.269-.716-1.334-1.027-2.751-1.141-4.252-.124-1.629-.099-3.297-.603-4.87-.497-1.553-1.595-3.007-3.249-3.401-.157-.037-.243.202-.084.24 1.666.397 2.717 1.897 3.161 3.469.456 1.612.401 3.301.553 4.955.131 1.431.484 2.785 1.178 4.05a11.575 11.575 0 0 0 2.514 3.108c1.125.989 2.441 1.766 3.871 2.222-.608 2.781-1.319 5.534-2.32 8.206a33.32 33.32 0 0 1-2.551 5.375c-1.452-3.85-5.847-5.226-8.476-8.071-.769-.832-1.386-1.796-1.687-2.896-.043-.157-.293-.11-.25.049 1.106 4.043 5.554 5.555 8.295 8.248.828.814 1.518 1.753 1.918 2.849a.1.1 0 0 0 .057.059 24.113 24.113 0 0 1-2.661 3.617c.061.011.12.026.176.035.029.01.064.017.095.022 1.703-1.911 3.08-4.124 4.177-6.462a38.647 38.647 0 0 0 1.538-3.839c2.043.274 3.948-.783 5.43-2.094 1.72-1.523 3.086-3.459 5.061-4.684.911-.565 2.621-1.417 3.504-.376.105.125.298-.04.192-.165z"/><path fill="#DFE2F7" d="M781.047 742.972h-2.844c-.586 0-1.061-.618-1.061-1.38s.475-1.38 1.061-1.38h2.844c.586 0 1.061.618 1.061 1.38s-.475 1.38-1.061 1.38z"/><path fill="#DFE2F7" d="M778.203 742.42a.516.516 0 0 1-.237-.059l-82.974-43.245-69.186-36.055c-.232-.121-.387-.406-.399-.73-.012-.324.123-.627.345-.775l1.337-.894 67.849-45.325 51.245-34.238-86.686-79.4a.907.907 0 0 1-.268-.616.99.99 0 0 1 .173-.631l53.546-79.65c-1.653-2.778-9.48-15.937-18.222-30.65l-8.872-14.927c-.215-.362-.164-.882.115-1.161.278-.278.678-.212.893.149l8.872 14.927c9.853 16.582 18.543 31.187 18.543 31.187.186.313.176.753-.024 1.051l-53.442 79.496 86.967 79.658c.182.167.284.446.269.734-.016.289-.146.546-.344.678l-52.18 34.863-67.945 45.39 67.891 35.38 82.974 43.245c.326.17.485.652.354 1.077-.103.325-.342.521-.594.521z"/><path fill="#DFE2F7" d="M612.255 742.42c-.253 0-.491-.196-.591-.519-.131-.425.028-.906.354-1.077l82.974-43.245 67.891-35.38-.097-.065-67.849-45.325-52.18-34.863c-.198-.133-.329-.39-.344-.678-.015-.289.086-.567.269-.734l86.964-79.658-53.443-79.496a.987.987 0 0 1-.157-.545c0-.186.048-.372.137-.518.237-.391 8.819-14.817 18.543-31.176 2.921-4.911 5.943-9.999 8.872-14.932.215-.363.615-.429.893-.15s.33.799.115 1.161a49185.395 49185.395 0 0 1-27.099 45.581l53.564 79.677c.119.177.174.411.153.643s-.118.443-.265.578l-86.682 79.4 51.245 34.238 69.186 46.219c.222.148.357.451.345.775-.012.324-.168.609-.399.73l-69.186 36.055-82.974 43.245a.53.53 0 0 1-.239.059z"/><path fill="#DFE2F7" d="M781.047 742.972h-2.844a.847.847 0 0 1-.395-.099l-82.579-43.039-82.579 43.039a.844.844 0 0 1-.395.099h-2.844c-.331 0-.643-.201-.843-.542a1.716 1.716 0 0 1-.181-1.2l33.638-160.381 16.815-80.188a1.65 1.65 0 0 1 .024-.101l16.783-80.034.011-.059 9.674-46.109 8.872-42.312c.126-.6.545-1.017 1.024-1.017s.898.417 1.024 1.017l35.337 168.5c.011.037.02.075.028.114l16.815 80.188 33.638 160.381c.087.414.02.858-.181 1.2-.199.342-.511.543-.842.543zm-2.639-2.759h1.25l-33.273-158.639-16.79-80.074a1.355 1.355 0 0 1-.028-.114l-16.815-80.188-17.523-83.544-7.848 37.429-9.663 46.056-.011.059-16.815 80.183a1.847 1.847 0 0 1-.024.101l-16.795 80.093-33.272 158.639h1.25l82.784-43.146a.832.832 0 0 1 .79 0l82.783 43.145z"/><path fill="#DFE2F7" d="M713.776 422.214h-37.093c-.586 0-1.061-.618-1.061-1.38s.475-1.379 1.061-1.379h37.089c.586 0 1.063.618 1.063 1.379s-.473 1.38-1.059 1.38zM730.595 502.402h-70.731c-.586 0-1.061-.618-1.061-1.379s.475-1.38 1.061-1.38h70.727c.586 0 1.063.618 1.063 1.38s-.473 1.379-1.059 1.379zM747.409 582.59h-104.36c-.586 0-1.061-.618-1.061-1.38s.475-1.38 1.061-1.38h104.36c.586 0 1.061.618 1.061 1.38s-.475 1.38-1.061 1.38zM764.228 662.778H626.23c-.586 0-1.061-.618-1.061-1.38s.475-1.38 1.061-1.38h137.998c.586 0 1.061.618 1.061 1.38s-.475 1.38-1.061 1.38zM696.971 290.911c7.018 0 12.707 5.689 12.707 12.707s-5.689 12.707-12.707 12.707c-7.018 0-12.707-5.689-12.707-12.707s5.69-12.707 12.707-12.707zM709.678 333.006c0-1.37.711-2.704 1.982-3.439.518-.309 13.108-7.982 13.108-25.949 0-18.13-12.031-26.537-12.543-26.886a3.983 3.983 0 0 1-1.066-5.507 3.962 3.962 0 0 1 5.487-1.09c.656.437 16.064 10.968 16.064 33.483 0 22.677-16.374 32.417-17.071 32.82a3.97 3.97 0 0 1-5.961-3.432z"/><path fill="#DFE2F7" d="M728.092 348.096c0-1.37.71-2.704 1.982-3.439.836-.493 20.753-12.533 20.753-40.837 0-28.468-18.973-41.626-19.781-42.174a3.98 3.98 0 0 1-1.078-5.507 3.967 3.967 0 0 1 5.494-1.094c.951.634 23.307 15.915 23.307 48.774 0 33.019-23.707 47.125-24.716 47.708a3.97 3.97 0 0 1-5.961-3.431z"/><path fill="#DFE2F7" d="M745.923 359.214c0-1.37.711-2.704 1.982-3.441 1.068-.625 26.387-15.882 26.387-51.806 0-36.087-24.09-52.746-25.116-53.438a3.975 3.975 0 0 1-1.083-5.507 3.966 3.966 0 0 1 5.497-1.095c1.17.78 28.644 19.562 28.644 60.04 0 40.642-29.111 57.963-30.35 58.681a3.972 3.972 0 0 1-5.961-3.434z"/><path fill="#DFE2F7" d="M762.951 373.509c0-1.37.71-2.704 1.982-3.439 1.366-.799 33.629-20.191 33.629-65.912 0-45.881-31.655-67.707-31.975-67.922a3.974 3.974 0 0 1-1.087-5.506 3.968 3.968 0 0 1 5.499-1.097c1.45.966 35.505 24.249 35.505 74.525 0 50.439-36.057 71.896-37.592 72.784a3.97 3.97 0 0 1-5.961-3.433zM680.778 333.006c0-1.37-.71-2.704-1.982-3.439-.518-.309-13.108-7.982-13.108-25.949 0-18.13 12.031-26.537 12.543-26.886a3.983 3.983 0 0 0 1.066-5.507 3.962 3.962 0 0 0-5.487-1.09c-.656.437-16.064 10.968-16.064 33.483 0 22.677 16.374 32.417 17.071 32.82a3.97 3.97 0 0 0 5.961-3.432z"/><path fill="#DFE2F7" d="M662.364 348.096c0-1.37-.71-2.704-1.982-3.439-.836-.493-20.753-12.533-20.753-40.837 0-28.468 18.973-41.626 19.781-42.174a3.98 3.98 0 0 0 1.078-5.507 3.967 3.967 0 0 0-5.494-1.094c-.951.634-23.307 15.915-23.307 48.774 0 33.019 23.707 47.125 24.716 47.708a3.97 3.97 0 0 0 5.961-3.431z"/><path fill="#DFE2F7" d="M644.533 359.214c0-1.37-.71-2.704-1.982-3.441-1.068-.625-26.387-15.882-26.387-51.806 0-36.087 24.09-52.746 25.116-53.438a3.975 3.975 0 0 0 1.083-5.507 3.966 3.966 0 0 0-5.497-1.095c-1.17.78-28.644 19.562-28.644 60.04 0 40.642 29.111 57.963 30.35 58.681a3.972 3.972 0 0 0 5.961-3.434z"/><path fill="#DFE2F7" d="M627.505 373.509c0-1.37-.71-2.704-1.982-3.439-1.366-.799-33.629-20.191-33.629-65.912 0-45.881 31.655-67.707 31.975-67.922a3.974 3.974 0 0 0 1.087-5.506 3.968 3.968 0 0 0-5.499-1.097c-1.45.966-35.505 24.249-35.505 74.525 0 50.439 36.057 71.896 37.592 72.784a3.97 3.97 0 0 0 5.961-3.433z"/><path fill="#F1CCCD" d="M1063.137 574.667s-1.978 10.091-6.047 17.052c-.896 1.524-1.888 2.908-2.986 3.988-6.908 6.856-31.083 7.509-31.083 7.509-3.568 4.712-10.181 5.541-12.947 2.458-1.621-1.814 6.663-2.565 7.87-4.995 0 0-4.11-1.379-2.979-2.963.648-.904 4.516-.93 8.132.228 8.893-4.035 13.998-4.527 22.766-8.458 3.874-6.777 11.351-14.068 12.227-17.556l5.047 2.737z"/><path fill="#FFCD75" d="M1065.217 575.791s-4.821 14.958-8.889 21.92l-10.139-9.828c7.987-13.985 11.166-15.549 14.567-17.638l4.461 5.546z"/><path fill="#C8CBE3" d="M924.935 573.127c8.927-1.786 17.912-.049 26.263 3.316 7.591 3.059 13.933 8.291 20.811 12.639 10.058 6.358 20.574 12.014 31.662 16.366 16.036 6.294 33.077 8.99 50.199 6.629 14.435-1.991 28.033-7.234 41.76-11.875 15.482-5.234 31.226-9.227 47.657-9.5 27.915-.465 55.085 8.562 80.16 20.126 4.513 2.082 8.468-4.618 3.924-6.714-23.524-10.849-48.5-19.52-74.555-20.994-17.496-.99-34.756 1.861-51.434 7.036-14.158 4.393-27.924 10.218-42.487 13.213-16.338 3.359-32.704 1.802-48.417-3.662-12.851-4.469-24.888-11.115-36.301-18.458-7.427-4.778-14.162-9.82-22.522-12.925-9.28-3.446-19.046-4.644-28.788-2.695-4.901.981-2.826 8.477 2.068 7.498z"/><path fill="#30334D" d="M1055.676 546.371c.644-3.694 4.845-6.294 8.429-4.27 1.367.773 2.736 1.531 4.204 2.09 1.529.581 3.237.449 4.818.867 3.66.968 6.063 5.252 4.981 8.88-.601 2.016-2.11 3.972-1.535 5.994.587 2.065 2.962 2.909 4.8 4.018 1.483.896 2.792 2.19 3.366 3.825.573 1.635.284 3.631-.984 4.813-.907.846-2.26 1.274-2.803 2.39-.672 1.38.248 2.962 1.049 4.271.802 1.308 1.481 3.106.469 4.26-.825.94-2.31.855-3.513.513-1.204-.341-2.455-.862-3.661-.534-1.295.353-2.138 1.579-3.275 2.291-1.3.815-2.969.914-4.441.481-1.472-.433-2.763-1.354-3.845-2.442-2.44-2.452-1.707-6.75-4.049-9.296-4.254-4.625-3.185-12.999 1.963-17.065-.001.002-7.154-4.312-5.973-11.086z"/><path fill="#F1CCCD" d="M1065.741 682.021c.535 5.611.704 10.591.585 15.171-.297 11.701-1.734 19.215-4.56 30.141l-1.621 5.275-4.61 2.155.871-7.403s-3.016-22.737-4.384-38.798c-.357-4.077-.585-7.702-.615-10.411-.208-15.468 11.181-57.111 11.915-59.807l.03-.103.01-.039 16.441-.518c6.483 31.838-3.653 37.826-14.062 64.337z"/><path fill="#F1CCCD" d="m1098.201 734.368-.119-9.346s-9.025-17.039-16.677-27.33c-1.819-2.464-3.518-4.608-4.947-6.18-10.215-11.211-20.539-71.488-20.539-71.488l15.063-1.381c13.08 12.775 11.855 32.129 13.932 50.947a42.927 42.927 0 0 0 6.212 17.919 63.708 63.708 0 0 1 1.886 3.236c4.181 7.711 6.805 17.158 10.108 32.447l2.526 4.333-7.445 6.843z"/><path fill="#30334D" d="m1056.973 616.502 21.334-4.058c21.823 21.974 7.719 47.393 14.47 68.5-13.311 2.187-22.851 7.606-47.286 1.775.945-29.599 6.538-38.517 11.482-66.217zM1106.418 728.314c.182 1.625 1.486 7.947 1.804 8.503l-1.532.76-2.272-4.891s-1.935 1.257-2.444 3.309c-.509 2.051-.731 3.788-3.174 4.85-2.443 1.062-6.022 2.835-6.335 1.17-.313-1.665 4.139-6.558 4.892-9.739.837-3.532.725-7.253.725-7.253 2.182.129 3.499-.327 5.037-1.83.001 0 3.117 3.495 3.299 5.121zM1063.149 733.265c-.376 1.592-1.276 7.984-1.162 8.614l-1.699.201-.493-5.371s-2.245.532-3.415 2.292c-1.17 1.76-1.964 3.321-4.622 3.499-2.659.178-6.625.643-6.359-1.031s6.104-4.782 7.885-7.524c1.977-3.044 3.124-6.586 3.124-6.586 2.011.857 3.405.871 5.359-.027 0 .001 1.758 4.342 1.382 5.933z"/><path fill="#FFBE4D" d="M1054.374 624.552c6.016-23.954-5.325-36.764 2.691-51.297 0 0 .002-.037.038-.035.655-.778 1.437-1.418 2.244-2.064.001-.037.038-.035.038-.035.797-.79 3.439-2.47 3.439-2.47l5.62-.992s8.787 1.888 11.987 6.463c8.241 11.785-.903 34.546 5.039 47.445-6.012 4.489-24.929 7.406-31.096 2.985z"/><path fill="#F1CCCD" d="M1068.445 567.658c-3.171 2.432-5.28 3.144-5.62.992l-.281-3.954-.418-6.005 5.124.214.684 4.975.511 3.778z"/><path fill="#F0B4B4" d="M1067.934 563.881c-.61.347-1.365.613-2.192.838a6.249 6.249 0 0 1-3.197-.022l-.418-6.005 5.124.214.683 4.975z"/><path fill="#F1CCCD" d="M1059.211 549.742s-1.998 12.708 3.691 13.203c5.689.494 6.345-6.06 6.345-6.06s2.846-2.088 1.838-3.97c-1.008-1.882-3.61.351-3.61.351-2.953.93-5.724-.064-8.264-3.524zM1079.515 588.456s-5.625 9.009-11.125 14.291c-1.317 1.254-2.617 2.293-3.835 2.956-8.437 4.583-29.342 4.545-29.342 4.545-7.124 3.41-13.724 2.406-15.667.189-3.446-3.97 8.074-.484 8.744-3.229 0 0-5.011-.776-3.669-2.754.98-1.444 8.976-.265 8.976-.265 13.269-3.159 16.259-6.738 24.359-8.403.531-1.009 1.061-2.017 1.615-3.016 4.017-7.17 8.894-13.864 16.088-18.847 4.406 4.389 4.966 9.345 3.856 14.533z"/><path fill="#FFCD75" d="m1070.324 602.703-12.225-10.424c4.016-7.171 11.465-22.705 18.78-17.902 9.74 6.395-1.055 23.044-6.555 28.326z"/><path fill="#30334D" d="M305.122 548.458s2.343-4.194.879-8.726c-1.463-4.532-7.398-8.584-13.257-5.648-1.991.998-2.752 3.103-2.752 3.103s-2.651.114-4.621 2.714c-1.485 1.96-3.814 5.967-1.319 13.862 3.01 9.524-10.991 15.628-8.083 22.595 2.908 6.967 10.446 2.417 11.769 5.614s11.422 2.456 17.857 0c7.283-2.779 1.78-31.57-.473-33.514z"/><path fill="#F1CCCD" d="M303.734 570.857s1.207 10.212 4.735 17.462c.778 1.588 1.662 3.042 2.675 4.203 6.367 7.36 30.424 9.847 30.424 9.847 3.2 4.969 9.731 6.298 12.723 3.434 1.754-1.686-6.449-3.063-7.468-5.578 0 0 4.203-1.063 3.195-2.728-.577-.951-4.432-1.27-8.125-.39-8.562-4.698-13.614-5.577-22.058-10.162-3.348-7.051-10.25-14.889-10.859-18.434l-5.242 2.346z"/><path fill="#E35B6D" d="M301.575 571.82s3.671 15.281 7.2 22.532l10.856-9.03c-6.903-14.551-9.953-16.351-13.186-18.693l-4.87 5.191z"/><path fill="#C8CBE3" d="M459.579 497.762c-13.355 1.554-25.551 6.374-36.074 14.792-9.823 7.858-17.483 18.044-24.456 28.418-13.67 20.339-25.703 44.593-48.574 56.089-14.497 7.287-29.949 6.645-45.661 5.25-22.78-2.023-45.641-3.466-68.517-3.562-30.534-.129-61.702 2.002-90.982 11.247-24.966 7.882-47.174 21.294-68.747 35.843-4.127 2.783-.24 9.522 3.924 6.714 18.86-12.719 38.218-24.889 59.724-32.639 27.328-9.848 56.474-12.849 85.359-13.327 21.1-.349 42.211.625 63.248 2.191 18.322 1.363 36.989 4.79 54.964-.726 24.93-7.651 39.98-29.085 53.415-49.986 15.305-23.811 31.773-48.968 62.377-52.528 4.912-.571 4.969-8.354 0-7.776z"/><path fill="#FFCBC7" d="M296.793 727.919c.167 2.183-2.276 4.471-2.409 6.715 9.285 1.984 18.648 3.599 28.008 5.239-1.591-7.566-10.971-7.138-17.156-9.576 0-37.687 15.878-81.5 7.133-118.665-2.922-.066-3.133.808-6.564.668-3.432-.141-9.304-.549-13.245-.794-1.164 34.396 4.003 113.395 4.233 116.413z"/><path fill="#FFCBC7" d="M242.33 693.16c-2.083-.724-4.509 1.539-6.607 1.006 1.881 8.601 4.649 13.884 8.587 21.792 2.404-4.909 1.624-9.75 2.528-14.995 6.279-1.522 39.248-12.791 43.754-22.688 8.352-18.345 19.735-39.306 15.472-65.972-5.518-.172-11.036-.65-16.534-.909-10.291 14.814-12.935 54.589-15.513 58.96-4.997 8.478-29.353 19.835-31.687 22.806z"/><path fill="#30334D" d="M316.164 732.89c2.298 1.119 9.814 2.726 7.978 7.073-1.837 4.348-24.195.041-28.129-2.245-3.934-2.287-.294-6.805.899-9.452 3.534 7.06 13.89 10.86 20.761 7.91 2.584-1.11-1.061-2.826-1.509-3.286zM245.841 710.022c-.116 1.584 1.377 10.047-2.514 9.246-3.892-.801-10.647-21.827-9.011-25.823 1.868-4.564 6.444-.916 7.951-.306-5.582 3.889-2.649 15.884 1.728 18.838 1.523 1.027 1.881-1.229 1.846-1.955zM262.021 667.593s5.243 5.794 10.171 4.594c0 0 5.459 8.272 14.034 2.559 6.498 4.02 12.988 4.02 19.486 0 8.567 5.713 14.035-2.559 14.035-2.559 4.928 1.199 10.17-4.594 10.17-4.594-4.705-22.143-14.875-41.057-17.341-56.79l-23.602.781c-7.295 7.261-11.966 37.565-26.953 56.009z"/><path fill="#D94559" d="M286.822 613.616c-.064.479 6.832 3.591 14.648 1.568 8.363-2.165 12.704 2.345 12.412-1.657-1.014-13.9-1.152-19.698-.085-25.625 1.885-10.461-1.293-21.42-10.693-22.529l-7.602-.068c-8.51 1.819-10.482 10.211-11.078 13.959-1.501 9.443 4.427 19.235 2.398 34.352z"/><path fill="#F1CCCD" d="M295.541 565.326c2.713 2.713 5.272 3.233 7.562.048l-.644-5.234-.269-2.204h-6.004l-.115 1.367-.53 6.023z"/><path fill="#F0B4B4" d="M296.071 559.303c.923 1.126 1.895 1.682 3.252 1.721 1.183.039 2.396-.105 3.137-.884l-.269-2.204h-6.004l-.116 1.367z"/><path fill="#F1CCCD" d="M303.832 542.804c.587 2.145 1.165 5.233 1.296 8.167.158 3.695-.4 7.154-2.56 8.229-2.373 1.174-6.484.524-9.625-3.283l-.09-.058c-.504-.335-2.95-2.033-2.758-3.565.29-2.285 2.427-1.086 2.427-1.086s-4.196-7.864 2.796-11.138c2.618-1.23 8.514 2.734 8.514 2.734z"/><path fill="#30334D" d="M305.584 547.28s-.823-.17-1.598-4.896c-2.356 4.086-4.597 5.48-7.186 6.442.115-1.707-.629-4.305-1.223-4.322 0 0 .298 2.398-1.438 4.445-1.451 1.711-.093 4.816-.093 4.816s-2.753-1.915-4.274-5.008c-1.53-3.111-.811-2.866-.811-2.866s1.313-4.392 1.111-4.736c-.703-1.2 7.288-4.75 7.613-4.393l4.842-.252 2.593 2.318 1.324 3.842-.86 4.61z"/><path fill="#F1CCCD" d="M290.446 590.78s5.839 8.872 11.464 14.021c1.347 1.222 2.671 2.229 3.904 2.863 8.544 4.38 29.442 3.842 29.442 3.842 7.204 3.238 13.777 2.078 15.667-.185 3.35-4.051-8.083-.291-8.819-3.019 0 0 4.991-.895 3.602-2.841-1.015-1.42-8.98-.051-8.98-.051-13.341-2.841-16.416-6.347-24.553-7.819a150.418 150.418 0 0 0-1.686-2.976c-4.187-7.073-9.223-13.647-16.534-18.457-4.3 4.493-4.741 9.461-3.507 14.622z"/><path fill="#E35B6D" d="m299.974 604.803 11.973-10.713c-4.187-7.073-12.005-22.425-19.203-17.448-9.584 6.626 1.606 23.012 7.23 28.161z"/><path fill="#F9CBCB" d="M551.18 542.975s-5.393 30.366-13.269 32.463c-3.565.949-8.145.153-12.517-1.327-7.394-2.502-14.19-6.951-14.425-8.166l-7.501-22.77c4.318 1.861 28.915 15.883 30.925 17.226 3.254-4.886 10.312-17.597 10.544-18.53 0 0-1.523-6.85-.177-8.779 1.196-1.707 1.635 3.89 2.14 3.211.55-.747 3.808-8.668 5.975-6.354 4.811 5.157-1.695 13.026-1.695 13.026z"/><path fill="#FFCD75" d="M530.242 557.175c-.564 5.942-4.009 13.975-4.368 17.698-7.394-2.502-16.308-3.339-16.543-4.554l-5.863-27.145c4.318 1.861 18.192 8.909 26.774 14.001z"/><path fill="#73B4FF" d="M482.232 465.43h-6.701c-18.141 0-32.847 14.706-32.847 32.847 0 18.142 14.706 32.848 32.847 32.848h6.701c5.498 0 9.956-4.458 9.956-9.956v-45.784c-.001-5.499-4.458-9.955-9.956-9.955z"/><path fill="#4791E6" d="M482.232 465.43h-6.701c-.934 0-1.856.048-2.77.124a9.95 9.95 0 0 1 .35 2.582v45.784c0 5.498-4.457 9.956-9.956 9.956h-6.701c-.518 0-1.034-.016-1.547-.039a32.703 32.703 0 0 0 20.623 7.288h6.701c5.498 0 9.956-4.457 9.956-9.955v-45.784c0-5.499-4.457-9.956-9.955-9.956z"/><path fill="#73B4FF" d="M584.994 434.323h-49.217c-24.864 0-45.02 20.156-45.02 45.02v32.048c0 24.864 20.156 45.02 45.02 45.02h49.217a9.538 9.538 0 0 0 9.538-9.539V443.861c0-5.267-4.27-9.538-9.538-9.538z"/><path fill="#4791E6" d="M594.151 548.114h-49.217c-24.864 0-45.02-20.156-45.02-45.02v-32.048c0-11.006 3.955-21.084 10.513-28.906-11.873 8.106-19.67 21.743-19.67 37.204v32.048c0 24.864 20.156 45.02 45.02 45.02h49.217c4.851 0 8.848-3.625 9.451-8.313-.099.003-.195.015-.294.015z"/><path fill="#73B4FF" d="M494.763 440.046c-8.007 0-14.498 6.491-14.498 14.498v81.647c0 8.008 6.491 14.498 14.498 14.498s14.498-6.491 14.498-14.498v-81.647c0-8.007-6.491-14.498-14.498-14.498z"/><path fill="#4791E6" d="M498.862 440.643a14.426 14.426 0 0 1 2.53 8.178v81.647c0 8.007-6.491 14.498-14.498 14.498-1.425 0-2.798-.214-4.099-.597 2.612 3.814 6.996 6.32 11.968 6.32 8.007 0 14.498-6.491 14.498-14.498v-81.648c0-6.581-4.39-12.13-10.399-13.9z"/><ellipse cx="587.808" cy="495.368" fill="#4791E6" rx="24.275" ry="60.705"/><ellipse cx="594.055" cy="495.678" fill="#ABD2FF" rx="21.747" ry="60.395"/><path fill="#73B4FF" d="M641.14 475.337h-41.71a4.135 4.135 0 0 1-4.135-4.135v-2.937a4.135 4.135 0 0 1 4.135-4.135h41.71a4.135 4.135 0 0 1 4.135 4.135v2.937a4.135 4.135 0 0 1-4.135 4.135z"/><path fill="#4791E6" d="M639.672 472.047h-38.773c-2.518 0-4.623-1.672-5.33-3.958-.161.523-.274 1.068-.274 1.645a5.605 5.605 0 0 0 5.604 5.604h38.773a5.605 5.605 0 0 0 5.604-5.604c0-.577-.112-1.122-.274-1.645-.707 2.285-2.812 3.958-5.33 3.958z"/><path fill="#73B4FF" d="M641.14 525.699h-41.71a4.135 4.135 0 0 1-4.135-4.135v-2.937a4.135 4.135 0 0 1 4.135-4.135h41.71a4.135 4.135 0 0 1 4.135 4.135v2.937a4.135 4.135 0 0 1-4.135 4.135z"/><path fill="#4791E6" d="M639.672 522.409h-38.773c-2.518 0-4.623-1.672-5.33-3.958-.161.523-.274 1.068-.274 1.645a5.605 5.605 0 0 0 5.604 5.604h38.773a5.604 5.604 0 0 0 5.604-5.604c0-.577-.112-1.122-.274-1.645-.707 2.285-2.812 3.958-5.33 3.958z"/><path fill="#F1CCCD" d="M501.488 672.65c-1.553 5.785-2.513 10.977-3.022 15.804-1.309 12.332-.939 31.321 1.316 43.324l6.323-.621s8.933-32.439 13.155-49.028c1.085-4.209 1.927-7.969 2.365-10.805 2.551-16.188-6.897-62.049-7.503-65.017l-.025-.114-.008-.042-25.444-3.554c-13.518 32.164 2.517 40.255 12.843 70.053z"/><path fill="#30334D" d="M489.491 646.219c3.59 7.387 8.18 15.424 11.997 26.43-1.408 5.24-3.011 10.687-4.864 17.038l22.006 3.074c1.085-4.209 2.557-18.602 2.995-21.438 2.551-16.188-6.897-62.049-7.503-65.017l-.025-.114-.008-.042-25.444-3.554c-8.534 20.291-5.297 30.996.846 43.623z"/><path fill="#1F2138" d="M489.491 646.219c3.59 7.387 8.18 15.424 11.997 26.43-1.408 5.24-3.011 10.687-4.864 17.038l4.06.567c.696-6.283 6.247-16.612 8.111-16.281-1.651-.409-12.814-12.288-5.384-46.715l-13.92 18.961z"/><path fill="#F1CCCD" d="m474.85 739.183-15.503-17.969s11.383-17.779 20.594-29.599c2.186-2.829 4.25-5.302 6.013-7.134 12.614-13.064 19.2-78.905 19.2-78.905H484.3c-16.349 15.029-12.231 35.721-12.714 56.163-.167 7.085-2.446 13.917-6.272 19.883a63.177 63.177 0 0 0-2.182 3.666c-4.77 8.705-7.598 18.913-10.208 35.681l-3.228 10.883 25.154 7.331z"/><path fill="#30334D" d="m462.08 684.931 6.026 2.76 12.245 5.603c2.186-2.828 3.84-6.982 5.603-8.814 12.614-13.064 20.758-79.165 20.758-79.165l-21.523.246-.888.014c-15.802 14.526-12.484 34.343-12.68 54.111-.08 8.067-2.688 15.941-7.608 22.334a22.672 22.672 0 0 0-1.933 2.911z"/><path fill="#1F2138" d="m462.08 684.931 6.026 2.76c1.954-3.061 4.892-8.875 6.444-12.803 4.1-10.377 1.578-24.47 2.562-44.285.725-14.6 13.065-21.694 13.065-21.694l-4.988-3.348-.888.014c-15.802 14.526-12.484 34.343-12.68 54.111-.08 8.067-2.688 15.941-7.608 22.334a22.672 22.672 0 0 0-1.933 2.911z"/><path fill="#FFBE4D" d="M473.71 563.075c.177 13.147 3.417 35.941 4.646 44.14a4.23 4.23 0 0 0 1.763 2.856 4.115 4.115 0 0 0 1.749.697c5.89.875 11.657 1.353 17.273 1.339 5.056 0 9.99-.382 14.786-1.216 1.873-.328 3.307-1.832 3.512-3.717.67-6.204-1.277-19.815-.962-33.057.205-8.377-2.424-29.819-18.067-33.193l-9.164-.083c-10.276 2.665-14.581 10.522-15.292 16.016-.217 1.627-.285 3.758-.244 6.218z"/><path fill="#30334D" d="M506.848 729.347c9.732 3.736 20.53 3.351 21.204 12.134l-30.62-1.068c-.36-3.723.259-7.411 1.856-11.066h7.56zM459.347 721.213c7.79 6.927 19.444 11.811 16.977 20.268l-28.277-9.453c.975-3.61 2.284-9.407 5.067-12.265l6.233 1.45zM495.555 532.842c-2.983.923-4.189 2.412-8.004.689-5.806-2.623-10.706-12.672-2.997-17.216.533-1.591 1.07-2.21 3.102-2.652 2.031-.441 4.114.443 6.915.395 2.8-.048 6.762-2.931 9.203 1.141s-3.612 7.239-6.646 9.244c-3.035 2.006-2.05 5.465-1.573 8.399z"/><path fill="#F9CBCB" d="M489.117 540.865c3.334 3.334 6.479 3.973 9.294.059l-.792-6.432-.331-2.708h-7.378l-.142 1.679-.651 7.402z"/><path fill="#F0B4B4" d="M489.662 534.66c1.823 2.194 6.848 2.829 8.21 1.889l-.584-4.764-7.42-3.114-.206 5.989z"/><path fill="#F9CBCB" d="M501.069 518.888c1.358 3.827 2.688 12.289-.559 15.435-2.056 1.992-9.517 1.221-11.04-4.256-1.8-1.303-3.12-4.48-1.462-5.922 1.182-1.027 2.692 1.688 4.754 1.238.782-.17-1.621-5.397.821-6.303 2.44-.905 5.024 1.058 7.486-.192zM490.357 568.823s11.495 5.689 20.497 7.628c2.149.453 4.143.696 5.815.605 11.576-.643 33.118-13.765 33.118-13.765 8.834.473 16.965-5.75 17.555-9.261 1.022-6.265-8.742 3.555-11.171 1.16 0 0 4.113-5.365 1.633-6.844-2.475-1.497-9.365 8.485-9.365 8.485-11.31.314-21.902 2.423-31.28 5.85-1.185-.7-2.37-1.4-3.572-2.075-8.676-4.82-17.933-8.604-28.486-9.161-1.744 7.303.824 12.751 5.256 17.378z"/><path fill="#FFCD75" d="m508.839 577.633 5.949-18.466c-8.676-4.82-26.184-16.057-30.653-6.482-5.951 12.749 15.702 23.009 24.704 24.948z"/><path fill="#F9CBCB" d="M894.003 634.887c-.95 2.85-5.07 7.195-8.953 10.817-3.918 3.657-13.931 7.849-13.931 7.849l-.116 22.477h-24.116l-2.151-22.588s-7.586 1.335-11.504 1.643c-4.299.332-9.262.356-11.257-1.01-6.792-4.642-12.135-30.539-12.135-30.539s-3.942-4.678 0-7.884c3.942-3.218 5.035 2.47 5.035 2.47s2.897-3.301 2.897-.522-2.565 4.583-2.565 4.583l11.435 19.473 3.503-1.674 13.738-6.554 10.639-3.681h8.003l4.429 1.734c2.505.974 5.284.938 7.765-.083a33.144 33.144 0 0 1 5.985-1.828c1.638-.344 3.348-.582 5.272-.772-1.567-7.385-1.27-15.115.285-23.083 0 0-5.403-4.37-2.137-4.738.855-.095 2.007 1.852 2.672.962.807-1.117 1.009-6.246 1.781-5.593 2.102 1.769 3.36 6.091 1.971 9.25 0-.002 5.747 22.499 3.455 29.291z"/><path fill="#73B4FF" d="M901.404 527.804h-6.701c-5.498 0-9.956 4.458-9.956 9.956v45.783c0 5.499 4.457 9.956 9.956 9.956h6.701c18.141 0 32.847-14.706 32.847-32.847.001-18.142-14.706-32.848-32.847-32.848z"/><path fill="#4791E6" d="M894.704 527.804h6.701c.934 0 1.856.048 2.77.124a9.95 9.95 0 0 0-.35 2.582v45.784c0 5.498 4.457 9.956 9.956 9.956h6.701c.518 0 1.034-.016 1.547-.039a32.703 32.703 0 0 1-20.623 7.288h-6.701c-5.498 0-9.956-4.457-9.956-9.955V537.76c-.001-5.499 4.457-9.956 9.955-9.956z"/><path fill="#73B4FF" d="M791.942 496.698h49.217c24.864 0 45.02 20.156 45.02 45.02v32.048c0 24.864-20.156 45.02-45.02 45.02h-49.217a9.538 9.538 0 0 1-9.538-9.539V506.236a9.538 9.538 0 0 1 9.538-9.538z"/><path fill="#4791E6" d="M782.785 610.488h49.217c24.864 0 45.02-20.156 45.02-45.02V533.42c0-11.006-3.955-21.084-10.513-28.906 11.873 8.106 19.67 21.743 19.67 37.204v32.048c0 24.864-20.156 45.02-45.02 45.02h-49.217c-4.851 0-8.848-3.625-9.451-8.313.099.003.195.015.294.015z"/><path fill="#73B4FF" d="M882.173 502.421c-8.007 0-14.498 6.491-14.498 14.497v81.648c0 8.007 6.491 14.498 14.498 14.498s14.498-6.491 14.498-14.498v-81.648c0-8.007-6.491-14.497-14.498-14.497z"/><path fill="#4791E6" d="M878.074 503.018a14.426 14.426 0 0 0-2.53 8.178v81.647c0 8.007 6.491 14.498 14.498 14.498 1.425 0 2.798-.214 4.099-.597-2.612 3.814-6.996 6.32-11.968 6.32-8.007 0-14.498-6.491-14.498-14.498v-81.648c0-6.582 4.39-12.131 10.399-13.9z"/><ellipse cx="792.729" cy="557.742" fill="#4791E6" rx="22.939" ry="61.044"/><ellipse cx="786.6" cy="557.713" fill="#ABD2FF" rx="21.747" ry="60.395"/><path fill="#4791E6" d="M779.065 532.561c0-6.084 2.605-11.017 5.818-11.017s5.818 4.932 5.818 11.017c0 6.084-2.605 11.017-5.818 11.017s-5.818-4.932-5.818-11.017zM779.065 579.06c0-6.717 2.605-12.162 5.818-12.162s5.818 5.445 5.818 12.162c0 6.717-2.605 12.161-5.818 12.161s-5.818-5.444-5.818-12.161z"/><path fill="#30334D" d="M852.905 605.571c.385-.194.855-.304 1.165-.583.31-.279.323-.586.642-.848.967-.793 2.21-.582 3.374-.31 1.87.436 3.752.935 5.029 2.44.533.629.718 1.314 1.473 1.68.347.168.746.136 1.094.225 2.843.723 5.046 2.78 4.287 5.88-.219.894-.76 1.086-.947 2.119-.391 2.156 1.288 4.388-1.442 5.884-2.731 1.496-5.62 1.989-8.864.792-3.747-1.382-5.546-6.292-6.711-9.972-1.163-1.106-2.017-2.321-1.811-3.971.205-1.649 1.308-2.628 2.711-3.336z"/><path fill="#F9CBCB" d="M862.526 629.745h-8.003l.214-2.992.403-5.45h6.982l.154 3.17z"/><path fill="#F0B4B4" d="M862.276 624.473c-1.15 2.269-5.461 2.669-7.54 2.28l.404-5.45h6.982l.154 3.17z"/><path fill="#F9CBCB" d="m859.272 676.029-1.876 9.63-2.636 13.512c-12.776 3.788-29.779 7.338-44.266-2.6-2.28 11.352-6.91 20.281-14.035 29.958a137.211 137.211 0 0 1-3.574 4.69l.391 7.409-26.681 1.947 19.58-11.126a60.608 60.608 0 0 0 1.935-5.521c4.951-16.184 5.521-35.978 17.217-44.278 7.599-5.391 42.58-3.622 42.58-3.622h11.365z"/><path fill="#F9CBCB" d="M890.311 738.628h-17.93a722.69 722.69 0 0 0-9.167.57c-22.821 1.496-43.28 3.194-44.753-4.844-3.372-18.464 12.907-35.182 28.426-58.325h24.116c11.506 32.273-18.369 42.984-35.266 50.44 10.912-2.28 19.259-.368 28.2 3.218 1.698.677 3.42 1.425 5.177 2.208l21.197 6.733z"/><path fill="#30334D" d="M835.738 726.47c10.912-2.28 19.259-.368 28.2 3.218l-.285 3.74-.44 5.771c-22.821 1.496-43.28 3.194-44.753-4.844-3.372-18.464 12.907-35.182 28.426-58.325h24.116c11.508 32.273-18.367 42.983-35.264 50.44z"/><path fill="#30334D" d="m857.396 685.659-2.636 13.512c-7.813 2.315-17.193 4.536-26.621 3.657-5.996-.57-12.016-2.399-17.645-6.257-2.28 11.352-6.91 20.281-14.035 29.958l-3.717-1.152-4.631-1.449c4.951-16.184 5.521-35.978 17.217-44.278 7.599-5.391 42.58-3.622 42.58-3.622h6.127l3.361 9.631z"/><path fill="#1F2138" d="m843.516 686.17-15.377 16.659c-5.996-.57-12.016-2.399-17.645-6.257-2.28 11.352-6.91 20.281-14.035 29.958l-3.717-1.152c7.35-11.475 12.505-22.747 15.341-33.805 6.886 3.342 14.475 8.694 19.918 7.175l15.515-12.578zM835.738 726.47c10.912-2.28 19.259-.368 28.2 3.218l-.285 3.74c-7.824-5.203-19.771-6.259-33.508-5.51 7.022-8.577 37.373-19.432 38.305-37.189.403-7.669-2.446-14.7-2.446-14.7h4.999c11.507 32.274-18.368 42.984-35.265 50.441z"/><path fill="#D94559" d="m873.307 653.148.071 20.993c.13 2.268-1.235 4.417-3.408 5.106-.024.011-.048.011-.071.024-8.169 2.553-15.092-2.921-24.104-3.301l-2.161-20.233s-8.561.285-12.479.594l-1.009-16.35 13.738-6.554 10.639-3.681c3.194 5.931 5.702 4.133 8.003 0 5.854.356 11.565 1.366 18.179-.178l5.438 15.673c-4.892 3.336-12.836 7.907-12.836 7.907z"/><path fill="#B52134" d="M843.902 644.702c-.673 3.591-.846 7.256-.268 11.034 0 0-8.561.285-12.479.594 11.746-2.834 6.508-7.282 12.747-11.628zM873.379 674.141c.13 2.268-1.235 4.417-3.408 5.106-.024.011-.048.011-.071.024 1.155-13.061-3.921-17.152-.902-24.514l4.31-1.609.071 20.993z"/><path fill="#30334D" d="M793.646 730.253c2.274 2.855 1.367 5.798.685 10.203h-29.293c.575-8.687 9.995-6.347 19.492-10.308a3.026 3.026 0 0 1 2.262-.045c1.804.699 4.997 1.902 6.854.15zM871.354 732.607c-.583-2.687-.482-4.952.699-7.465a2.786 2.786 0 0 1 3.88-1.248l21.15 11.88c1.166.655 1.391 2.256.439 3.195-4.433 4.372-11.11-1.067-20.224-.341-5.214.416-3.062-5.2-5.944-6.021z"/><path fill="#F9CBCB" d="M852.263 611.696c-.368 4.177-2.186 9.353 1.778 12.678 2.509 2.105 7.976-.674 8.659-4.152 1.34-1.324 2.468-3.512.832-4.941-1.166-1.019-2.367 1.89-3.927 1.01-.592-.334.938-4.33-1.069-4.847-2.007-.517-4.143.865-6.273.252z"/><path fill="#30334D" d="M1329.255 742.972H115.146a.945.945 0 0 1-.945-.945v-.395c0-.522.423-.945.945-.945h1214.109c.522 0 .945.423.945.945v.395a.945.945 0 0 1-.945.945zM92.234 742.972h-57.49a.945.945 0 0 1-.945-.945v-.395c0-.522.423-.945.945-.945h57.49c.522 0 .945.423.945.945v.395a.945.945 0 0 1-.945.945zM1140.924 775.567h-57.49a.945.945 0 0 1-.945-.945v-.395c0-.522.423-.945.945-.945h57.49c.522 0 .945.423.945.945v.395a.945.945 0 0 1-.945.945zM1041.892 775.567H808.111a.945.945 0 0 1-.945-.945v-.395c0-.522.423-.945.945-.945h233.781c.522 0 .945.423.945.945v.395a.945.945 0 0 1-.945.945z"/><path fill="#DFE2F7" d="m435.625 292.727-29.396-19.478a7.701 7.701 0 0 1 3.505-.838h51.786c1.263 0 2.453.302 3.505.838l-29.4 19.478z"/><path fill="#DFE2F7" d="M469.273 280.164v29.081a7.754 7.754 0 0 1-7.754 7.756h-51.786a7.755 7.755 0 0 1-7.754-7.756v-29.081a7.71 7.71 0 0 1 1.601-4.716l32.044 21.234 32.047-21.234a7.705 7.705 0 0 1 1.602 4.716zM229.949 367.206c-3.34-3.08-7.051-2.463-10.052-.143-1.677 1.296-3.84.93-5.632-.203-4.781-3.023-9.234-6.414-12.296-11.832-1.051-1.86-1.669-3.943-.409-5.668 5.473-7.492-3.404-16.431-10.867-9.947l-4.095 4.211c-2.956 2.608-4.744 5.579-2.43 9.642 6.763 11.875 17.06 22.198 31.647 30.814 5.906 3.489 9.634-1.705 13.094-5.266l-.004-.003c3.622-2.873 4.555-8.253 1.044-11.605zM365.202 408.338a21.115 21.115 0 0 0-.065-1.477c-.004-.079-.007-.155-.014-.234a22.553 22.553 0 0 0-.228-1.797 22.667 22.667 0 0 0-.977-3.825 21.023 21.023 0 0 0-.402-1.07l-.174-.411c-.203-.472-.42-.933-.651-1.387l-.217-.411a22.79 22.79 0 0 0-2.779-4.06 21.439 21.439 0 0 0-1.374-1.48 16.506 16.506 0 0 0-.782-.739 23.174 23.174 0 0 0-15.558-5.972 23.164 23.164 0 0 0-15.554 5.972 18.77 18.77 0 0 0-.785.739c-.347.338-.684.695-1.009 1.059-.123.141-.246.281-.366.421a22.944 22.944 0 0 0-2.775 4.06l-.217.411c-.232.454-.452.915-.651 1.387l-.174.411a22.667 22.667 0 0 0-1.621 6.926 21.115 21.115 0 0 0-.065 1.477c-.004.087-.004.173-.004.259 0 .335.007.674.022 1.005.025.648.083 1.286.163 1.916a22.668 22.668 0 0 0 1.773 6.369c.047.108.098.216.148.324.232.504.481.994.745 1.473.058.108.119.216.184.321.297.522.615 1.034.955 1.527.344.508.706 1.001 1.093 1.481a22.57 22.57 0 0 0 1.693 1.887c.637.638 1.31 1.239 2.019 1.798a23.159 23.159 0 0 0 14.389 5.017l.038.002.043-.002a23.164 23.164 0 0 0 14.384-5.017 22.657 22.657 0 0 0 2.019-1.798 22.552 22.552 0 0 0 1.693-1.887c.387-.479.749-.973 1.093-1.481.34-.493.659-1.005.955-1.527.065-.104.127-.213.185-.321.264-.479.514-.969.745-1.473.047-.108.098-.216.145-.324.318-.72.601-1.459.847-2.212.156-.486.3-.98.423-1.481a22.745 22.745 0 0 0 .503-2.676c.08-.63.138-1.268.163-1.916a18.622 18.622 0 0 0 .022-1.264zm-2.539-3.509c.109.591.192 1.189.25 1.797.007.079.014.155.018.234h-6.308a34.671 34.671 0 0 0-.784-5.857h5.735a20.39 20.39 0 0 1 1.089 3.826zm-8.089 3.876c0 1.9-.158 3.74-.448 5.49h-4.362c.152-1.791.231-3.649.231-5.542l-.003-.315h4.575c.003.122.007.244.007.367zm-25.181 0c0-.123.004-.245.006-.368h4.575l-.003.315c0 1.893.079 3.75.231 5.542h-4.362a33.711 33.711 0 0 1-.447-5.489zm18.787-.052c0 1.914-.09 3.774-.255 5.542h-5.039v-5.857h5.291c0 .105.003.209.003.315zm-12.392 0c0-.106.002-.21.003-.315h5.291v5.857h-5.039a59.821 59.821 0 0 1-.255-5.542zm7.097-19.747c.928.459 1.797 1.61 2.551 3.28h-2.551v-3.28zm-1.803 0v3.28h-2.551c.754-1.671 1.622-2.822 2.551-3.28zm0 4.76v5.857H336.5c.365-2.221.856-4.208 1.441-5.857h3.141zm0 7.338v5.857h-5.266c.06-2.048.219-4.019.464-5.857h4.802zm0 14.671v5.857h-3.788c-.461-1.733-.834-3.711-1.093-5.857h4.881zm0 7.338v5.387c-1.279-.632-2.443-2.581-3.353-5.387h3.353zm1.803 5.387v-5.387h3.353c-.909 2.806-2.073 4.755-3.353 5.387zm0-6.868v-5.857h4.881c-.259 2.146-.632 4.124-1.093 5.857h-3.788zm0-14.671v-5.857h4.803c.245 1.838.404 3.809.464 5.857h-5.267zm0-7.338v-5.857h3.141c.585 1.649 1.076 3.636 1.441 5.857h-4.582zm5.187-5.857h2.605c1.061 1.678 1.947 3.657 2.603 5.857h-3.934c-.317-2.116-.743-4.092-1.274-5.857zm-.49-1.48c-.433-1.202-.909-2.244-1.42-3.117 1.261.736 2.43 1.795 3.472 3.117h-2.052zm-9.777-3.117c-.511.873-.987 1.915-1.42 3.117h-2.052c1.042-1.323 2.211-2.381 3.472-3.117zm-1.91 4.597c-.531 1.765-.957 3.741-1.274 5.857h-3.934c.657-2.2 1.542-4.179 2.603-5.857h2.605zm-1.475 7.338a62.128 62.128 0 0 0-.423 5.857h-4.552c.11-2.052.4-4.018.845-5.857h4.13zm-.072 14.671c.229 2.079.561 4.049.987 5.857h-3.258c-.831-1.75-1.496-3.723-1.956-5.857h4.227zm1.368 7.338c.14.501.287.989.442 1.457.518 1.558 1.105 2.869 1.743 3.925-1.941-1.104-3.667-2.969-5.05-5.382h2.865zm10.351 5.382c.638-1.056 1.225-2.366 1.742-3.924.156-.469.302-.957.442-1.457h2.865c-1.382 2.411-3.109 4.277-5.049 5.381zm2.564-6.863c.426-1.808.758-3.778.987-5.857h4.227c-.46 2.134-1.126 4.107-1.956 5.857h-3.258zm1.339-14.671a62.128 62.128 0 0 0-.423-5.857h4.13c.445 1.839.735 3.805.845 5.857h-4.552zm9.972-9.135a22 22 0 0 1 .242.411c.264.45.51.915.742 1.387h-5.461c-.583-2.112-1.369-4.085-2.344-5.857h3.579a21.064 21.064 0 0 1 3.242 4.059zm-4.932-5.54h-2.781a18.131 18.131 0 0 0-2.453-3.022 20.992 20.992 0 0 1 4.242 2.283c.337.234.67.479.992.739zm-25.062-.739a20.95 20.95 0 0 1 4.243-2.283 18.131 18.131 0 0 0-2.453 3.022h-2.781c.321-.26.654-.505.991-.739zm-6.169 6.689c.079-.137.163-.274.246-.411a21.024 21.024 0 0 1 3.245-4.06h3.576c-.975 1.772-1.761 3.745-2.344 5.857h-5.466c.233-.471.479-.935.743-1.386zm-2.728 8.491a19.57 19.57 0 0 1 .253-1.797 20.358 20.358 0 0 1 1.089-3.825h5.736a34.671 34.671 0 0 0-.784 5.857h-6.312c.003-.081.011-.156.018-.235zm.452 6.689a19.244 19.244 0 0 1-.336-1.797 21.136 21.136 0 0 1-.203-3.18h6.336c-.001.123-.005.245-.005.368 0 1.874.142 3.714.417 5.49h-5.984a18.648 18.648 0 0 1-.225-.881zm2.869 6.689c-.072-.104-.141-.213-.21-.321-.3-.479-.586-.969-.847-1.473-.058-.108-.112-.216-.167-.324a21.017 21.017 0 0 1-.952-2.212h5.779a29.803 29.803 0 0 0 1.794 5.857h-4.295a20.03 20.03 0 0 1-1.102-1.527zm4.447 4.895a20.88 20.88 0 0 1-2.055-1.887h3.695a23.11 23.11 0 0 0 1.001 1.786 18.942 18.942 0 0 0 2.368 3.081 20.774 20.774 0 0 1-2.382-1.182 20.801 20.801 0 0 1-2.627-1.798zm26.329 0a20.907 20.907 0 0 1-5.01 2.981 18.916 18.916 0 0 0 2.37-3.082 23.11 23.11 0 0 0 1.001-1.786h3.694a20.758 20.758 0 0 1-2.055 1.887zm5.669-7.013a20.425 20.425 0 0 1-1.013 1.797c-.069.108-.137.216-.21.321a19.52 19.52 0 0 1-1.104 1.527h-4.294a29.87 29.87 0 0 0 1.794-5.857h5.778a20.6 20.6 0 0 1-.951 2.212zm-4.561-3.692c.274-1.776.416-3.616.416-5.49 0-.123-.004-.245-.005-.368h6.332a22.464 22.464 0 0 1-.018 1.264 19.48 19.48 0 0 1-.181 1.916 19.177 19.177 0 0 1-.561 2.676h-5.983zM961.261 292.727l29.396-19.478a7.701 7.701 0 0 0-3.505-.838h-51.786a7.695 7.695 0 0 0-3.505.838l29.4 19.478z"/><path fill="#DFE2F7" d="M927.613 280.164v29.081a7.754 7.754 0 0 0 7.754 7.756h51.786a7.755 7.755 0 0 0 7.754-7.756v-29.081a7.71 7.71 0 0 0-1.601-4.716l-32.044 21.234-32.047-21.234a7.705 7.705 0 0 0-1.602 4.716zM1193.516 389.54c3.34-3.08 7.051-2.463 10.052-.143 1.677 1.296 3.84.93 5.632-.203 4.781-3.023 9.234-6.414 12.296-11.832 1.052-1.86 1.669-3.943.409-5.668-5.473-7.492 3.404-16.431 10.867-9.947l4.095 4.211c2.956 2.608 4.744 5.579 2.43 9.642-6.763 11.875-17.06 22.198-31.647 30.814-5.906 3.489-9.634-1.705-13.094-5.266l.004-.003c-3.623-2.872-4.556-8.252-1.044-11.605zM1031.68 408.597c0 .335.007.674.025 1.005.025.648.083 1.286.163 1.916a22.668 22.668 0 0 0 1.773 6.369c.047.108.098.216.145.324.232.504.481.994.745 1.473.058.108.119.216.184.321.297.522.615 1.034.955 1.527.344.508.705 1.001 1.093 1.481a22.57 22.57 0 0 0 1.693 1.887c.637.638 1.31 1.239 2.019 1.798a23.168 23.168 0 0 0 14.384 5.017l.043.002.038-.002a23.156 23.156 0 0 0 14.389-5.017 22.657 22.657 0 0 0 2.019-1.798 22.552 22.552 0 0 0 1.693-1.887c.387-.479.749-.973 1.093-1.481.34-.493.658-1.005.955-1.527.065-.104.127-.213.185-.321a22.306 22.306 0 0 0 .893-1.797c.318-.72.601-1.459.847-2.212.156-.486.3-.98.423-1.481a22.745 22.745 0 0 0 .503-2.676c.08-.63.138-1.268.163-1.916.014-.331.022-.67.022-1.005 0-.087 0-.173-.004-.259a21.115 21.115 0 0 0-.065-1.477c-.004-.079-.007-.155-.015-.234a22.763 22.763 0 0 0-1.606-6.692l-.174-.411c-.199-.472-.42-.933-.651-1.387l-.217-.411a22.981 22.981 0 0 0-2.775-4.06 21.067 21.067 0 0 0-1.374-1.48 18.77 18.77 0 0 0-.785-.739 23.16 23.16 0 0 0-15.554-5.972 23.174 23.174 0 0 0-16.34 6.711c-.347.342-.687.695-1.009 1.059-.123.141-.246.281-.365.421a22.806 22.806 0 0 0-2.779 4.06l-.217.411a22.49 22.49 0 0 0-.651 1.387l-.174.411c-.141.353-.279.706-.402 1.07a22.667 22.667 0 0 0-.977 3.825 22.612 22.612 0 0 0-.228 1.797 4.588 4.588 0 0 0-.014.234 19.73 19.73 0 0 0-.065 1.477c-.004.086-.004.172-.004.259zm3.632-7.593h5.735a34.671 34.671 0 0 0-.784 5.857h-6.308c.004-.079.011-.155.018-.234a20.66 20.66 0 0 1 .25-1.797 20.347 20.347 0 0 1 1.089-3.826zm7.006 7.334h4.575l-.003.315c0 1.893.079 3.75.231 5.542h-4.362a33.61 33.61 0 0 1-.448-5.49c.001-.123.005-.245.007-.367zm24.727 5.857h-4.362c.152-1.791.231-3.649.231-5.542l-.003-.315h4.575c.001.123.006.244.006.368a33.508 33.508 0 0 1-.447 5.489zm-18.336-5.857H1054v5.857h-5.039a59.821 59.821 0 0 1-.255-5.542c0-.106.002-.21.003-.315zm12.134 5.857h-5.039v-5.857h5.291l.002.315a59.483 59.483 0 0 1-.254 5.542zM1054 392.186h-2.551c.754-1.67 1.623-2.821 2.551-3.28v3.28zm4.355 0h-2.551v-3.28c.929.458 1.797 1.609 2.551 3.28zm.59 1.48c.585 1.649 1.076 3.636 1.441 5.857h-4.582v-5.857h3.141zm1.662 7.338c.245 1.838.404 3.809.464 5.857h-5.266v-5.857h4.802zm.078 14.671c-.259 2.146-.632 4.124-1.093 5.857h-3.788v-5.857h4.881zm-1.528 7.338c-.91 2.806-2.074 4.755-3.353 5.387v-5.387h3.353zm-8.51 0H1054v5.387c-1.279-.632-2.443-2.581-3.353-5.387zm-.435-1.481c-.461-1.733-.834-3.711-1.093-5.857H1054v5.857h-3.788zm-1.478-14.671c.06-2.048.219-4.019.464-5.857H1054v5.857h-5.266zm.685-7.338c.365-2.221.856-4.208 1.441-5.857h3.14v5.857h-4.581zm-1.879 0h-3.934c.657-2.2 1.542-4.179 2.603-5.857h2.605c-.531 1.765-.957 3.741-1.274 5.857zm-.288-7.337c1.042-1.322 2.211-2.381 3.472-3.117-.511.873-.987 1.915-1.42 3.117h-2.052zm15.3 0h-2.052c-.433-1.202-.909-2.244-1.42-3.117 1.262.736 2.431 1.794 3.472 3.117zm1.043 1.48c1.061 1.678 1.947 3.657 2.603 5.857h-3.934c-.317-2.116-.743-4.092-1.274-5.857h2.605zm3.001 7.338c.445 1.839.735 3.805.845 5.857h-4.552a62.128 62.128 0 0 0-.423-5.857h4.13zm.169 14.671c-.46 2.134-1.126 4.107-1.956 5.857h-3.258c.426-1.808.758-3.778.987-5.857h4.227zm-2.729 7.338c-1.383 2.413-3.11 4.278-5.05 5.382.638-1.056 1.225-2.366 1.743-3.925.156-.469.302-.957.442-1.457h2.865zm-18.267 0h2.865c.14.501.287.989.442 1.457.517 1.558 1.104 2.869 1.742 3.924-1.939-1.103-3.666-2.969-5.049-5.381zm-.773-1.481c-.831-1.75-1.496-3.723-1.956-5.857h4.227c.229 2.079.561 4.049.987 5.857h-3.258zm-2.632-14.671c.11-2.052.4-4.018.845-5.857h4.13a62.128 62.128 0 0 0-.423 5.857h-4.552zm-2.178-13.195h3.579c-.975 1.772-1.761 3.745-2.344 5.857h-5.461c.232-.472.478-.936.742-1.387.08-.137.159-.274.242-.411a21.125 21.125 0 0 1 3.242-4.059zm2.681-2.219a20.992 20.992 0 0 1 4.242-2.283 18.131 18.131 0 0 0-2.453 3.022h-2.781c.323-.26.655-.505.992-.739zm25.063.739h-2.781a18.131 18.131 0 0 0-2.453-3.022 21 21 0 0 1 4.243 2.283c.336.234.669.479.991.739zm5.919 7.337h-5.465c-.583-2.112-1.369-4.085-2.344-5.857h3.576a20.956 20.956 0 0 1 3.245 4.06c.083.137.167.274.246.411.264.45.51.914.742 1.386zm2.004 7.338h-6.312a34.671 34.671 0 0 0-.784-5.857h5.736a20.38 20.38 0 0 1 1.089 3.825c.112.591.195 1.189.253 1.797.007.08.014.155.018.235zm-.694 7.334h-5.984c.275-1.776.417-3.616.417-5.49 0-.123-.004-.245-.005-.368h6.336c.003.087.003.173.003.259a20.783 20.783 0 0 1-.767 5.599zm-3.749 7.337h-4.295a29.87 29.87 0 0 0 1.794-5.857h5.779a20.899 20.899 0 0 1-1.966 4.009c-.069.108-.137.216-.21.321a18.988 18.988 0 0 1-1.102 1.527zm-5.97 5.166c-.765.443-1.561.836-2.382 1.182a18.8 18.8 0 0 0 2.368-3.081c.355-.571.688-1.168 1.001-1.786h3.695a20.748 20.748 0 0 1-2.055 1.887 20.801 20.801 0 0 1-2.627 1.798zm-25.757-3.685h3.694a23.11 23.11 0 0 0 1.001 1.786 18.817 18.817 0 0 0 2.37 3.082 20.796 20.796 0 0 1-2.383-1.183 20.801 20.801 0 0 1-2.627-1.798 20.758 20.758 0 0 1-2.055-1.887zm-4.566-7.338h5.779a29.803 29.803 0 0 0 1.794 5.857h-4.294a19.785 19.785 0 0 1-1.104-1.527c-.072-.104-.141-.213-.21-.321-.3-.479-.586-.969-.847-1.473-.058-.108-.112-.216-.166-.324a20.81 20.81 0 0 1-.952-2.212zm-.47-1.48a19.218 19.218 0 0 1-.561-2.676 19.79 19.79 0 0 1-.203-2.921c0-.087 0-.173.004-.259h6.332c-.001.123-.005.245-.005.368 0 1.874.142 3.714.417 5.49h-5.984z"/><path fill="#C8CBE3" d="M696.867 316.325c-4.061 0-7.137-1.155-9.236-3.464-2.099-2.309-3.149-5.212-3.149-8.712 0-3.496 1.082-6.507 3.254-9.026 2.168-2.519 5.212-3.779 9.131-3.779 4.057 0 7.17 1.295 9.342 3.884 2.168 2.591 3.254 5.635 3.254 9.131 0 3.221-1.086 6.019-3.254 8.397-2.172 2.378-5.285 3.569-9.342 3.569zm3.568-37.366h-7.347l-6.508-69.711a141.518 141.518 0 0 0-.525-7.009c-.21-2.018-.315-3.788-.315-5.304 0-3.534.768-6.503 2.309-8.903 1.538-2.398 4.477-3.599 8.817-3.599 4.057 0 6.927 1.202 8.607 3.599 1.68 2.4 2.519 5.493 2.519 9.282 0 1.643-.036 3.505-.105 5.588a67.213 67.213 0 0 1-.525 6.346l-6.927 69.711z"/><path fill="#D94559" d="m690.004 474.155 1.654-28.297 9.605.975.396-18.465 7.874 4.317.88-14.128s8.943 3.236 9.099 4.134c.155.898-6.239 20.524-6.239 20.524l-4.57-4.457-.926 16.182-11.116-2.892-6.657 22.107zM727.597 496.454l13.578-17.462 5.744 4.875 8.42-11.697 3.154 6.258 6.814-8.695s4.319 6.036 4.022 6.682c-.297.646-13.088 10.437-13.088 10.437l-.967-4.887-7.752 9.995-5.868-6.775-14.057 11.269zM685.12 564.697l19.549 7.046-2.682 6.549 12.898 4.117-4.672 4.638 9.749 3.556s-4.134 5.615-4.798 5.537-13.132-8.653-13.132-8.653l4.084-2.286-11.184-4.016 4.344-7.213-14.156-9.275z"/><path fill="#3A67B3" d="M193.938 518.99h-.001a.54.54 0 0 1-.539-.541c0-.023.008-2.402.358-6.505a.527.527 0 0 1 .583-.492.54.54 0 0 1 .492.583c-.346 4.052-.354 6.392-.354 6.415 0 .299-.241.54-.539.54zM195.964 499.586a.54.54 0 0 1-.533-.629c.719-4.249 1.61-8.566 2.649-12.83a.54.54 0 0 1 1.049.255 182.81 182.81 0 0 0-2.633 12.755.54.54 0 0 1-.532.449zm6.171-25.367a.54.54 0 0 1-.514-.703 186.798 186.798 0 0 1 4.411-12.331.538.538 0 1 1 1.002.4 186.367 186.367 0 0 0-4.385 12.26.54.54 0 0 1-.514.374zm9.656-24.247a.541.541 0 0 1-.485-.775 177.757 177.757 0 0 1 6.133-11.57.54.54 0 1 1 .934.54 176.832 176.832 0 0 0-6.095 11.5.54.54 0 0 1-.487.305zm13.073-22.579a.541.541 0 0 1-.445-.844 170.6 170.6 0 0 1 7.806-10.513.54.54 0 0 1 .841.677 169.846 169.846 0 0 0-7.756 10.446.54.54 0 0 1-.446.234zm16.348-20.325a.54.54 0 0 1-.393-.909c2.973-3.16 6.113-6.25 9.332-9.182a.54.54 0 1 1 .726.798 169.143 169.143 0 0 0-9.273 9.124.537.537 0 0 1-.392.169zm168.196-3.114-.227-.002a.54.54 0 0 1-.532-.548c.004-.298.223-.561.548-.532l.211.002c3.752-.001 7.669-1.368 11.64-4.064a.539.539 0 1 1 .606.892c-4.153 2.821-8.274 4.251-12.246 4.252zm-11.567-5.555a.537.537 0 0 1-.415-.194c-2.688-3.232-4.361-7.603-4.711-12.309a.54.54 0 0 1 .498-.578.529.529 0 0 1 .578.498c.334 4.483 1.92 8.638 4.464 11.698a.539.539 0 0 1-.414.885zm32.057-8.199a.54.54 0 0 1-.506-.729c.513-1.365.773-2.783.773-4.214-.001-2.546-.81-5.161-2.407-7.772a.54.54 0 0 1 .921-.563c1.702 2.783 2.565 5.587 2.565 8.335 0 1.561-.283 3.107-.841 4.593a.54.54 0 0 1-.505.35zm-169.407-.698a.54.54 0 0 1-.333-.965 177.953 177.953 0 0 1 10.608-7.667.538.538 0 1 1 .599.897 177.788 177.788 0 0 0-10.543 7.621.54.54 0 0 1-.331.114zm21.679-14.506a.54.54 0 0 1-.268-1.008c3.804-2.165 7.711-4.2 11.612-6.048a.538.538 0 0 1 .718.257.538.538 0 0 1-.257.718 174.156 174.156 0 0 0-11.54 6.012.546.546 0 0 1-.265.069zm113.294-1.341a.54.54 0 0 1-.497-.751c1.682-3.936 4.211-7.579 7.518-10.827a.541.541 0 0 1 .757.771c-3.206 3.149-5.656 6.675-7.281 10.481a.543.543 0 0 1-.497.326zm23.659-5.154a.54.54 0 0 1-.314-.101c-3.222-2.306-7.018-4.427-11.281-6.307a.54.54 0 1 1 .435-.987c4.331 1.909 8.19 4.068 11.473 6.417a.54.54 0 0 1-.313.978zm-113.375-4.668a.54.54 0 0 1-.193-1.044 164.93 164.93 0 0 1 12.407-4.19.54.54 0 0 1 .305 1.035 164.108 164.108 0 0 0-12.325 4.163.558.558 0 0 1-.194.036zm89.703-6.059a.53.53 0 0 1-.146-.02 114.522 114.522 0 0 0-12.691-2.774.54.54 0 0 1 .172-1.066c4.42.713 8.731 1.655 12.811 2.8a.54.54 0 0 1-.146 1.06zm-64.675-1.284a.54.54 0 0 1-.109-1.069 156.546 156.546 0 0 1 12.926-2.112.539.539 0 1 1 .128 1.072 155.372 155.372 0 0 0-12.837 2.097.436.436 0 0 1-.108.012zm82.454-1.382a.54.54 0 0 1-.291-.994c3.44-2.194 7.292-4.344 11.448-6.391a.54.54 0 0 1 .476.968c-4.12 2.029-7.937 4.159-11.344 6.332a.54.54 0 0 1-.289.085zm-43.505-1.542-.033-.001a142.277 142.277 0 0 0-13.002-.174.56.56 0 0 1-.556-.522.538.538 0 0 1 .522-.556 142.31 142.31 0 0 1 13.101.175.539.539 0 0 1-.032 1.078zm66.834-10.127a.539.539 0 0 1-.202-1.039c3.716-1.503 7.722-3.01 12.247-4.606a.54.54 0 0 1 .36 1.018c-4.51 1.59-8.501 3.091-12.202 4.588a.542.542 0 0 1-.203.039zm24.608-8.78a.54.54 0 0 1-.168-1.052c2.616-.855 5.234-1.7 7.844-2.542l4.591-1.483a.54.54 0 1 1 .333 1.027l-4.593 1.483c-2.608.842-5.225 1.685-7.84 2.54a.504.504 0 0 1-.167.027zm24.837-8.144a.539.539 0 0 1-.176-1.05c4.609-1.589 8.614-3.059 12.243-4.494a.54.54 0 1 1 .397 1.003c-3.645 1.441-7.665 2.917-12.289 4.511a.537.537 0 0 1-.175.03zm24.226-9.749a.538.538 0 0 1-.239-1.023c4.259-2.097 7.941-4.206 11.256-6.447a.539.539 0 1 1 .605.893c-3.357 2.27-7.081 4.403-11.384 6.522a.548.548 0 0 1-.238.055zm21.296-14.836a.539.539 0 0 1-.393-.909c3.053-3.247 5.497-6.787 7.264-10.522a.54.54 0 0 1 .976.462c-1.815 3.837-4.323 7.471-7.453 10.799a.542.542 0 0 1-.394.17zm10.877-23.115a.54.54 0 0 1-.536-.603c.107-.912.187-1.852.239-2.793.075-1.368.113-2.74.113-4.078 0-2.047-.089-4.08-.266-6.043a.54.54 0 0 1 1.075-.097c.179 1.995.27 4.061.27 6.14 0 1.357-.038 2.749-.115 4.137a45.524 45.524 0 0 1-.244 2.86.54.54 0 0 1-.536.477zm-2.464-25.781a.54.54 0 0 1-.514-.374 53.12 53.12 0 0 0-5.396-11.69.54.54 0 1 1 .918-.568 54.274 54.274 0 0 1 5.506 11.927.54.54 0 0 1-.514.705zm-13.542-22.003a.54.54 0 0 1-.383-.159c-2.92-2.937-6.274-5.708-9.969-8.235a.54.54 0 0 1 .609-.891c3.751 2.565 7.158 5.379 10.125 8.364a.54.54 0 0 1-.382.921zm-21.35-14.812a.534.534 0 0 1-.235-.054c-3.726-1.81-7.765-3.482-12.002-4.97a.54.54 0 1 1 .358-1.018c4.277 1.501 8.353 3.189 12.116 5.017a.54.54 0 0 1-.237 1.025zm-24.567-8.735a.542.542 0 0 1-.132-.016 175.044 175.044 0 0 0-12.743-2.694.538.538 0 0 1-.439-.624.542.542 0 0 1 .624-.439c4.414.767 8.728 1.679 12.822 2.711a.54.54 0 0 1 .392.655.542.542 0 0 1-.524.407zM454.494 202.939a.578.578 0 0 1-.058-.003 218.702 218.702 0 0 0-6.431-.593.539.539 0 0 1-.496-.58.53.53 0 0 1 .58-.496c2.155.167 4.329.368 6.463.597a.54.54 0 0 1-.058 1.075z"/><path fill="#21488A" d="m457.235 203.931-16.975-1.278 6.226-7.846z"/><path fill="#3A67B3" d="m441.207 205.528-21.051-9.446 27.355 2.474zM420.139 196.053l35.92-11.07-5.881 7.161z"/><path fill="#335B9E" d="m420.156 196.082 27.403 2.555 9.676 5.294-7.039-11.912z"/><path fill="#3A67B3" d="M1197.528 518.99h.001a.54.54 0 0 0 .539-.541c0-.023-.008-2.402-.358-6.505a.527.527 0 0 0-.583-.492.54.54 0 0 0-.492.583c.346 4.052.354 6.392.354 6.415 0 .299.241.54.539.54zM1194.97 499.136a183.39 183.39 0 0 0-2.633-12.755.54.54 0 1 1 1.049-.255c1.039 4.264 1.93 8.58 2.649 12.83a.54.54 0 0 1-1.065.18zm-6.153-25.293a185.996 185.996 0 0 0-4.385-12.26.54.54 0 1 1 1.002-.4 187.003 187.003 0 0 1 4.411 12.331.54.54 0 0 1-1.028.329zm-9.628-24.175a177.091 177.091 0 0 0-6.095-11.5.539.539 0 0 1 .197-.737.536.536 0 0 1 .737.197c2.167 3.747 4.23 7.64 6.133 11.57a.54.54 0 0 1-.972.47zm-13.033-22.51a169.846 169.846 0 0 0-7.756-10.446.54.54 0 0 1 .841-.677 170.904 170.904 0 0 1 7.806 10.513.54.54 0 0 1-.891.61zm-16.295-20.26a169.143 169.143 0 0 0-9.273-9.124.54.54 0 0 1 .727-.798 170.578 170.578 0 0 1 9.332 9.182.54.54 0 0 1-.786.74zm-180.049-7.195a.538.538 0 1 1 .606-.892c3.971 2.696 7.887 4.063 11.64 4.064l.211-.002c.325-.03.543.234.547.532a.541.541 0 0 1-.532.548l-.227.002c-3.971-.002-8.092-1.432-12.245-4.252zm23.468-1.429a.54.54 0 0 1-.07-.76c2.545-3.061 4.13-7.215 4.464-11.698a.53.53 0 0 1 .578-.498.54.54 0 0 1 .498.578c-.35 4.705-2.023 9.076-4.711 12.309a.537.537 0 0 1-.759.069zm-32.217-8.424a13.032 13.032 0 0 1-.841-4.593c.001-2.748.864-5.552 2.565-8.335a.54.54 0 1 1 .921.563c-1.597 2.611-2.407 5.226-2.407 7.772 0 1.431.26 2.849.773 4.214a.54.54 0 0 1-1.011.379zm169.58-.463a178.116 178.116 0 0 0-10.543-7.621.539.539 0 1 1 .599-.897 179.058 179.058 0 0 1 10.608 7.667.538.538 0 0 1-.333.965.532.532 0 0 1-.331-.114zm-21.614-14.462a174.404 174.404 0 0 0-11.54-6.012.54.54 0 1 1 .461-.975 175.855 175.855 0 0 1 11.613 6.048.54.54 0 1 1-.534.939zm-113.523-1.598c-1.626-3.806-4.075-7.332-7.281-10.481a.541.541 0 0 1 .757-.771c3.307 3.248 5.836 6.891 7.518 10.827a.54.54 0 0 1-.994.425zm-23.602-5.051a.54.54 0 0 1 .125-.753c3.283-2.349 7.143-4.508 11.473-6.417a.54.54 0 1 1 .435.987c-4.263 1.88-8.058 4.001-11.281 6.307a.538.538 0 0 1-.752-.124zm113.622-4.479a164.738 164.738 0 0 0-12.326-4.163.54.54 0 1 1 .305-1.035 165.082 165.082 0 0 1 12.407 4.19.54.54 0 0 1-.386 1.008zm-90.03-6.417a.54.54 0 0 1 .374-.666 115.956 115.956 0 0 1 12.811-2.8.541.541 0 0 1 .172 1.066c-4.38.706-8.65 1.639-12.691 2.774a.539.539 0 0 1-.666-.374zm65.084-.901a155.234 155.234 0 0 0-12.837-2.097.541.541 0 0 1 .128-1.072c4.298.517 8.648 1.228 12.926 2.112a.54.54 0 0 1-.108 1.069.596.596 0 0 1-.109-.012zm-82.634-1.456c-3.407-2.173-7.224-4.303-11.344-6.332a.54.54 0 0 1 .476-.968c4.156 2.047 8.008 4.197 11.448 6.391a.539.539 0 1 1-.58.909zm43.257-1.964a.54.54 0 0 1 .506-.571c4.292-.258 8.711-.318 13.101-.175a.539.539 0 0 1 .522.556c-.009.298-.289.529-.556.522-4.361-.14-8.744-.081-13.002.174l-.033.001a.539.539 0 0 1-.538-.507zm-66.498-9.659c-3.701-1.497-7.692-2.998-12.202-4.588a.54.54 0 1 1 .36-1.018c4.526 1.596 8.531 3.103 12.248 4.606a.54.54 0 1 1-.406 1zm-24.574-8.768c-2.615-.855-5.232-1.698-7.839-2.54l-4.594-1.483a.54.54 0 1 1 .333-1.027l4.591 1.483c2.609.842 5.228 1.686 7.844 2.542a.54.54 0 0 1-.335 1.025zm-24.845-8.147c-4.624-1.594-8.644-3.07-12.289-4.511a.54.54 0 1 1 .397-1.003c3.629 1.435 7.634 2.905 12.243 4.494a.54.54 0 0 1-.351 1.02zm-24.288-9.774c-4.304-2.119-8.028-4.252-11.384-6.522a.539.539 0 1 1 .605-.893c3.315 2.241 6.997 4.35 11.256 6.447a.539.539 0 1 1-.477.968zm-21.451-14.951c-3.131-3.329-5.638-6.962-7.453-10.799a.541.541 0 0 1 .976-.462c1.766 3.735 4.21 7.275 7.264 10.522a.539.539 0 1 1-.787.739zm-11.02-23.422a45.524 45.524 0 0 1-.244-2.86 75.97 75.97 0 0 1-.115-4.137c0-2.079.091-4.145.27-6.14a.54.54 0 0 1 1.075.097 67.555 67.555 0 0 0-.266 6.043c0 1.338.038 2.71.113 4.078.052.942.132 1.882.239 2.793a.54.54 0 0 1-1.072.126zm2.835-25.33a.54.54 0 0 1-.348-.679 54.206 54.206 0 0 1 5.506-11.927.54.54 0 0 1 .918.568 53.12 53.12 0 0 0-5.396 11.69.54.54 0 0 1-.68.348zm13.326-22.134a.54.54 0 0 1-.002-.763c2.967-2.985 6.374-5.8 10.125-8.364a.54.54 0 0 1 .609.891c-3.695 2.527-7.05 5.297-9.969 8.235a.537.537 0 0 1-.763.001zm21.245-14.959a.54.54 0 0 1 .25-.721c3.763-1.828 7.84-3.516 12.116-5.017a.54.54 0 0 1 .358 1.018c-4.238 1.488-8.276 3.16-12.002 4.97a.54.54 0 0 1-.722-.25zm24.53-8.839a.54.54 0 0 1 .391-.655 176.041 176.041 0 0 1 12.822-2.711.539.539 0 1 1 .184 1.063 174.932 174.932 0 0 0-12.743 2.694.537.537 0 0 1-.654-.391zM936.971 202.939a.578.578 0 0 0 .058-.003c2.124-.228 4.287-.427 6.432-.593a.539.539 0 0 0 .496-.58.53.53 0 0 0-.58-.496c-2.155.167-4.329.368-6.463.597a.54.54 0 0 0 .057 1.075z"/><path fill="#21488A" d="m934.231 203.931 16.975-1.278-6.226-7.846z"/><path fill="#3A67B3" d="m950.258 205.528 21.052-9.446-27.355 2.474zM971.327 196.053l-35.92-11.07 5.881 7.161z"/><path fill="#335B9E" d="m971.31 196.082-27.403 2.555-9.676 5.294 7.039-11.912z"/><path fill="#D94559" d="M335.381 496.683c.163.263.215.58.139.892a1.16 1.16 0 0 1-.811.847l-3.929 1.146a1.158 1.158 0 0 1-1.139-.279 1.16 1.16 0 0 1-.328-1.126l.972-3.976a1.16 1.16 0 0 1 .811-.847 1.16 1.16 0 0 1 1.139.279l2.957 2.83c.074.071.137.15.189.234zm-5.142 1.888a.244.244 0 0 0 .282.11l3.929-1.146a.247.247 0 0 0 .103-.417l-2.957-2.83a.242.242 0 0 0-.241-.059.246.246 0 0 0-.172.179l-.972 3.976a.231.231 0 0 0 .028.187zM1058.51 269.699c.163.263.215.58.139.892a1.16 1.16 0 0 1-.811.847l-3.929 1.146a1.158 1.158 0 0 1-1.139-.279 1.16 1.16 0 0 1-.328-1.126l.972-3.976a1.16 1.16 0 0 1 .811-.847 1.16 1.16 0 0 1 1.139.279l2.957 2.83c.073.071.137.15.189.234zm-5.143 1.888a.244.244 0 0 0 .282.11l3.929-1.146a.247.247 0 0 0 .103-.417l-2.957-2.83a.242.242 0 0 0-.241-.059.246.246 0 0 0-.172.179l-.972 3.976a.24.24 0 0 0 .028.187z"/><path fill="#FFB86B" d="m340.994 271.764 1.445-1.445a.84.84 0 0 0-1.188-1.188l-1.445 1.445-1.445-1.445a.84.84 0 0 0-1.188 1.188l1.445 1.445-1.443 1.443a.84.84 0 0 0 1.188 1.188l1.443-1.443 1.443 1.443a.837.837 0 0 0 1.188 0 .84.84 0 0 0 0-1.188l-1.443-1.443zM844.704 420.746l1.445-1.445a.84.84 0 0 0-1.188-1.188l-1.445 1.445-1.445-1.445a.84.84 0 0 0-1.188 1.188l1.445 1.445-1.443 1.443a.84.84 0 0 0 1.188 1.188l1.443-1.443 1.443 1.443a.837.837 0 0 0 1.188 0 .84.84 0 0 0 0-1.188l-1.443-1.443z"/><path fill="#4E80C2" d="M148.346 426.314a3.305 3.305 0 0 1-3.301-3.301 3.305 3.305 0 0 1 3.301-3.301 3.305 3.305 0 0 1 3.301 3.301 3.305 3.305 0 0 1-3.301 3.301zm0-5.569a2.27 2.27 0 0 0-2.268 2.268 2.27 2.27 0 0 0 2.268 2.268 2.27 2.27 0 0 0 2.268-2.268 2.27 2.27 0 0 0-2.268-2.268zM821.846 210.785a3.305 3.305 0 0 1-3.301-3.301 3.305 3.305 0 0 1 3.301-3.301 3.305 3.305 0 0 1 3.301 3.301 3.304 3.304 0 0 1-3.301 3.301zm0-5.569a2.27 2.27 0 0 0-2.268 2.268 2.27 2.27 0 0 0 2.268 2.268 2.27 2.27 0 0 0 2.268-2.268 2.27 2.27 0 0 0-2.268-2.268zM1108.223 486.395a3.305 3.305 0 0 1-3.301-3.301 3.305 3.305 0 0 1 3.301-3.301 3.305 3.305 0 0 1 3.301 3.301 3.305 3.305 0 0 1-3.301 3.301zm0-5.569a2.27 2.27 0 0 0-2.268 2.268c0 1.251 1.018 2.268 2.268 2.268s2.268-1.018 2.268-2.268a2.27 2.27 0 0 0-2.268-2.268zM543.298 387.349a3.305 3.305 0 0 1-3.301-3.301 3.305 3.305 0 0 1 3.301-3.301 3.305 3.305 0 0 1 3.301 3.301 3.305 3.305 0 0 1-3.301 3.301zm0-5.569a2.27 2.27 0 0 0-2.268 2.268 2.27 2.27 0 0 0 2.268 2.268 2.27 2.27 0 0 0 2.268-2.268 2.271 2.271 0 0 0-2.268-2.268z"/></svg>