<svg xmlns="http://www.w3.org/2000/svg" viewBox="0 0 1364 960"><linearGradient id="a" x1="752.944" x2="760.991" y1="160.017" y2="165.303" gradientUnits="userSpaceOnUse"><stop offset="0" stop-color="#ff9666"/><stop offset="1" stop-color="#c42d40"/></linearGradient><path fill="url(#a)" d="M760.05 161.343c.202.326.267.72.172 1.108a1.443 1.443 0 0 1-1.007 1.053l-4.88 1.423a1.443 1.443 0 0 1-1.415-.346 1.443 1.443 0 0 1-.408-1.398l1.207-4.938a1.44 1.44 0 0 1 1.007-1.052 1.444 1.444 0 0 1 1.415.346l3.672 3.514c.094.088.172.186.237.29zm-6.386 2.345a.31.31 0 0 0 .35.136l4.88-1.423a.304.304 0 0 0 .213-.223.302.302 0 0 0-.086-.296l-3.673-3.515a.302.302 0 0 0-.299-.073.304.304 0 0 0-.213.223l-1.207 4.938a.295.295 0 0 0 .035.233z"/><ellipse cx="616.253" cy="658.118" fill="#DDE1F5" rx="46.835" ry="11.346"/><path fill="#DDE1F5" d="m700.375 518.032-52.353 30.425 62.204 35.913 52.353-30.425z"/><linearGradient id="b" x1="454.368" x2="722.555" y1="656.379" y2="511.635" gradientUnits="userSpaceOnUse"><stop offset="0" stop-color="#abdcff"/><stop offset="1" stop-color="#73b2ff"/></linearGradient><path fill="url(#b)" d="M637.694 552.603c.045 15.914-20.552 38.873-55.543 59.074-47.907 27.659-104.654 39.677-126.748 26.837-5.956-3.461-8.785-8.376-8.802-14.25l.034 11.903c.017 5.874 2.846 10.788 8.802 14.25 22.094 12.839 78.84.822 126.748-26.837 34.99-20.202 55.588-43.16 55.542-59.074l-.033-11.903z"/><linearGradient id="c" x1="446.602" x2="637.694" y1="588.433" y2="588.433" gradientUnits="userSpaceOnUse"><stop offset="0" stop-color="#abdcff"/><stop offset="1" stop-color="#73b2ff"/></linearGradient><path fill="url(#c)" d="M628.891 538.352c-22.094-12.84-78.834-.826-126.742 26.834-47.907 27.659-68.839 60.49-46.745 73.329 22.094 12.839 78.84.822 126.748-26.837 47.907-27.66 68.833-60.487 46.739-73.326z"/><linearGradient id="d" x1="504.11" x2="504.11" y1="475.417" y2="626.194" gradientUnits="userSpaceOnUse"><stop offset="0" stop-color="#abdcff"/><stop offset="1" stop-color="#73b2ff"/></linearGradient><path fill="url(#d)" d="m513.088 527.187-18.208-10.581.252 88.578 18.207 10.581z"/><linearGradient id="e" x1="548.337" x2="548.337" y1="470.502" y2="665.693" gradientUnits="userSpaceOnUse"><stop offset="0" stop-color="#abdcff"/><stop offset="1" stop-color="#73b2ff"/></linearGradient><path fill="url(#e)" d="m583.585 575.208-.251-88.578-70.246 40.557.251 88.578z"/><path fill="#FFF" d="M747.554 358.098c.012 4.105-2.871 9.087-6.423 11.139l-11.266 6.504-29.429 16.986-14.784 8.545-2.975 1.718-29.429 16.986-14.887 8.603-2.883 1.66-29.429 16.986-15.003 8.66-2.768 1.603-29.429 16.986-15.107 8.73-2.652 1.522-29.429 16.998-15.21 8.787-2.56 1.476-29.429 16.986-15.326 8.845-96.439 55.686c-3.563 2.053-6.458.392-6.469-3.713l-.311-111.569-.3-105.676-.012-5.697-.023-7.288-.092-31.009-.023-9.041c-.012-4.105 2.86-9.087 6.423-11.151l7.957-4.59 5.005-2.894 19.627-11.324.184-.115 4.705-2.71 17.782-10.275 5.016-2.894 19.615-11.324.069-.034 4.82-2.791 17.782-10.263 5.016-2.894 19.581-11.301.023-.023 4.901-2.825 17.782-10.263 5.016-2.894 19.465-11.243.138-.081 4.901-2.825 17.77-10.263.011-.012 5.016-2.894 19.362-11.174.242-.138 4.901-2.825 17.782-10.275 5.016-2.894 19.604-11.313 4.901-2.837 114.429-66.065c3.563-2.053 6.458-.392 6.469 3.702l.776 270.289z"/><linearGradient id="f" x1="759.942" x2="166.764" y1="43.156" y2="890.864" gradientUnits="userSpaceOnUse"><stop offset="0" stop-color="#abdcff"/><stop offset="1" stop-color="#73b2ff"/></linearGradient><path fill="url(#f)" d="M756.859 71.857c-.011-3.841-2.731-5.396-6.084-3.46L343.826 303.348c-3.348 1.933-6.055 6.622-6.045 10.463l.871 307.105c.011 3.847 2.736 5.4 6.084 3.467l168.351-97.198 70.246-40.557 168.351-97.198c3.353-1.936 6.055-6.622 6.045-10.47l-.87-307.103zm-15.733 297.386L352.699 593.501c-3.562 2.057-6.458.4-6.47-3.706l-.766-270.282c-.012-4.1 2.865-9.09 6.427-11.147L740.317 84.109c3.557-2.054 6.453-.397 6.465 3.703l.766 270.282c.012 4.105-2.865 9.095-6.422 11.149z"/><linearGradient id="g" x1="332.919" x2="876.938" y1="169.681" y2="623.03" gradientUnits="userSpaceOnUse"><stop offset="0" stop-color="#abdcff"/><stop offset="1" stop-color="#73b2ff"/></linearGradient><path fill="url(#g)" d="M736.884 57.392c-1.102-.64-2.629-.55-4.317.424L325.619 292.767c-3.348 1.933-6.056 6.622-6.045 10.463l.871 307.106c.005 1.911.681 3.256 1.769 3.889l18.207 10.581c-1.089-.633-1.764-1.978-1.769-3.889l-.871-307.106c-.011-3.841 2.696-8.53 6.045-10.463L750.775 68.396c1.688-.974 3.215-1.064 4.317-.424l-18.208-10.58z"/><path fill="#E5EBF5" d="M701.916 88.718c-.032-11.265-7.436-16.128-16.541-10.87L390.712 247.972c-9.099 5.253-16.45 18.634-16.418 29.899l.653 230.234c.032 11.256 7.435 16.163 16.534 10.909L686.144 348.89c9.106-5.257 16.458-18.682 16.426-29.939l-.654-230.233z"/><linearGradient id="h" x1="387.395" x2="715.671" y1="278.072" y2="278.072" gradientUnits="userSpaceOnUse"><stop offset="0" stop-color="#326ab3"/><stop offset="1" stop-color="#003780"/></linearGradient><path fill="url(#h)" d="M715.018 68.364c-.032-11.265-7.436-16.128-16.541-10.87L403.813 227.618c-9.099 5.253-16.45 18.634-16.418 29.899l.653 230.234c.032 11.256 7.435 16.163 16.534 10.909l294.663-170.124c9.106-5.257 16.458-18.682 16.426-29.939l-.653-230.233zm-90.64 43.168 63.182-36.478c1.638-.946 2.969-.187 2.974 1.695.006 1.873-1.317 4.164-2.955 5.109l-63.181 36.478c-1.638.946-2.961.183-2.967-1.691-.005-1.881 1.309-4.168 2.947-5.113zM444.811 215.205c1.516-.875 2.757-.064 2.762 1.817.005 1.873-1.226 4.111-2.743 4.987-1.516.875-2.749.06-2.754-1.813-.005-1.882 1.219-4.116 2.735-4.991zm-13.928 8.041c1.517-.876 2.757-.064 2.762 1.817.005 1.873-1.226 4.111-2.743 4.987-1.516.875-2.757.064-2.762-1.809-.005-1.881 1.226-4.119 2.743-4.995zm-13.929 8.042c1.516-.875 2.749-.06 2.754 1.822.005 1.873-1.218 4.107-2.735 4.982-1.517.876-2.757.064-2.762-1.809-.004-1.881 1.227-4.12 2.743-4.995zm278.162 95.505L408.657 492.18c-8.833 5.1-16.036 1.23-16.064-8.702l-.574-202.511c-.028-9.923 7.129-22.128 15.963-27.228L694.44 88.352c8.872-5.122 16.067-1.204 16.095 8.72l.574 202.511c.028 9.932-7.122 22.088-15.993 27.21z"/><linearGradient id="i" x1="468.656" x2="628.5" y1="348.695" y2="348.695" gradientUnits="userSpaceOnUse"><stop offset="0" stop-color="#326ab3"/><stop offset="1" stop-color="#003780"/></linearGradient><path fill="url(#i)" d="m611.652 278.551-126.333 72.938c-9.235 5.332-16.694 18.251-16.663 28.863l.082 28.925c.03 10.612 7.538 14.89 16.773 9.559l126.333-72.938c9.228-5.328 16.687-18.247 16.656-28.859l-.082-28.925c-.03-10.612-7.538-14.89-16.766-9.563zM502.167 392.735l-3.328 1.922-9.588-22.704 3.511-2.027 6.434 16.801a41.52 41.52 0 0 1 1.302 3.873c.375-1.761.818-3.553 1.314-5.384l6.569-24.309 3.313-1.913-9.527 33.741zm12.586-7.267-.08-28.193 17.749-10.248.009 3.319-14.496 8.37.024 8.643 13.572-7.836.009 3.311-13.572 7.836.027 9.592 15.066-8.698.009 3.328-18.317 10.576zm40.398-23.323-3.262-3.99c-.961-1.138-1.745-1.986-2.354-2.533-.616-.543-1.172-.851-1.658-.936a3.446 3.446 0 0 0-1.48.104c-.372.127-.971.43-1.813.915l-3.761 2.171.036 12.52-3.253 1.878-.08-28.193 10.88-6.282c2.191-1.265 3.853-1.971 4.991-2.122 1.139-.151 2.051.221 2.737 1.107.687.887 1.032 2.11 1.036 3.661.006 1.995-.558 4.014-1.676 6.029-1.126 2.029-2.867 3.907-5.216 5.639.858-.024 1.511.07 1.96.273.951.455 1.857 1.18 2.71 2.188l4.291 5.211-4.088 2.36zm7.718-4.457-.079-28.193 3.245-1.874.08 28.193-3.246 1.874zm12.344-23.288 11.517-6.65.009 3.328-11.517 6.65.036 12.807-3.252 1.878-.08-28.193 16.56-9.561.009 3.319-13.307 7.683.025 8.739zm27.701-11.796.034 11.945-3.252 1.878-.034-11.945-9.501-10.79 3.95-2.281 4.862 5.702a41.833 41.833 0 0 1 2.508 3.334 214.34 214.34 0 0 1 2.662-6.529l4.731-11.03 3.784-2.185-9.744 21.901z"/><linearGradient id="j" x1="540.787" x2="553.819" y1="347.158" y2="347.158" gradientUnits="userSpaceOnUse"><stop offset="0" stop-color="#326ab3"/><stop offset="1" stop-color="#003780"/></linearGradient><path fill="url(#j)" d="M553.174 345.283c.43-1.025.647-1.997.645-2.903-.004-1.333-.424-2.19-1.268-2.567-.852-.364-2.18-.033-3.999 1.017l-7.764 4.483.027 9.331 6.976-4.027c1.486-.858 2.646-1.702 3.479-2.541a8.63 8.63 0 0 0 1.904-2.793z"/><path fill="#7DB5FF" d="m445.116 333.519 7.704-4.447-.03-10.42z"/><path fill="#7DB5FF" d="M471.329 300.138c-.021-4.643-3.322-6.495-7.357-4.165l-.014.008-25.953 15.089c-4.049 2.355-7.306 8.023-7.278 12.658l.168 29.774c.028 4.633 3.314 6.49 7.35 4.16l.028-.016 25.946-15.076c4.049-2.355 7.314-8.027 7.285-12.671l-.175-29.761zm-11.496 38.219-6.976 4.027-.017-6.177-14.581 8.418-.021-7.571 14.524-28.335 6.976-4.027.058 20.352 3.617-2.088.02 7.135-3.617 2.088.017 6.178zM505.172 318.769l.028-.016 25.946-15.085c4.049-2.346 7.306-8.023 7.285-12.662l-.176-29.77c-.028-4.633-3.314-6.49-7.35-4.16l-.028.016-25.945 15.076c-4.049 2.355-7.306 8.023-7.278 12.667l.168 29.766c.028 4.632 3.314 6.498 7.35 4.168zm15.692-30.841c-.738-.499-1.71-.392-2.931.313-.774.447-1.516 1.093-2.242 1.949-.531.62-1.12 1.537-1.762 2.736l-6.819 2.803 2.482-19.253 19.008-10.974.021 7.336-12.875 7.433-.676 5.364c.894-.996 1.772-1.861 2.644-2.608s1.727-1.364 2.584-1.859c2.881-1.663 5.219-2.01 7.022-1.044 1.802.966 2.704 2.968 2.713 6.008.006 2.143-.45 4.466-1.37 6.969a22.538 22.538 0 0 1-3.915 6.781c-1.695 2.026-3.862 3.792-6.508 5.32-1.903 1.099-3.534 1.839-4.885 2.201-1.358.365-2.513.421-3.47.145-.95-.272-1.719-.753-2.313-1.457-.594-.695-1.091-1.7-1.49-3.023l8.095-5.694c.202 1.376.667 2.241 1.389 2.601.723.36 1.581.248 2.574-.325 1.115-.643 2.038-1.657 2.763-3.053.718-1.383 1.077-3.039 1.072-4.974-.005-1.969-.373-3.205-1.111-3.695zM585.591 260.576c1.046-.604 1.924-1.573 2.634-2.9.703-1.322 1.047-2.9 1.043-4.712-.006-1.873-.373-3.083-1.112-3.643-.73-.556-1.642-.527-2.733.103-1.115.644-2.046 1.661-2.801 3.049-.74 1.379-1.123 2.961-1.118 4.721.005 1.795.411 2.965 1.195 3.525.79.565 1.754.514 2.892-.143z"/><path fill="#7DB5FF" d="m572.098 279.868.028-.016 25.945-15.076c4.049-2.355 7.306-8.023 7.285-12.671l-.176-29.761c-.028-4.638-3.322-6.495-7.364-4.161l-.014.008-25.946 15.084c-4.049 2.355-7.306 8.023-7.277 12.667l.168 29.766c.03 4.632 3.316 6.49 7.351 4.16zm4.249-38.32c2.176-4.04 5.204-7.185 9.086-9.426 2.29-1.322 4.103-2.063 5.432-2.22 1.337-.161 2.438.093 3.321.762.883.66 1.554 1.756 2.014 3.27l-7.958 5.729c-.201-1.167-.56-1.858-1.054-2.114-.487-.243-1.102-.15-1.814.262-1.304.753-2.303 2.08-3.026 4.008-.513 1.378-.901 3.932-1.133 7.627.945-1.662 1.928-3.059 2.935-4.182a14.368 14.368 0 0 1 3.501-2.815c2.563-1.48 4.742-1.69 6.522-.598 1.78 1.075 2.675 3.238 2.684 6.479.006 2.178-.435 4.431-1.325 6.76a21.181 21.181 0 0 1-3.726 6.253c-1.597 1.847-3.582 3.464-5.978 4.848-2.881 1.663-5.203 2.428-6.95 2.311-1.74-.13-3.14-1.128-4.185-3.003-1.054-1.879-1.578-4.848-1.59-8.926-.019-5.977 1.06-10.989 3.244-15.025zM664.758 179.281l-.028.016-25.945 15.076c-4.049 2.355-7.306 8.023-7.278 12.667l.168 29.774c.028 4.624 3.314 6.49 7.35 4.16l.028-.016 25.946-15.084c4.049-2.346 7.306-8.014 7.285-12.662l-.176-29.77c-.027-4.625-3.314-6.491-7.35-4.161zm-2.24 36.541a22.538 22.538 0 0 1-3.915 6.781c-1.695 2.026-3.862 3.792-6.508 5.32-1.903 1.099-3.534 1.84-4.892 2.205-1.351.361-2.505.416-3.463.14-.95-.272-1.726-.749-2.312-1.457-.594-.695-1.091-1.7-1.49-3.023l8.095-5.694c.201 1.376.667 2.241 1.39 2.601.723.36 1.58.248 2.573-.325 1.115-.644 2.031-1.652 2.755-3.048.725-1.387 1.085-3.044 1.079-4.978-.005-1.969-.373-3.205-1.111-3.695-.738-.499-1.71-.392-2.931.313-.773.446-1.524 1.098-2.243 1.949-.537.624-1.12 1.537-1.762 2.736l-6.82 2.803 2.482-19.253 19.001-10.97.021 7.336-12.867 7.429-.676 5.364a28.39 28.39 0 0 1 2.642-2.608 17.22 17.22 0 0 1 2.577-1.854c2.889-1.668 5.227-2.014 7.03-1.048 1.795.971 2.705 2.968 2.713 6.008.007 2.142-.449 4.465-1.368 6.968z"/><path fill="#FFF" d="M710.535 97.071c-.028-9.923-7.223-13.841-16.095-8.72L407.981 253.739c-8.834 5.1-15.991 17.304-15.963 27.228l.574 202.511c.028 9.932 7.231 13.802 16.064 8.702l286.459-165.387c8.871-5.122 16.021-17.278 15.993-27.21l-.573-202.512zM571.858 233.275l25.946-15.084.014-.008c4.042-2.334 7.336-.478 7.364 4.161l.176 29.761c.021 4.648-3.236 10.316-7.285 12.671l-25.945 15.076-.028.016c-4.036 2.33-7.322.473-7.35-4.16l-.168-29.766c-.03-4.644 3.227-10.312 7.276-12.667zm-66.926 38.893 25.945-15.076.028-.016c4.036-2.33 7.322-.473 7.35 4.16l.176 29.77c.021 4.639-3.237 10.316-7.285 12.662L505.2 318.753l-.028.016c-4.036 2.33-7.322.464-7.35-4.169l-.168-29.766c-.028-4.643 3.229-10.311 7.278-12.666zm-40.713 70.402-25.946 15.076-.028.016c-4.036 2.33-7.322.473-7.35-4.16l-.168-29.774c-.028-4.635 3.229-10.303 7.278-12.658l25.953-15.089a.064.064 0 0 1 .014-.008c4.035-2.33 7.336-.478 7.357 4.165l.176 29.761c.028 4.644-3.237 10.316-7.286 12.671zm147.624 3.328L485.51 418.836c-9.235 5.332-16.743 1.053-16.773-9.559l-.082-28.925c-.03-10.612 7.429-23.531 16.663-28.863l126.333-72.938c9.227-5.328 16.735-1.049 16.765 9.563l.082 28.925c.032 10.612-7.427 23.531-16.655 28.859zm53.156-120.024-25.946 15.084-.028.016c-4.036 2.33-7.322.464-7.35-4.16l-.168-29.774c-.028-4.644 3.229-10.311 7.278-12.667l25.945-15.076.028-.016c4.036-2.33 7.322-.464 7.35 4.16l.176 29.77c.021 4.649-3.236 10.316-7.285 12.663zM444.831 222.009c1.516-.875 2.748-3.114 2.743-4.987-.005-1.882-1.246-2.693-2.762-1.817-1.516.875-2.74 3.109-2.735 4.991.005 1.873 1.237 2.689 2.754 1.813zM430.902 230.051c1.516-.876 2.748-3.114 2.743-4.987-.006-1.882-1.246-2.693-2.762-1.817-1.516.875-2.747 3.114-2.742 4.995.005 1.873 1.245 2.684 2.761 1.809zM416.974 238.092c1.516-.875 2.74-3.109 2.735-4.982-.005-1.882-1.238-2.697-2.754-1.822-1.516.876-2.748 3.114-2.743 4.996.006 1.873 1.245 2.684 2.762 1.808zM624.398 118.336l63.181-36.478c1.638-.945 2.961-3.236 2.955-5.109-.005-1.882-1.337-2.64-2.974-1.695l-63.182 36.478c-1.638.945-2.952 3.232-2.947 5.114.005 1.873 1.329 2.636 2.967 1.69z"/><path fill="#FFF" d="M501.812 385.217a101.415 101.415 0 0 0-1.314 5.384 41.422 41.422 0 0 0-1.302-3.873l-6.434-16.801-3.511 2.027 9.588 22.704 3.328-1.922 9.526-33.74-3.313 1.913-6.568 24.308zM517.997 380.262l-.028-9.592 13.572-7.836-.009-3.311-13.572 7.836-.024-8.643 14.496-8.37-.009-3.319-17.75 10.248.08 28.193 18.319-10.576-.01-3.328zM552.237 352.386c-.449-.203-1.102-.297-1.96-.273 2.349-1.732 4.09-3.61 5.216-5.639 1.119-2.016 1.682-4.034 1.676-6.029-.004-1.551-.349-2.774-1.036-3.661-.686-.887-1.598-1.259-2.737-1.107-1.139.151-2.8.857-4.991 2.122l-10.88 6.282.08 28.193 3.253-1.878-.036-12.52 3.761-2.171c.842-.486 1.441-.788 1.813-.915a3.43 3.43 0 0 1 1.48-.104c.487.086 1.042.394 1.658.936.609.547 1.393 1.394 2.354 2.533l3.262 3.99 4.087-2.36-4.291-5.211c-.852-1.008-1.758-1.733-2.709-2.188zm-4.447-1.769-6.976 4.027-.027-9.331 7.764-4.483c1.82-1.05 3.147-1.381 3.999-1.017.844.377 1.264 1.234 1.268 2.567.002.906-.215 1.878-.645 2.903a8.605 8.605 0 0 1-1.906 2.793c-.831.839-1.991 1.683-3.477 2.541zM562.789 329.495l.08 28.193 3.245-1.873-.08-28.193zM588.485 314.659l-16.559 9.561.08 28.193 3.252-1.877-.036-12.808 11.517-6.649-.009-3.328-11.517 6.649-.025-8.738 13.307-7.683zM604.143 313.919a214.34 214.34 0 0 0-2.662 6.529 41.833 41.833 0 0 0-2.508-3.334l-4.862-5.702-3.95 2.281 9.501 10.79.034 11.945 3.252-1.878-.034-11.945 9.743-21.9-3.784 2.185-4.73 11.029zM463.412 322.956l-3.617 2.088-.058-20.352-6.976 4.027-14.524 28.335.021 7.571 14.581-8.418.017 6.177 6.976-4.027-.017-6.177 3.617-2.088-.02-7.136zm-18.296 10.563 7.674-14.868.03 10.42-7.704 4.448zM518.14 299.649c-.993.574-1.851.685-2.574.325-.722-.36-1.188-1.225-1.389-2.601l-8.095 5.694c.399 1.323.895 2.328 1.49 3.023.594.704 1.363 1.185 2.313 1.457.957.276 2.112.221 3.47-.145 1.351-.361 2.982-1.102 4.885-2.201 2.646-1.528 4.813-3.294 6.508-5.32a22.484 22.484 0 0 0 3.915-6.781c.92-2.503 1.376-4.826 1.37-6.969-.008-3.041-.91-5.042-2.713-6.008-1.803-.966-4.141-.62-7.022 1.044-.857.495-1.713 1.111-2.584 1.859s-1.75 1.612-2.644 2.608l.676-5.364 12.875-7.433-.021-7.336-19.008 10.974-2.482 19.253 6.819-2.803c.642-1.2 1.232-2.116 1.762-2.736.727-.856 1.469-1.503 2.242-1.949 1.221-.705 2.192-.812 2.931-.313.738.49 1.106 1.726 1.112 3.695.005 1.934-.354 3.591-1.072 4.974-.725 1.397-1.649 2.41-2.764 3.053zM578.876 268.502c1.747.117 4.069-.648 6.95-2.311 2.396-1.383 4.381-3.001 5.978-4.848a21.16 21.16 0 0 0 3.726-6.253c.89-2.329 1.331-4.582 1.325-6.76-.009-3.241-.904-5.404-2.684-6.479-1.78-1.093-3.959-.882-6.522.598a14.406 14.406 0 0 0-3.501 2.815c-1.007 1.122-1.991 2.519-2.935 4.182.233-3.695.62-6.249 1.133-7.627.724-1.928 1.722-3.255 3.026-4.008.713-.412 1.328-.505 1.814-.262.494.256.854.947 1.054 2.114l7.958-5.729c-.46-1.515-1.132-2.611-2.014-3.27-.883-.668-1.984-.922-3.321-.762-1.328.156-3.142.897-5.432 2.22-3.882 2.241-6.911 5.386-9.086 9.426-2.184 4.036-3.263 9.048-3.246 15.025.012 4.077.536 7.047 1.59 8.926 1.048 1.875 2.448 2.873 4.187 3.003zm3.745-16.029c.756-1.387 1.687-2.405 2.801-3.049 1.092-.63 2.003-.659 2.733-.103.739.56 1.106 1.77 1.112 3.643.005 1.812-.34 3.39-1.043 4.712-.71 1.326-1.588 2.296-2.634 2.9-1.138.657-2.102.707-2.893.143-.783-.56-1.189-1.73-1.195-3.525-.005-1.76.378-3.342 1.119-4.721zM661.174 202.844c-1.802-.966-4.141-.62-7.03 1.048a17.22 17.22 0 0 0-2.577 1.854 28.39 28.39 0 0 0-2.642 2.608l.676-5.364 12.867-7.429-.021-7.336-19.001 10.97-2.482 19.253 6.82-2.803c.642-1.2 1.225-2.112 1.762-2.736.719-.851 1.469-1.503 2.243-1.949 1.221-.705 2.192-.812 2.931-.313.738.49 1.106 1.726 1.111 3.695.006 1.934-.354 3.59-1.079 4.978-.725 1.396-1.641 2.405-2.755 3.048-.993.574-1.851.685-2.573.325-.722-.36-1.189-1.225-1.39-2.601l-8.095 5.694c.399 1.323.895 2.328 1.49 3.023.587.709 1.363 1.186 2.312 1.457.958.276 2.112.221 3.463-.14 1.358-.365 2.989-1.106 4.892-2.205 2.646-1.528 4.813-3.294 6.508-5.32a22.493 22.493 0 0 0 3.915-6.781c.919-2.503 1.376-4.826 1.37-6.969-.01-3.039-.92-5.036-2.715-6.007z"/><linearGradient id="k" x1="913.68" x2="617.638" y1="101.381" y2="751.364" gradientUnits="userSpaceOnUse"><stop offset="0" stop-color="#abdcff"/><stop offset="1" stop-color="#73b2ff"/></linearGradient><path fill="url(#k)" d="M848.817 475.624v-.005l-.181-64.839-.363-128.111-.13-46.358c-.028-9.168-6.523-12.86-14.505-8.252l-19.568 11.298-26.863 15.51-21.228 12.256-49.904 28.812c-7.982 4.612-14.431 15.775-14.403 24.948l.14 49.817v.005l.065 21.889.079 27.714.279 98.091.158 55.857c.014 5.003 1.957 8.378 5.328 9.787 2.501.916 5.695.474 9.168-1.53l39.471-22.791h.005l62.819-36.269.009-.005 15.254-8.81c3.473-2.004 6.662-5.254 9.149-9.048 3.227-4.914 5.281-10.73 5.263-15.901l-.042-14.065zm-3.733-222.05a9.726 9.726 0 0 0-.205-1.297c.098.404.168.837.205 1.297z"/><linearGradient id="l" x1="766.229" x2="766.229" y1="294.905" y2="569.642" gradientUnits="userSpaceOnUse"><stop offset="0" stop-color="#326ab3"/><stop offset="1" stop-color="#003780"/></linearGradient><path fill="url(#l)" d="M830.784 219.411c-2.63-1.528-6.273-1.312-10.293 1.009l-117.558 67.875c-7.983 4.609-14.431 15.773-14.405 24.946l.718 253.372c.013 4.507 1.594 7.695 4.372 9.31l13.146 7.64c-2.779-1.615-4.36-4.803-4.372-9.31l-.718-253.372c-.026-9.173 6.422-20.337 14.405-24.946l117.558-67.875c4.02-2.321 7.664-2.538 10.294-1.009l-13.147-7.64z"/><path fill="#414042" d="m787.208 254.866-85.33 137.726-.065-21.889v-.004l64.167-103.577zM848.817 475.619v.005l-29.624 47.822-.009.005-62.819 36.269 92.271-148.94zM848.273 282.669 702.236 518.397l-.279-98.091 112.113-180.95 19.568-11.298c7.982-4.607 14.477-.916 14.505 8.252l.13 46.359z"/><path fill="#FFF" d="M809.792 329.371c-1.063-.006-2.263.329-3.544 1.069L754 360.605c-1.266.731-2.471 1.784-3.53 3.016l29.725 5.458 29.597-39.708z"/><path fill="#FFF" d="M814.099 334.913c-.006-2.056-.61-3.601-1.631-4.53l-32.26 43.278-32.4-5.947c-1.012 2.103-1.606 4.339-1.6 6.395l.096 33.717c.014 4.966 3.528 6.969 7.843 4.478l52.248-30.166c4.322-2.495 7.814-8.543 7.8-13.509l-.096-33.716zM804.563 420.117c-1.658-1.006-3.686-.822-6.073.557a13.389 13.389 0 0 0-3.259 2.632c-.931 1.035-1.846 2.331-2.738 3.885.226-3.446.576-5.804 1.066-7.099.663-1.788 1.602-3.036 2.808-3.733.674-.39 1.236-.461 1.7-.24.456.225.785.882.985 1.953l7.405-5.322c-.43-1.41-1.055-2.428-1.877-3.044-.822-.625-1.848-.862-3.093-.71-1.237.147-2.929.836-5.06 2.066-3.609 2.084-6.433 5.015-8.458 8.767-2.032 3.765-3.037 8.429-3.02 13.996.01 3.79.504 6.568 1.482 8.308.977 1.748 2.271 2.686 3.896 2.794 1.626.117 3.781-.603 6.465-2.153 2.237-1.291 4.093-2.791 5.569-4.507a19.634 19.634 0 0 0 3.462-5.821c.837-2.167 1.249-4.264 1.243-6.303-.011-3.006-.844-5.02-2.503-6.026zm-5.54 14.735c-.658 1.235-1.475 2.134-2.445 2.695-1.062.613-1.958.659-2.696.134-.738-.516-1.106-1.613-1.11-3.286-.005-1.638.34-3.103 1.043-4.39.695-1.283 1.566-2.231 2.605-2.83 1.008-.582 1.858-.62 2.544-.099.685.521 1.03 1.648 1.034 3.382.005 1.699-.318 3.16-.975 4.394zM757.607 452.446l-3.366 1.944-.054-18.941-6.498 3.751-13.519 26.376.02 7.048 13.572-7.836.016 5.759 6.498-3.751-.016-5.759 3.367-1.944-.02-6.647zm-17.037 9.836 7.145-13.838.028 9.697-7.173 4.141zM829.379 405.493c-1.681-.897-3.86-.573-6.544.977a16.057 16.057 0 0 0-2.402 1.727 25.278 25.278 0 0 0-2.454 2.429l.624-4.994 11.98-6.917-.02-6.831-17.689 10.213-2.311 17.924 6.349-2.61c.597-1.121 1.141-1.968 1.641-2.553.673-.79 1.371-1.402 2.091-1.818 1.13-.652 2.041-.751 2.725-.291.685.468 1.03 1.613 1.036 3.451.005 1.795-.333 3.334-1.005 4.629-.673 1.296-1.528 2.244-2.566 2.843-.925.534-1.722.628-2.399.303-.669-.338-1.105-1.143-1.291-2.432l-7.534 5.301c.368 1.236.834 2.171 1.383 2.823.549.652 1.272 1.099 2.161 1.353.881.259 1.961.212 3.219-.131 1.268-.348 2.784-1.032 4.551-2.052 2.464-1.423 4.48-3.066 6.061-4.948a20.93 20.93 0 0 0 3.643-6.318c.859-2.338 1.279-4.491 1.273-6.486-.008-2.828-.849-4.69-2.522-5.592zM779.398 434.35c-1.681-.897-3.86-.573-6.544.977a16.057 16.057 0 0 0-2.402 1.727 25.278 25.278 0 0 0-2.454 2.429l.624-4.994 11.98-6.916-.02-6.831-17.689 10.213-2.311 17.924 6.349-2.61c.597-1.121 1.142-1.968 1.641-2.553.674-.79 1.363-1.398 2.083-1.814 1.138-.657 2.049-.755 2.733-.295.685.469 1.03 1.613 1.035 3.452.005 1.795-.333 3.334-1.005 4.629-.672 1.296-1.527 2.243-2.566 2.843-.925.534-1.73.632-2.399.303-.669-.338-1.105-1.143-1.29-2.432l-7.534 5.301c.368 1.236.834 2.171 1.383 2.823.549.652 1.271 1.099 2.153 1.358.889.254 1.967.208 3.227-.135 1.267-.348 2.776-1.027 4.551-2.051 2.464-1.423 4.479-3.066 6.061-4.948a20.95 20.95 0 0 0 3.643-6.318c.859-2.337 1.279-4.49 1.273-6.486-.009-2.833-.849-4.695-2.522-5.596z"/><path fill="#E1E7F2" d="M319.574 832.34c-.002.825.569 1.668 1.739 2.342 2.147 1.124 5.503.958 7.544-.219l5.065-2.921c1.04-.6 2.726-.595 3.765.009l4.948 2.878c-.293.388-.446.804-.44 1.227 0-.01-.005-.02-.005-.029l-.028 9.862c-.003.824.569 1.668 1.742 2.343 2.143 1.122 5.499.957 7.54-.221l5.069-2.919c1.044-.602 2.729-.598 3.769.007l42.192 24.555c3.732 2.174 6.29 4.937 7.227 7.887l-.018 6.53c-.015 5.34 3.498 10.694 10.621 14.841 15.049 8.688 40.004 8.123 53.66-1.737 5.176-3.74 7.762-8.327 7.775-12.92l.028-9.862c-.001.277-.041.554-.061.831.353-5.004-2.323-10.075-8.07-14.126a32.606 32.606 0 0 0-2.488-1.587c-8.143-4.702-19.179-6.683-29.761-5.955-7.401.508-14.78-1.119-20.146-4.217l-73.268-42.644c-4.905-2.832-12.87-3.198-18.082-.571-2.994 1.51-4.48 3.61-4.468 5.711 0-.013-.004-.027-.004-.04l-.019 6.489-4.258 2.454c-1.03.594-1.547 1.374-1.536 2.168 0-.01-.005-.02-.005-.03l-.027 9.864zm122.711 51.762a12.305 12.305 0 0 1 1.835-1.286c5.929-3.419 15.533-3.411 21.516.042.704.41 1.318.852 1.855 1.314-.535.455-1.143.89-1.842 1.293-5.929 3.419-15.537 3.396-21.516-.056a12.359 12.359 0 0 1-1.848-1.307zm-32.174-7.186.009.039-.009-.027v-.012z"/><linearGradient id="m" x1="5287.861" x2="5101.421" y1="874.41" y2="758.378" gradientTransform="translate(-4827.13)" gradientUnits="userSpaceOnUse"><stop offset=".189" stop-color="#ffbe69"/><stop offset="1" stop-color="#ff8f5c"/></linearGradient><path fill="url(#m)" d="M447.191 873.109c5.929-3.419 15.534-3.411 21.516.042 2.971 1.729 4.453 3.993 4.447 6.253l.028-9.862c.007-2.26-1.475-4.524-4.446-6.253-5.982-3.453-15.587-3.461-21.516-.042-2.968 1.712-4.456 3.959-4.462 6.21l-.028 9.862c.006-2.252 1.493-4.499 4.461-6.21z"/><linearGradient id="n" x1="5285.05" x2="5098.61" y1="878.926" y2="762.894" gradientTransform="translate(-4827.13)" gradientUnits="userSpaceOnUse"><stop offset=".189" stop-color="#ffbe69"/><stop offset="1" stop-color="#ff8f5c"/></linearGradient><path fill="url(#n)" d="M477.064 877.205c-13.656 9.86-38.611 10.425-53.66 1.737-5.732-3.338-9.122-7.456-10.221-11.721l.02-7.145c.011-3.867-2.854-7.611-7.628-10.392l-42.192-24.555c-1.039-.604-2.725-.609-3.769-.007l-5.069 2.919a6.962 6.962 0 0 1-1.705.678l.026-9.07c.001-.395-.258-.791-.776-1.094l-11.301-6.573c-1.039-.604-2.725-.609-3.765-.009l-5.065 2.921c-.405.234-.872.415-1.361.567l.026-9.153c.001-.283-.129-.57-.388-.829-1.166-1.17-1.746-2.481-1.742-3.79l-.028 9.862c-.004 1.309.577 2.62 1.742 3.79.063.063.117.127.165.193-1.936.538-4.303.444-5.957-.422-1.171-.673-1.742-1.517-1.739-2.341l-.028 9.862c-.002.825.569 1.668 1.739 2.341 2.147 1.124 5.503.959 7.544-.219l5.065-2.921c1.04-.6 2.726-.595 3.765.009l11.301 6.574a1.9 1.9 0 0 1 .454.37c-1.845.409-3.983.274-5.511-.526-1.172-.674-1.744-1.518-1.742-2.343l-.028 9.862c-.002.824.57 1.668 1.742 2.343 2.143 1.122 5.499.957 7.541-.221l5.069-2.919c1.044-.602 2.73-.598 3.769.007l42.192 24.555c3.732 2.173 6.29 4.937 7.227 7.887l-.019 6.53c-.015 5.34 3.498 10.694 10.621 14.841 15.048 8.688 40.004 8.123 53.66-1.737 5.175-3.739 7.762-8.326 7.775-12.92l.028-9.862c-.015 4.595-2.602 9.182-7.777 12.921z"/><linearGradient id="o" x1="3444.292" x2="3280.693" y1="801.202" y2="899.299" gradientTransform="matrix(-1 0 0 1 3788.087 0)" gradientUnits="userSpaceOnUse"><stop offset=".189" stop-color="#ffbe69"/><stop offset="1" stop-color="#ff8f5c"/></linearGradient><path fill="url(#o)" d="M324.413 815.113c2.147 1.124 5.503.959 7.544-.219l5.065-2.921c1.04-.6 2.726-.595 3.765.009l11.301 6.574c1.035.607 1.037 1.581-.007 2.183l-5.275 3.044c-2.092 1.202-2.09 3.164.197 4.48 2.143 1.122 5.499.957 7.54-.221l5.069-2.919c1.044-.602 2.73-.597 3.769.007l42.192 24.555c5.415 3.153 8.373 7.546 7.467 11.952-1.271 6.125 2.141 12.519 10.363 17.305 15.048 8.689 40.003 8.123 53.66-1.737 10.505-7.59 10.343-18.673-.356-26.214a32.717 32.717 0 0 0-2.488-1.587c-8.143-4.702-19.179-6.683-29.761-5.955-7.401.508-14.78-1.119-20.146-4.217l-73.268-42.644c-4.905-2.832-12.871-3.198-18.082-.571-4.841 2.442-5.754 6.427-2.73 9.462.619.62.5 1.396-.374 1.9l-5.645 3.254c-2.086 1.204-2.083 3.166.2 4.48zm122.807 48.134c5.929-3.419 15.534-3.411 21.516.042 5.936 3.454 5.925 9.044-.015 12.469-5.929 3.419-15.537 3.396-21.515-.056-5.938-3.454-5.931-9.028.014-12.455z"/><path fill="#DDE4F0" d="m136.79 754.174 69.784 40.29 98.23-57.085-64.254-43.503z"/><linearGradient id="p" x1="187.691" x2="310.243" y1="718.607" y2="718.607" gradientUnits="userSpaceOnUse"><stop offset=".189" stop-color="#ffbe69"/><stop offset="1" stop-color="#ff8f5c"/></linearGradient><path fill="url(#p)" d="M288.016 639.3c-2.206-1.282-5.262-1.101-8.637.848l-8.886 5.13-8.504 4.91-44.813 25.873-8.504 4.91-8.886 5.13c-6.705 3.871-12.117 13.245-12.095 20.942l.201 70.99c.011 3.824 1.361 6.517 3.54 7.783l22.226 12.917c-2.179-1.266-3.529-3.959-3.54-7.783l-.201-70.99c-.022-7.697 5.391-17.071 12.095-20.942l8.886-5.131 8.504-4.91 44.813-25.873 8.503-4.91 8.887-5.131c3.375-1.948 6.431-2.13 8.637-.848L288.016 639.3z"/><linearGradient id="q" x1="305.683" x2="180.087" y1="649.369" y2="867.929" gradientUnits="userSpaceOnUse"><stop offset=".189" stop-color="#ffbe69"/><stop offset="1" stop-color="#ff8f5c"/></linearGradient><path fill="url(#q)" d="M313.78 659.994c-.022-7.697-5.469-10.801-12.174-6.93l-8.887 5.131-8.503 4.91-44.813 25.873-8.504 4.91-8.886 5.131c-6.705 3.871-12.117 13.245-12.095 20.942l.201 70.99c.022 7.697 5.47 10.809 12.174 6.938l79.593-45.953c6.705-3.871 12.117-13.253 12.095-20.949l-.201-70.993z"/><linearGradient id="r" x1="272.897" x2="209.276" y1="624.223" y2="696.893" gradientUnits="userSpaceOnUse"><stop offset="0" stop-color="#326ab3"/><stop offset="1" stop-color="#003780"/></linearGradient><path fill="url(#r)" d="m281.135 635.354-11.498-6.682 5.163-2.981c4.943-2.854 9.424-3.118 12.661-1.237l-22.226-12.917c-3.237-1.881-7.718-1.617-12.662 1.238l-26.222 15.139c-9.832 5.677-17.774 19.438-17.742 30.737l.064 22.319 22.226 12.917-.063-22.319c-.032-11.298 7.909-25.06 17.741-30.737l13.364-7.716.048 17.072 22.227 12.917-.06-21.108c-.009-3.264-1.162-5.561-3.021-6.642z"/><linearGradient id="s" x1="230.835" x2="292.719" y1="658.57" y2="658.57" gradientUnits="userSpaceOnUse"><stop offset="0" stop-color="#326ab3"/><stop offset="1" stop-color="#003780"/></linearGradient><path fill="url(#s)" d="M292.656 635.876c-.032-11.298-8.031-15.857-17.857-10.184l-26.223 15.14c-9.832 5.677-17.773 19.438-17.741 30.737l.063 22.319 8.504-4.91-.06-21.108c-.018-6.571 4.604-14.578 10.322-17.879l24.101-13.915c5.719-3.301 10.371-.65 10.39 5.921l.06 21.108 8.503-4.91-.062-22.319z"/><path fill="#FFF" d="M267.942 693.206c-13.041 7.529-23.577 25.779-23.534 40.756.042 14.985 10.648 21.028 23.688 13.499 13.041-7.529 23.57-25.775 23.528-40.759-.042-14.978-10.641-21.025-23.682-13.496zm.141 49.573c-10.792 6.231-19.566 1.231-19.601-11.17-.035-12.393 8.682-27.492 19.474-33.722 10.786-6.227 19.566-1.231 19.601 11.162.035 12.402-8.688 27.503-19.474 33.73z"/><path fill="#F7B65E" d="M267.956 697.887c-10.792 6.231-19.509 21.329-19.474 33.722.035 12.401 8.809 17.401 19.601 11.17 10.786-6.227 19.509-21.329 19.474-33.73-.035-12.393-8.816-17.389-19.601-11.162zm5.678 34.604c.124 1.087-.665 2.57-1.678 3.155l-7.772 4.487c-1.02.589-1.808.016-1.691-1.21l1.594-16.547c-2.004-.326-3.34-2.15-3.349-5.088-.013-4.612 3.224-10.22 7.238-12.537 4.013-2.317 7.273-.46 7.286 4.152.008 2.938-1.313 6.297-3.309 8.932l1.681 14.656z"/><path fill="#224585" d="M271.952 717.835c1.996-2.635 3.317-5.994 3.309-8.932-.013-4.612-3.272-6.469-7.286-4.152-4.013 2.317-7.251 7.926-7.238 12.537.008 2.938 1.344 4.763 3.349 5.088l-1.594 16.547c-.117 1.226.671 1.799 1.691 1.21l7.772-4.487c1.013-.585 1.803-2.068 1.678-3.155l-1.681-14.656z"/><path fill="#F9CBCB" d="M636.051 474.594c-.015.115-.015.244-.044.374-.275 2.287-1.715 4.904-3.702 7.549-3.773 5.017-9.558 10.119-13.272 13.166-2.13 1.739-3.57 2.816-3.57 2.816 3.676 8.317-3.779 15.964-5.992 11.561-.46-.949 1.225-4.199 1.226-5.494.001-.806-1.415-1.698-2.387-3.123-1.105-1.62-.168-3.639.508-4.588 1.31-1.797 2.592-3.81 3.902-5.881 3.499-5.506 7.243-11.488 12.467-15.526-8.813-4.695-14.752-6.8-20.833-12.357l2.894-22.926c.002.001 29.544 23.915 28.803 34.429z"/><linearGradient id="t" x1="620.335" x2="620.153" y1="493.938" y2="457.04" gradientUnits="userSpaceOnUse"><stop offset="0" stop-color="#e85467"/><stop offset="1" stop-color="#b01c30"/></linearGradient><path fill="url(#t)" d="M636.051 474.594c-.015.115-.015.244-.044.374a1218.897 1218.897 0 0 1-3.702 7.549c-3.773 5.017-9.558 10.119-13.272 13.166l-6.311-4.709c3.499-5.506 7.243-11.488 12.467-15.526-8.813-4.695-14.752-6.8-20.833-12.357l2.894-22.926c0 .001 29.542 23.915 28.801 34.429z"/><path fill="#F9CBCB" d="M583.861 499.681s1.173 73.042 14.509 89.353c6.434 7.87 27.857 49.979 27.857 49.979 2.399.333 4.627-.151 6.353-3.023-4.364-23.843-10.185-44.253-19.571-56.109-4.899-33.625 9.469-48.3-6.382-80.185l-22.766-.015z"/><path fill="#F9CBCB" d="M578.141 494.637c-5.627 35.05-3.596 55.025.828 91.595.045.371.11.747.195 1.109l13.022 56.018 6.563.907c1.655-18.51.697-41.785-2.572-57.441 2.429-45.641 25.394-58.346 4.022-92.171l-22.058-.017z"/><linearGradient id="u" x1="569.417" x2="630.174" y1="550.05" y2="550.05" gradientUnits="userSpaceOnUse"><stop offset="0" stop-color="#326ab3"/><stop offset="1" stop-color="#003780"/></linearGradient><path fill="url(#u)" d="M622.375 599.244c-7.335-.911-14.02-5.143-18.684.189-3.412 3.89-7.355 7.058-12.247 8.665a23.21 23.21 0 0 1-6.747 1.17c-4.473.114-8.455-3.295-9.631-8.346-2.237-9.666-5.662-27.403-5.649-45.658.024-32.616 9.251-62.894 9.251-62.894s.144-.034.403-.1c3.007-.669 22.068-4.548 29.067 4.131 7.602 9.435 13.16 21.906 11.229 46.199-1.379 17.347 5.571 33.476 10.151 45.023 2.284 5.789-1.706 12.313-7.143 11.621z"/><path fill="#F9CBCB" d="m583.662 438.034-7.981 16.91s-.273-.431-.733-1.194c-3.046-4.936-14.597-23.845-17.525-31.385-2.355-6.072-2.789-21.665-2.365-32.252.161-3.927.437-7.177.783-8.99 0 0-4.945-4.52-.354-7.034 4.418-2.413 1.316-9.478 2.97-9.707 1.655-.229 2.553 9.323 2.553 9.323s2.347-2.487 3.137-1.537c1.193 1.411-2.869 8.959-2.869 8.959a135.737 135.737 0 0 1 1.635 5.338c2.669 9.38 4.488 19.58 5.415 30.542 4.932 5.111 10.09 12.609 15.334 21.027z"/><path fill="#3E3279" d="m605.701 493.962-28.494-.021c1.486-6.471 5.128-9.936-.212-24.626-2.225-6.115-2.61-11.294-2.046-15.565 1.417-10.615 8.714-15.716 8.714-15.716l6.835-3.835 8.357.006 8.396 5.961s-.434 23.605-1.749 31.673c-1.157 7.119-2.515 15.246.199 22.123z"/><linearGradient id="v" x1="554.915" x2="610.401" y1="443.849" y2="443.849" gradientUnits="userSpaceOnUse"><stop offset="0" stop-color="#e85467"/><stop offset="1" stop-color="#b01c30"/></linearGradient><path fill="url(#v)" d="M610.401 498.382c-13.109 6.708-17.591-.516-27.545-.596a24.028 24.028 0 0 0-2.445.128c-3.021.329-5.464-2.378-4.958-5.369 1.574-9.19 1.05-19.346-1.257-33.056a42.356 42.356 0 0 0-2.525-8.892 43.895 43.895 0 0 0-2.427-5.036c-4.295-7.684-9.826-18.074-11.821-23.196-2.355-6.072-2.789-21.665-2.365-32.252l7.856-3.648c2.669 9.38 4.647 18.66 6.264 30.169 3.996 4.16 16.584 20.222 19.247 18.728l2.072-1.164 8.357.006 8.396 5.961s-.434 23.605-1.749 31.673c-1.156 7.12 2.187 19.666 4.9 26.544z"/><path fill="#F9CBCB" d="M581.506 406.825s-3.597 9.94-.84 16.156c2.757 6.216 13.807 1.943 13.807 1.943l-12.967-18.099z"/><path fill="#F9CBCB" d="m588.723 425.295-1.673 9.344 7.679.006-.256-9.721z"/><path fill="#0E3475" d="m599.032 641.207 1.06 5.433c.374 1.484.481 3.022.315 4.543l-.608 5.868-2.153-.017.192-3.715c-.095-.96-1.302-1.328-1.916-.584l-2.01 2.436a3.88 3.88 0 0 1-2.861 2.034c-3.735.536-11.032.761-11.369-1.687-.346-2.517 6.735-2.723 8.765-5.524 1.966-2.712 3.288-8.569 3.288-8.569 2.222.896 4.841.607 7.297-.218zM632.58 635.991l3.429 4.181a12.871 12.871 0 0 1 2.219 3.976l1.949 5.568-1.956.902-1.409-3.442c-.494-.829-1.744-.648-1.982.288l-.78 3.059a3.887 3.887 0 0 1-1.723 3.06c-3.15 2.076-9.657 5.388-11.004 3.316-1.385-2.13 4.934-5.332 5.578-8.731.624-3.292-.674-9.153-.674-9.153 2.391-.139 4.482-1.232 6.353-3.024zM594.859 399.434c-2.722-2.576-13.746-3.265-14.093 5.479-.324 8.152 9.539 15.712 5.678 23.844s-3.17 10.888 4.548 13.369 21.362 4.135 20.26-8.683c-1.103-12.818-3.939-25.638-8.683-30.942-3.36-3.756-7.71-3.067-7.71-3.067z"/><linearGradient id="w" x1="1029.61" x2="1075.266" y1="339.328" y2="405.479" gradientUnits="userSpaceOnUse"><stop offset=".189" stop-color="#ffbe69"/><stop offset="1" stop-color="#ff8f5c"/></linearGradient><path fill="url(#w)" d="M1061.497 322.808c-1.275-1.859-2.85-3.33-4.427-4.24-1.579-.912-3.16-1.261-4.443-.875l-57.495 17.706-8.223 4.779 57.495-17.706c1.283-.386 2.864-.036 4.443.875 1.577.91 3.152 2.382 4.427 4.24l58.153 84.821 8.223-4.779-58.153-84.821z"/><linearGradient id="x" x1="1067.909" x2="1029.355" y1="351.928" y2="402.049" gradientUnits="userSpaceOnUse"><stop offset=".189" stop-color="#ffbe69"/><stop offset="1" stop-color="#ff8f5c"/></linearGradient><path fill="url(#x)" d="M1048.846 323.347c1.577.91 3.152 2.382 4.427 4.24l58.153 84.821a3.377 3.377 0 0 0-.914-.01l-50.056 6.568-2.17.285-.955.123-1.951.257-3.946.517c-.854.114-1.844-.155-2.833-.726-1.005-.58-2.009-1.473-2.868-2.594l-3.886-5.061-1.859-2.422-3.083-4.021-49.997-65.146 57.495-17.706c1.283-.387 2.864-.037 4.443.875z"/><path fill="#FFF" d="m1034.015 299.433-15.357 8.745-.005.003 15.433-8.782a.659.659 0 0 0-.071.034z"/><linearGradient id="y" x1="920.548" x2="1184.911" y1="365.258" y2="312.094" gradientUnits="userSpaceOnUse"><stop offset="0" stop-color="#c7e1ff"/><stop offset="1" stop-color="#c4e6ff"/></linearGradient><path fill="url(#y)" d="m1032.52 346.153.02-6.831-5.07 3.916z"/><linearGradient id="z" x1="927.581" x2="1191.943" y1="400.228" y2="347.065" gradientUnits="userSpaceOnUse"><stop offset="0" stop-color="#c7e1ff"/><stop offset="1" stop-color="#c4e6ff"/></linearGradient><path fill="url(#z)" d="m1095.327 334.383-60.369-34.854a1.267 1.267 0 0 0-.547-.18l-.052 18.342-15.971-9.221a1.234 1.234 0 0 0-.122.565l-.257 90.611c-.002.841.594 1.875 1.332 2.301l75.67 43.688c.738.426 1.333.081 1.335-.761l.307-108.193c.003-.848-.588-1.872-1.326-2.298zm-55.881 20.451-2.371-1.369-.011 4.053-4.568-2.637.011-4.053-9.554-5.516.014-4.962 9.591-7.526 4.568 2.637-.038 13.329 2.371 1.369-.013 4.675zm16.201 9.795c-.608.947-1.471 1.432-2.583 1.472-1.112.04-2.537-.441-4.269-1.441-1.249-.721-2.313-1.469-3.201-2.256a13.976 13.976 0 0 1-2.263-2.524 14.917 14.917 0 0 1-1.506-2.696c-.388-.906-.705-1.938-.958-3.101l5.302 2.392c.131 1.052.425 1.964.9 2.747.469.786 1.026 1.362 1.683 1.741.727.419 1.332.448 1.81.089.478-.366.719-1.177.723-2.439.004-1.289-.232-2.375-.713-3.254s-1.119-1.549-1.915-2.009c-.506-.292-1-.437-1.472-.422-.349.006-.74.155-1.16.454l-4.467-3.315 1.695-10.7 12.448 7.187-.014 4.808-8.432-4.868-.457 2.994a6.99 6.99 0 0 1 1.728.289c.576.172 1.14.417 1.698.739 1.889 1.091 3.415 2.634 4.591 4.624 1.17 1.993 1.752 3.982 1.747 5.972-.001 1.403-.307 2.577-.915 3.517zm17.712 10.614c-.59.843-1.406 1.268-2.454 1.272-1.042.007-2.35-.447-3.919-1.353-1.889-1.09-3.405-2.333-4.541-3.732-1.143-1.402-2.052-3.111-2.727-5.126-.676-2.015-1.012-4.357-1.005-7.034.011-3.913.734-6.365 2.175-7.359 1.435-.991 3.425-.752 5.97.718 1.499.866 2.684 1.744 3.555 2.648a12.935 12.935 0 0 1 2.163 3.008 14.742 14.742 0 0 1 1.305 3.656l-5.215-2.268c-.137-.922-.362-1.641-.681-2.172-.325-.535-.719-.937-1.19-1.209-.849-.49-1.512-.378-1.986.338-.351.507-.605 1.885-.774 4.115.63-.365 1.27-.537 1.934-.502.663.029 1.425.294 2.291.794 1.685.973 3.107 2.483 4.265 4.536 1.158 2.053 1.735 4.139 1.729 6.262-.004 1.427-.304 2.558-.895 3.408zm17.459 9.692c-.608.947-1.471 1.432-2.583 1.472-1.112.04-2.537-.441-4.269-1.441-1.244-.718-2.312-1.469-3.201-2.256a13.939 13.939 0 0 1-2.263-2.524 15.17 15.17 0 0 1-1.505-2.695 17.58 17.58 0 0 1-.958-3.101l5.307 2.395c.125 1.049.42 1.961.895 2.744.469.786 1.032 1.365 1.683 1.741.727.419 1.332.448 1.81.089.478-.366.719-1.177.723-2.439.003-1.289-.232-2.375-.713-3.254-.481-.88-1.119-1.549-1.915-2.009-.506-.292-.994-.434-1.471-.421-.349.006-.74.155-1.16.454l-4.467-3.315 1.695-10.7 12.448 7.187-.014 4.808-8.432-4.868-.457 2.994c.582.022 1.158.12 1.734.292.57.169 1.134.414 1.692.736 1.888 1.09 3.421 2.637 4.591 4.624 1.17 1.993 1.752 3.981 1.747 5.971-.003 1.402-.309 2.576-.917 3.516z"/><linearGradient id="A" x1="926.685" x2="1191.048" y1="395.775" y2="342.611" gradientUnits="userSpaceOnUse"><stop offset="0" stop-color="#c7e1ff"/><stop offset="1" stop-color="#c4e6ff"/></linearGradient><path fill="url(#A)" d="M1066.785 363.916c-.732-.423-1.343-.461-1.839-.125s-.742 1.083-.746 2.238c-.003 1.169.25 2.238.765 3.204.51.956 1.142 1.656 1.886 2.085.692.399 1.262.428 1.729.095.466-.333.701-1.093.705-2.288.003-1.222-.232-2.295-.713-3.214-.481-.92-1.078-1.586-1.787-1.995z"/><linearGradient id="B" x1="913.993" x2="1178.356" y1="332.664" y2="279.5" gradientUnits="userSpaceOnUse"><stop offset="0" stop-color="#c7e1ff"/><stop offset="1" stop-color="#c4e6ff"/></linearGradient><path fill="url(#B)" d="m1034.086 299.399-15.433 8.782-.385.22.12.069 15.971 9.221.052-18.342v-.135z"/><path fill="#375EA3" d="m1037.126 335.462-4.568-2.637-9.591 7.526-.014 4.962 9.554 5.516-.011 4.053 4.568 2.637.011-4.053 2.371 1.369.013-4.674-2.371-1.369.038-13.33zm-4.606 10.691-5.05-2.916 5.069-3.916-.019 6.832zM1068.26 361.035c-.866-.5-1.628-.766-2.291-.794-.664-.035-1.305.137-1.934.502.169-2.23.423-3.608.774-4.115.473-.717 1.137-.828 1.986-.338.471.272.865.673 1.19 1.209.319.532.544 1.25.681 2.172l5.215 2.268a14.742 14.742 0 0 0-1.305-3.656 12.935 12.935 0 0 0-2.163-3.008c-.87-.904-2.056-1.782-3.555-2.648-2.546-1.47-4.536-1.709-5.97-.718-1.441.994-2.164 3.446-2.175 7.359-.008 2.678.329 5.019 1.005 7.034.675 2.015 1.584 3.724 2.727 5.126 1.137 1.399 2.653 2.642 4.541 3.732 1.569.906 2.877 1.36 3.919 1.353 1.048-.004 1.864-.429 2.454-1.272.591-.85.891-1.981.894-3.41.006-2.124-.57-4.209-1.729-6.262-1.157-2.051-2.579-3.561-4.264-4.534zm.32 10.378c-.467.333-1.037.304-1.729-.095-.744-.429-1.376-1.129-1.886-2.085-.515-.966-.768-2.035-.765-3.204.003-1.155.25-1.902.746-2.238.496-.336 1.107-.297 1.839.125.709.409 1.307 1.075 1.787 1.995.48.92.716 1.992.713 3.214-.004 1.195-.239 1.956-.705 2.288zM1089.989 375.447c-1.17-1.987-2.703-3.534-4.591-4.624a7.797 7.797 0 0 0-1.692-.736 6.941 6.941 0 0 0-1.734-.292l.457-2.994 8.432 4.868.014-4.808-12.448-7.187-1.695 10.7 4.467 3.315c.42-.299.81-.448 1.16-.454.477-.012.966.129 1.471.421.796.46 1.434 1.129 1.915 2.009.48.879.716 1.965.713 3.254-.004 1.262-.245 2.073-.723 2.439-.479.359-1.083.331-1.81-.089-.651-.376-1.214-.955-1.683-1.741-.475-.783-.769-1.695-.895-2.744l-5.307-2.395c.253 1.163.576 2.199.958 3.101a15.17 15.17 0 0 0 1.505 2.695c.62.9 1.375 1.737 2.263 2.524.888.787 1.957 1.538 3.201 2.256 1.732 1 3.157 1.481 4.269 1.441 1.112-.04 1.975-.525 2.583-1.472.608-.94.914-2.114.918-3.517.004-1.989-.578-3.977-1.748-5.97zM1050.227 350.517a7.923 7.923 0 0 0-1.698-.739 7.036 7.036 0 0 0-1.728-.289l.457-2.994 8.432 4.868.014-4.808-12.448-7.187-1.695 10.7 4.467 3.315c.42-.299.81-.448 1.16-.454.471-.015.966.13 1.472.422.796.46 1.434 1.129 1.915 2.009.48.879.716 1.965.713 3.254-.003 1.262-.245 2.073-.723 2.439-.479.359-1.084.331-1.81-.089-.657-.379-1.214-.955-1.683-1.741-.476-.783-.77-1.695-.9-2.747l-5.302-2.392c.253 1.163.57 2.195.958 3.101a14.95 14.95 0 0 0 1.506 2.696c.62.9 1.375 1.737 2.263 2.524.888.787 1.951 1.535 3.201 2.256 1.732 1 3.157 1.481 4.269 1.441 1.112-.04 1.975-.525 2.583-1.472.608-.94.914-2.114.918-3.517.006-1.99-.577-3.978-1.747-5.972-1.179-1.99-2.705-3.533-4.594-4.624z"/><path fill="#FFC45E" d="m992.005 423.981-8.223 4.779c-1.172-.677-2.249-1.716-3.368-3.299l8.223-4.779c1.12 1.584 2.196 2.623 3.368 3.299z"/><path fill="#FFC45E" d="m983.782 428.76 8.223-4.779.656.379-8.223 4.779zM1057.331 419.374l8.223-4.779 55.238 83.741-8.224 4.779z"/><path fill="#FFC45E" d="m1112.568 503.115 8.224-4.779.526.304-8.223 4.779z"/><path fill="#FFC45E" d="m1124.425 499.319-.961.558-1.019.592-6.244 3.629c-.856.203-1.935-.003-3.107-.679l8.223-4.779c1.173.677 2.252.882 3.108.679zM1116.202 504.098l8.223-4.779c.115-.031.229-.062.334-.11l-8.224 4.779c-.104.048-.219.079-.333.11z"/><path fill="#FFB345" d="m988.637 420.682-8.224 4.779c.084.129.178.263.268.395.852 1.189 1.929 2.228 3.101 2.905l.656.378 55.521-19.835-3.053-3.98 8.223-4.779-56.492 20.137z"/><path fill="#FAA120" d="m1068.679 414.187-8.224 4.779-2.17.285-.955.123 55.237 83.741.526.304c1.172.677 2.251.882 3.107.679.114-.031.229-.062.333-.11l8.223-4.779-56.077-85.022z"/><path fill="#FFC45E" d="m1125.059 499.063-8.223 4.779c.785-.456 1.266-1.379 1.27-2.692l8.223-4.779c-.004 1.313-.485 2.236-1.27 2.692z"/><linearGradient id="C" x1="980.28" x2="1126.555" y1="416.603" y2="416.603" gradientUnits="userSpaceOnUse"><stop offset=".189" stop-color="#ffbe69"/><stop offset="1" stop-color="#ff8f5c"/></linearGradient><path fill="url(#C)" d="M1121.555 408.33c-.635-.367-1.281-.612-1.906-.7a3.378 3.378 0 0 0-.914-.01l-50.056 6.568-.21.028-.352.046-1.607.211-.955.123-1.951.257-3.946.517c-.854.114-1.844-.155-2.833-.726-1.005-.58-2.009-1.473-2.868-2.594l-3.885-5.061-1.859-2.422-.256.091.226-.131-3.053-3.98-50.245-65.458c-.829-1.011-1.725-1.771-2.602-2.278-1.439-.831-2.827-.977-3.779-.424l-8.223 4.779c.952-.553 2.339-.407 3.779.424.877.506 1.773 1.266 2.602 2.278l50.245 65.458 1.97 2.568 1.113 1.452 1.858 2.422 3.886 5.061c.859 1.121 1.863 2.014 2.868 2.594.989.571 1.979.84 2.833.726l3.946-.517 1.951-.257.955-.123 2.17-.285.008-.005-.008.005 50.056-6.568c.296-.039.602-.034.914.01.624.088 1.27.334 1.906.7 2.597 1.499 5.009 5.021 5 8.057l-.227 79.985 8.223-4.779.227-79.985c.008-3.037-2.404-6.558-5.001-8.057z"/><path fill="#FFD58C" d="m982.983 428.228-.15-.116c.05.039.1.079.15.116zM1112.568 503.115l.527.304-.527-.304zM983.782 428.76zM982.833 428.112z"/><linearGradient id="D" x1="1024.256" x2="1140.223" y1="339.928" y2="490.898" gradientUnits="userSpaceOnUse"><stop offset=".189" stop-color="#ffbe69"/><stop offset="1" stop-color="#ff8f5c"/></linearGradient><path fill="url(#D)" d="M1113.332 413.109c-.635-.367-1.281-.612-1.906-.7a3.378 3.378 0 0 0-.914-.01l-50.056 6.568 56.079 85.022c.961-.383 1.566-1.365 1.57-2.837l.227-79.985c.009-3.038-2.403-6.559-5-8.058z"/><linearGradient id="E" x1="981.282" x2="1097.249" y1="372.938" y2="523.908" gradientUnits="userSpaceOnUse"><stop offset=".189" stop-color="#ffbe69"/><stop offset="1" stop-color="#ff8f5c"/></linearGradient><path fill="url(#E)" d="m1055.38 419.631-3.946.517c-.854.114-1.844-.155-2.833-.726-1.005-.58-2.009-1.473-2.868-2.594l-3.886-5.061-1.858-2.422-55.551 19.795-.656-.378 128.786 74.355-55.237-83.741-1.951.255z"/><linearGradient id="F" x1="978.009" x2="1093.976" y1="375.452" y2="526.423" gradientUnits="userSpaceOnUse"><stop offset=".189" stop-color="#ffbe69"/><stop offset="1" stop-color="#ff8f5c"/></linearGradient><path fill="url(#F)" d="M986.661 339.866c-.829-1.011-1.725-1.771-2.602-2.278-2.594-1.498-5.021-.771-5.029 2.265l-.229 80.869c-.004 1.4.54 2.981 1.63 4.732l56.475-20.131-50.245-65.457z"/><path fill="#FFD58C" d="M980.552 425.648c.044.069.084.137.13.207.491.686 1.063 1.31 1.679 1.855-.608-.548-1.203-1.226-1.809-2.062zM980.414 425.461c.046.065.092.124.138.188l-.122-.194-.016.006z"/><ellipse cx="759.629" cy="829.269" fill="#DDE1F5" rx="84.301" ry="19.92"/><linearGradient id="G" x1="710.955" x2="808.302" y1="809.348" y2="809.348" gradientUnits="userSpaceOnUse"><stop offset="0" stop-color="#326ab3"/><stop offset="1" stop-color="#003780"/></linearGradient><path fill="url(#G)" d="M737.416 795.11s-26.914 3.981-26.455 3.715c.459-.267 49.258 24.761 49.258 24.761l48.083-21.545-23.84-6.931h-47.046z"/><path fill="#FFD8D9" d="M747.753 831.835c-.136.001-.273.002-.403.005l-.249.001c-6.848.078-11.318-.092-11.318-.092s-.328.074-.928.197c-5.854 1.214-37.419 7.228-34.729-4.666 2.358-10.444 21.295-9.146 28.89-8.187.03 0 .052.005.075.01 1.895.242 3.063.456 3.063.456s3.768-1.62 9.715-3.927c.245-.097.497-.198.747-.294 19.59-7.603 60.79-22.015 71.455-13.354l-.001.006c.117.09.233.19.342.291.007-.005.017.003.02.016.113.107.22.218.327.329.094.09.185.192.268.304.035.031.067.073.1.115a6.865 6.865 0 0 1 .657.996c.094.173.175.35.249.531.173.391.305.809.402 1.249.096.446.176.883.229 1.314.099.772.138 1.519.103 2.251-.857 19.206-46.691 22.153-69.014 22.449z"/><linearGradient id="H" x1="741.129" x2="816.779" y1="816.475" y2="816.475" gradientUnits="userSpaceOnUse"><stop offset="0" stop-color="#326ab3"/><stop offset="1" stop-color="#003780"/></linearGradient><path fill="url(#H)" d="m748.108 834.074-.758-2.234-.329-.974c-.005-.007-.003-.012-.003-.012l-5.149-15.222-.739-2.183c19.609-7.611 62.086-20.514 72.934-11.483l.004.006c.121.097.236.198.344.309.007-.005.017.003.02.016.113.107.22.218.327.329.094.09.185.192.268.304.035.031.067.073.1.115a6.865 6.865 0 0 1 .657.996c.094.173.175.35.249.531.173.391.305.809.402 1.249.096.446.176.883.229 1.314.099.772.138 1.519.103 2.251-.789 19.445-46.325 24.394-68.659 24.688z"/><path fill="#0E3475" d="M732.142 819.612s-35.707-6.977-37.263 8.118c-1.671 16.217 40.893 4.075 40.893 4.075s-16.416 3.592-15.636-5.615c.753-8.909 12.006-6.578 12.006-6.578z"/><path fill="#FFD8D9" d="M785.198 758.332c-7.007 9.841-.74 36.778-.74 36.778h-47.043c1.3-1.843 4.963-25.06-3.288-37.859-13.314-20.647 1.031-36.699 1.031-36.699l19.565-3.557 1.249-6.229.857-4.29.201-.997h8.799l.319 1.871.689 4.078 1.019 6.016 17.985 3.904c.001-.001 15.404 14.439-.643 36.984z"/><path fill="#C4626E" d="M737.416 795.11c1.106-1.569 3.923-18.65-.36-31.576 9.277-2.696 7.71 23.055 23.163 31.576h-22.803z"/><path fill="#FFD8D9" d="M810.782 778.807c-.489 3.048-2.636 6.354-5.813 9.621-8.128 8.347-24.682 7.974-36.039 11.009l-1.185-6.051s20.273-5.718 24.633-12.83c.463-.759.784-1.466.914-2.096 1.478-7.087-6.727-15.948-6.727-15.948l-.873-41.144c-.001-.001 27.559 41.94 25.09 57.439zM753.95 793.488l.206 4.024c.363-.126.334-.654-.043-.732-10.121-2.091-26.754.802-34.853-6.076-4.99-4.244-7.715-9.469-8.359-13.495-2.469-15.499 24.412-56.625 24.412-56.625l-.993 41.091s-8.205 8.862-6.727 15.948c.257 1.261 1.26 2.817 2.714 4.514 6.071 7.126 23.643 11.351 23.643 11.351z"/><linearGradient id="I" x1="709.555" x2="811.327" y1="756.049" y2="756.049" gradientUnits="userSpaceOnUse"><stop offset="0" stop-color="#e85467"/><stop offset="1" stop-color="#b01c30"/></linearGradient><path fill="url(#I)" d="m801.452 742.475-.016-.045c-5.176-10.618-11.296-19.458-15.559-21.044l-.038-.037-.2-.044a3.812 3.812 0 0 0-.678-.148l-17.103-3.719c-1.707 3.67-12.38 3.928-13.131-.45l-19.575 3.563-.012.014c-5.357 1.768-14.44 16.14-20.219 30.692 0 0-.012.028-.027.084-4.072 10.255-6.487 20.584-4.789 26.628 1.097 3.926 4.028 9.359 9.017 13.606l3.411-2.835 8.486-7.058c-1.451-1.697-3.17-2.8-3.428-4.061-1.105-5.298 5.873-11.364 9.465-14.089v.001c4.283 12.926 1.466 30.007.36 31.575h47.046s-4.995-21.461-1.078-33.066c3.64 3.432 10.699 10.888 9.593 16.184a6.59 6.59 0 0 1-.829 2.151l9.135 5.92 3.483 2.263a.921.921 0 0 0 1.177-.146c2.862-3.142 4.581-6.744 5.108-9.612 1.502-8.159-3.348-23.512-9.599-36.327z"/><path fill="#FFD8D9" d="M820.498 825.952c2.833 12.093-29.359 6.231-35.332 5.042-.611-.121-.947-.192-.947-.192s-4.665.218-11.78.189h-.416c-10.33-.054-25.611-.618-39.302-3.061-16.798-2.992-31.214-8.796-31.188-19.923.001-.024.003-.043-.001-.06.004-.454.031-.912.086-1.383.003-.013.002-.018.001-.024.058-.483.139-.972.242-1.471.095-.449.226-.876.399-1.275.074-.185.156-.366.25-.543.099-.185.204-.364.317-.54 0 0 .006-.001.005-.007.104-.162.22-.32.338-.472.033-.043.066-.087.101-.119.084-.115.176-.219.27-.312.108-.114.216-.228.331-.337.003-.013.013-.021.02-.016 1.3-1.212 3.119-2.03 5.352-2.527 15.357-3.416 50.212 8.534 67.88 15.224.256.096.513.196.763.293 6.076 2.3 9.927 3.919 9.927 3.919s1.188-.228 3.116-.49c.023-.005.047-.004.076-.01 7.726-1.041 26.997-2.521 29.492 8.095z"/><linearGradient id="J" x1="701.531" x2="778.62" y1="815.572" y2="815.572" gradientUnits="userSpaceOnUse"><stop offset="0" stop-color="#326ab3"/><stop offset="1" stop-color="#003780"/></linearGradient><path fill="url(#J)" d="m778.621 812.208-.735 2.229-5.447 16.554-.753 2.281c-9.375-.044-22.767-.862-35.336-3.193l-.007-.005c-18.302-3.39-34.875-9.986-34.81-22.069.001-.024.003-.043-.001-.06.004-.454.036-.919.086-1.383.003-.013.002-.018.001-.024.058-.483.139-.972.242-1.471.095-.449.226-.876.399-1.275.074-.185.156-.366.25-.543.099-.185.204-.364.317-.54 0 0 .006-.001.005-.007.104-.162.22-.32.338-.472.033-.043.066-.087.101-.119.084-.115.176-.219.27-.312.108-.114.216-.228.331-.337.003-.013.013-.021.02-.016 1.343-1.294 3.259-2.193 5.616-2.76 15.79-3.853 51.479 6.848 69.113 13.522z"/><path fill="#0E3475" d="M787.823 818.41s36.309-7.405 38.02 7.956c1.839 16.503-41.615 4.493-41.615 4.493s15.874 3.006 15.003-6.364c-.843-9.067-11.408-6.085-11.408-6.085z"/><linearGradient id="K" x1="727.779" x2="793.187" y1="778.116" y2="778.116" gradientUnits="userSpaceOnUse"><stop offset="0" stop-color="#c7e1ff"/><stop offset="1" stop-color="#c4e6ff"/></linearGradient><path fill="url(#K)" d="M790.065 755.044h-59.164c-2.079 0-3.444 2.114-3.057 4.663l5.832 38.454c.255 1.683 1.791 3.026 3.433 3.026h46.747c1.642 0 3.178-1.343 3.433-3.026l5.832-38.454c.388-2.549-.978-4.663-3.056-4.663z"/><path fill="#B53344" d="M811.052 778.805c-.527 2.868-2.246 6.469-5.108 9.612a.92.92 0 0 1-1.176.146l-3.484-2.263c1.832-3.176 4.533-5.695 5.802-10.612 3.396-13.16-5.168-32.075-5.633-33.212 6.25 12.814 11.1 28.167 9.599 36.329z"/><path fill="#0E3475" d="M749.306 694.785s-7.05-7.554-1.331-17.59c0 0 1.727 3.129 3.776 2.265 0 0 .108-7.337 15-8.849 0 0-1.08 2.913-.54 3.669 4.91-2.158 9.674 3.201 14.46 1.187 0 0 1.322 8.502-4.182 13.466 0 0 .835 2.936-1.106 5.851-1.94 2.915-26.077.001-26.077.001z"/><path fill="#FFD8D9" d="M751.526 692.504s-3.216-3.146-3.519-.093c-.359 3.613 3.942 6.3 3.942 6.3s1.049 11.171 10.473 11.171c9.349 0 10.912-11.214 10.912-11.214s4.917-1.341 3.874-5.587c-.495-2.016-3.058.044-3.058.044v-5.306s-2.621 1.332-7.68-.837c-3.663-1.572-4.968-3.755-8.098-3.631-3.568.142-6.986 4.057-6.846 9.153z"/><path fill="#DDE4F0" d="m879.731 563.565.028 11.786c.021 6.611 4.339 13.2 12.974 18.215 8.692 5.049 20.133 7.574 31.61 7.574 9.353 0 18.727-1.674 26.645-5.021l.619.359.007.971 7.482 4.353 53.685 31.204v.141l4.339 2.518c3.91 2.272 10.295 2.272 14.248-.014 1.997-1.153 2.996-2.665 2.996-4.177l-.028-9.543c-.007-1.484-.97-2.961-2.911-4.079l-4.213-2.447.127-.077-2.757-1.596-51.181-29.748v.007l-5.028-2.926c.844-2.039 1.266-4.121 1.259-6.203l-.028-11.787c0 .063 0 .127-.007.19.063-6.674-4.247-13.327-12.968-18.397-17.433-10.134-45.949-10.099-63.586.077-9.128 5.274-13.558 12.251-13.291 19.164-.007-.185-.021-.361-.021-.544z"/><linearGradient id="L" x1="2202.796" x2="2278.949" y1="559.231" y2="559.231" gradientTransform="matrix(-1 0 0 1 3167.242 0)" gradientUnits="userSpaceOnUse"><stop offset="0" stop-color="#fff"/><stop offset="1" stop-color="#bde1ff"/></linearGradient><path fill="url(#L)" d="M953.206 544.258c-14.919-8.269-39.03-8.267-53.848 0-14.822 8.27-14.743 21.675.176 29.945 14.919 8.269 39.026 8.269 53.848 0 14.818-8.268 14.743-21.675-.176-29.945z"/><linearGradient id="M" x1="2202.796" x2="2278.914" y1="550.768" y2="550.768" gradientTransform="matrix(-1 0 0 1 3167.242 0)" gradientUnits="userSpaceOnUse"><stop offset="0" stop-color="#326ab3"/><stop offset="1" stop-color="#003780"/></linearGradient><path fill="url(#M)" d="m888.327 555.993.033 11.792c-.016-5.691 3.751-11.398 11.287-15.749 14.943-8.628 39.025-8.66 53.806-.069 7.316 4.252 10.976 9.819 10.992 15.404l-.033-11.792c-.016-5.585-3.676-11.153-10.992-15.404-14.782-8.591-38.863-8.559-53.806.069-7.536 4.351-11.303 10.058-11.287 15.749z"/><ellipse cx="926.37" cy="559.977" fill="#6D6E71" rx="20.428" ry="38.077" transform="rotate(-89.857 926.406 559.966)"/><linearGradient id="N" x1="2195.902" x2="2204.982" y1="569.323" y2="569.323" gradientTransform="matrix(-1 0 0 1 3167.242 0)" gradientUnits="userSpaceOnUse"><stop offset="0" stop-color="#326ab3"/><stop offset="1" stop-color="#003780"/></linearGradient><path fill="url(#N)" d="m971.339 567.335-.033-11.792c.016 5.547-3.003 11.108-9.046 15.769l.033 11.792c6.044-4.661 9.062-10.222 9.046-15.769z"/><linearGradient id="O" x1="2210.766" x2="2214.581" y1="583.791" y2="583.791" gradientTransform="matrix(-1 0 0 1 3167.242 0)" gradientUnits="userSpaceOnUse"><stop offset="0" stop-color="#326ab3"/><stop offset="1" stop-color="#003780"/></linearGradient><path fill="url(#O)" d="m952.66 576.797.034 11.791 3.781 2.198-.033-11.792z"/><linearGradient id="P" x1="2214.548" x2="2285.809" y1="574.824" y2="574.824" gradientTransform="matrix(-1 0 0 1 3167.242 0)" gradientUnits="userSpaceOnUse"><stop offset="0" stop-color="#326ab3"/><stop offset="1" stop-color="#003780"/></linearGradient><path fill="url(#P)" d="m881.432 556.035.033 11.792c.019 6.607 4.338 13.194 12.973 18.213 15.771 9.166 40.615 10.005 58.255 2.548l-.033-11.792c-17.64 7.456-42.484 6.617-58.255-2.548-8.635-5.018-12.954-11.606-12.973-18.213z"/><linearGradient id="Q" x1="2206.437" x2="2213.95" y1="587.327" y2="587.327" gradientTransform="matrix(-1 0 0 1 3167.242 0)" gradientUnits="userSpaceOnUse"><stop offset="0" stop-color="#326ab3"/><stop offset="1" stop-color="#003780"/></linearGradient><path fill="url(#Q)" d="m953.291 580.379.027 9.545 7.487 4.35-.027-9.544z"/><linearGradient id="R" x1="2170.502" x2="2178.586" y1="588.02" y2="624.442" gradientTransform="matrix(-1 0 0 1 3167.242 0)" gradientUnits="userSpaceOnUse"><stop offset=".189" stop-color="#ffbe69"/><stop offset="1" stop-color="#ff8f5c"/></linearGradient><path fill="url(#R)" d="m960.778 584.73 53.933 31.344 14.331-8.274-2.756-1.601-51.178-29.743z"/><linearGradient id="S" x1="2176.849" x2="2185.378" y1="596.12" y2="625.435" gradientTransform="matrix(-1 0 0 1 3167.242 0)" gradientUnits="userSpaceOnUse"><stop offset=".189" stop-color="#ffbe69"/><stop offset="1" stop-color="#ff8f5c"/></linearGradient><path fill="url(#S)" d="m960.778 584.73.027 9.544 53.933 31.344-.027-9.544z"/><linearGradient id="T" x1="2141.977" x2="2141.977" y1="613.748" y2="631.337" gradientTransform="matrix(-1 0 0 1 3167.242 0)" gradientUnits="userSpaceOnUse"><stop offset="0" stop-color="#326ab3"/><stop offset="1" stop-color="#003780"/></linearGradient><path fill="url(#T)" d="M1018.8 618.594c3.907 2.27 10.292 2.266 14.247-.017 1.999-1.154 2.997-2.668 2.992-4.176l.027 9.544c.004 1.508-.993 3.022-2.993 4.176-3.954 2.283-10.34 2.287-14.247.017l-4.337-2.521-.027-9.545 4.338 2.522z"/><linearGradient id="U" x1="2131.202" x2="2152.778" y1="613.246" y2="613.246" gradientTransform="matrix(-1 0 0 1 3167.242 0)" gradientUnits="userSpaceOnUse"><stop offset="0" stop-color="#326ab3"/><stop offset="1" stop-color="#003780"/></linearGradient><path fill="url(#U)" d="m1026.038 606.199 2.755 1.601-14.33 8.274 4.337 2.521c3.907 2.27 10.292 2.266 14.247-.017 3.962-2.287 3.99-5.986.084-8.257l-7.093-4.122z"/><linearGradient id="V" x1="2192.136" x2="2285.809" y1="557.244" y2="557.244" gradientTransform="matrix(-1 0 0 1 3167.242 0)" gradientUnits="userSpaceOnUse"><stop offset="0" stop-color="#326ab3"/><stop offset="1" stop-color="#003780"/></linearGradient><path fill="url(#V)" d="M894.405 574.248c15.772 9.166 40.615 10.004 58.255 2.548l3.408 1.98-2.777 1.605 7.489 4.346 14.325-8.27-7.482-4.353-2.007 1.158-3.356-1.95-3.074-1.786 3.074 1.786c13.239-10.209 11.96-24.741-3.926-33.974-17.434-10.132-45.952-10.1-63.583.08-17.621 10.174-17.779 26.698-.346 36.83zm5.209-34.004c14.943-8.628 39.025-8.66 53.806-.069 14.772 8.585 14.639 22.535-.304 31.163-14.934 8.622-39.016 8.654-53.788.069-14.782-8.592-14.648-22.541.286-31.163z"/><path fill="#DDE1F5" d="m983.14 478.008-25.694 14.932 127.584 73.66 25.694-14.931z"/><path fill="#C4D9F5" d="M193.015 472.109c-7.646 4.414-13.823 15.115-13.798 23.911.025 8.786 6.243 12.329 13.888 7.915 7.655-4.42 13.833-15.12 13.808-23.905-.025-8.797-6.243-12.341-13.898-7.921zM192.934 443.261c-24.533 14.164-35.96 40.093-36.428 41.191-1.312 3.03-.769 5.794 1.209 6.181.738.147 1.577-.063 2.408-.543 1.387-.8 2.75-2.353 3.583-4.254.386-.86 9.501-21.218 29.256-32.624 19.589-11.31 27.99-.365 28.332.085.807 1.126 2.257 1.181 3.751.318.738-.426 1.484-1.069 2.165-1.919 2.063-2.57 2.764-6.022 1.558-7.704-.444-.624-11.117-15.002-35.834-.731zM272.72 351.782c-.974-1.359-24.481-33.019-79.458-1.277-54.792 31.636-80.043 88.931-81.089 91.361-1.322 3.045-.778 5.81 1.209 6.191.742.142 1.58-.068 2.408-.547 1.393-.804 2.758-2.364 3.592-4.276.23-.536 23.912-53.921 73.908-82.788 49.831-28.771 71.084-.565 71.955.651.807 1.126 2.267 1.175 3.751.318.738-.426 1.484-1.08 2.165-1.93 2.063-2.559 2.765-6.01 1.559-7.703z"/><path fill="#C4D9F5" d="M193.062 410.502c-35.812 20.677-52.38 58.288-53.067 59.874-1.322 3.045-.778 5.81 1.209 6.191.739.144 1.577-.066 2.407-.546 1.391-.804 2.76-2.362 3.593-4.267.588-1.358 14.862-33.399 45.887-51.312 30.85-17.812 44.044-.442 44.582.299.807 1.126 2.257 1.181 3.751.318.738-.426 1.484-1.069 2.165-1.919 2.062-2.571 2.764-6.022 1.558-7.704-.639-.903-16.097-21.712-52.085-.934z"/><path fill="#C4D9F5" d="M193.145 381.018c-44.121 25.474-64.49 71.702-65.333 73.655-1.322 3.045-.778 5.81 1.209 6.191.741.142 1.579-.068 2.408-.547 1.392-.804 2.757-2.364 3.591-4.276.753-1.719 18.818-42.371 58.152-65.082 39.151-22.604 55.869-.496 56.555.456.807 1.126 2.257 1.181 3.751.318.738-.426 1.484-1.069 2.166-1.919 2.062-2.571 2.763-6.022 1.558-7.714-.787-1.096-19.77-26.652-64.057-1.082zM784.905 127.736l97.603-56.353c.649-.375 1.173-1.283 1.171-2.029l-.005-1.819c-.002-.746-.529-1.046-1.179-.672l-97.603 56.353c-.649.375-1.173 1.282-1.171 2.029l.005 1.819c.003.746.53 1.047 1.179.672zM882.623 111.917 785.02 168.27c-.649.375-1.173 1.282-1.171 2.029l.005 1.819c.002.746.529 1.046 1.179.672l97.603-56.353c.649-.375 1.173-1.282 1.171-2.029l-.005-1.819c-.002-.747-.53-1.047-1.179-.672zM784.965 148.778l53.603-30.949c.649-.375 1.173-1.283 1.171-2.029l-.005-1.819c-.002-.746-.529-1.046-1.179-.672l-53.603 30.949c-.649.375-1.174 1.283-1.171 2.029l.005 1.819c.003.746.53 1.046 1.179.672zM882.709 87.815l-23.493 13.564c-.643.371-1.167 1.279-1.165 2.025l.005 1.82c.002.746.529 1.047 1.173.675l23.493-13.564c.649-.375 1.174-1.283 1.171-2.029l-.005-1.819c-.002-.746-.53-1.046-1.179-.672zM1302.616 347.581l-97.603-56.353c-.649-.375-1.173-1.283-1.171-2.029l.005-1.819c.002-.746.529-1.047 1.179-.672l97.603 56.353c.649.375 1.173 1.282 1.171 2.029l-.005 1.819c-.002.746-.529 1.047-1.179.672zM1204.899 331.761l97.603 56.353c.649.375 1.173 1.282 1.171 2.029l-.005 1.819c-.002.746-.529 1.046-1.178.672l-97.603-56.353c-.649-.375-1.173-1.282-1.171-2.029l.005-1.819c.001-.746.529-1.046 1.178-.672zM1302.557 368.622l-53.603-30.949c-.649-.375-1.173-1.283-1.171-2.029l.005-1.819c.002-.746.529-1.047 1.179-.672l53.603 30.949c.649.375 1.173 1.283 1.171 2.029l-.005 1.819c-.003.746-.53 1.047-1.179.672zM1204.813 307.66l23.493 13.564c.643.371 1.167 1.279 1.165 2.025l-.005 1.82c-.002.746-.529 1.047-1.173.675L1204.8 312.18c-.649-.375-1.174-1.283-1.171-2.029l.005-1.819c.002-.746.529-1.047 1.179-.672z"/><linearGradient id="W" x1="1188.325" x2="1199.557" y1="458.59" y2="465.968" gradientUnits="userSpaceOnUse"><stop offset="0" stop-color="#ff9666"/><stop offset="1" stop-color="#c42d40"/></linearGradient><path fill="url(#W)" d="M1198.245 460.442c.282.456.372 1.005.24 1.546a2.013 2.013 0 0 1-1.406 1.469l-6.812 1.987a2.012 2.012 0 0 1-1.975-.483 2.014 2.014 0 0 1-.569-1.952l1.685-6.892c.175-.714.7-1.263 1.406-1.469a2.012 2.012 0 0 1 1.975.483l5.126 4.906c.129.122.239.259.33.405zm-8.915 3.273a.422.422 0 0 0 .489.19l6.812-1.987a.42.42 0 0 0 .297-.311.422.422 0 0 0-.12-.413l-5.126-4.906a.422.422 0 0 0-.418-.102.424.424 0 0 0-.298.311l-1.685 6.892a.414.414 0 0 0 .049.326z"/><linearGradient id="X" x1="269.679" x2="279.003" y1="546.726" y2="555.255" gradientUnits="userSpaceOnUse"><stop offset=".189" stop-color="#ffbe69"/><stop offset="1" stop-color="#ff8f5c"/></linearGradient><path fill="url(#X)" d="m275.37 550.052 2.506-2.506a1.456 1.456 0 0 0-2.059-2.06l-2.506 2.506-2.506-2.506a1.455 1.455 0 1 0-2.059 2.06l2.506 2.506-2.501 2.501a1.456 1.456 0 1 0 2.06 2.06l2.501-2.501 2.501 2.501a1.453 1.453 0 0 0 2.06 0 1.456 1.456 0 0 0 0-2.06l-2.503-2.501z"/><linearGradient id="Y" x1="884.696" x2="894.02" y1="305.129" y2="313.657" gradientUnits="userSpaceOnUse"><stop offset=".189" stop-color="#ffbe69"/><stop offset="1" stop-color="#ff8f5c"/></linearGradient><path fill="url(#Y)" d="m890.387 308.455 2.506-2.506a1.456 1.456 0 0 0-2.059-2.06l-2.506 2.506-2.506-2.506a1.455 1.455 0 1 0-2.059 2.06l2.506 2.506-2.501 2.501a1.456 1.456 0 1 0 2.06 2.06l2.501-2.501 2.501 2.501a1.453 1.453 0 0 0 2.06 0 1.456 1.456 0 0 0 0-2.06l-2.503-2.501z"/><linearGradient id="Z" x1="60.2" x2="71.645" y1="394.657" y2="394.657" gradientUnits="userSpaceOnUse"><stop offset="0" stop-color="#326ab3"/><stop offset="1" stop-color="#003780"/></linearGradient><path fill="url(#Z)" d="M65.923 400.38a5.73 5.73 0 0 1-5.723-5.723 5.73 5.73 0 0 1 5.723-5.723 5.73 5.73 0 0 1 5.723 5.723 5.731 5.731 0 0 1-5.723 5.723zm0-9.655a3.937 3.937 0 0 0-3.932 3.932 3.937 3.937 0 0 0 3.932 3.932 3.937 3.937 0 0 0 3.932-3.932 3.937 3.937 0 0 0-3.932-3.932z"/><linearGradient id="aa" x1="998.629" x2="1010.074" y1="148.939" y2="148.939" gradientUnits="userSpaceOnUse"><stop offset="0" stop-color="#326ab3"/><stop offset="1" stop-color="#003780"/></linearGradient><path fill="url(#aa)" d="M1004.352 154.662a5.73 5.73 0 0 1-5.723-5.723 5.73 5.73 0 0 1 5.723-5.723 5.73 5.73 0 0 1 5.723 5.723 5.731 5.731 0 0 1-5.723 5.723zm0-9.655a3.937 3.937 0 0 0-3.932 3.932 3.937 3.937 0 0 0 3.932 3.932 3.937 3.937 0 0 0 3.932-3.932 3.937 3.937 0 0 0-3.932-3.932z"/></svg>