<svg xmlns="http://www.w3.org/2000/svg" fill="none" viewBox="0 0 1000 1000"><path stroke="#1BB6C9" stroke-dasharray="6 6" stroke-linecap="round" stroke-miterlimit="10" stroke-width="3" d="M610.465 358.383s-9.6-15.8 6.2-15.8 11.7 24.8 14.5 28.2c2.8 3.4 4.8 20.6 17.9 23.4M765.965 394.182s-2.1-9.6 6.9-7.6-6.6 26.2-7.1 40.6c-.5 14.4-2.3 26.2 0 26.8M666.865 423.883a3.7 3.7 0 1 0-.001-7.401 3.7 3.7 0 0 0 .001 7.401ZM770.165 474.383a3.2 3.2 0 1 0 0-6.4 3.2 3.2 0 0 0 0 6.4Z"/><path fill="#F1E300" stroke="#314F9C" stroke-linecap="round" stroke-linejoin="round" stroke-width="3" d="M349.265 474.783c-2.8 13.3-11.9 24.5-41.2 24.6-55.5.3-64.7-54.8-64.7-54.8s-11-13.3-20.6-11c-9.6 2.3-3.7 32.8-3.7 32.8s50.9 90.8 95.9 85.9c28-3.1 67-7.9 86.8-24l-52.5-53.5Z"/><path fill="#F1E300" stroke="#314F9C" stroke-linecap="round" stroke-linejoin="round" stroke-width="3" d="M386.766 327.283s-100.301 60-46.201 135.9 106.001 81.4 68.801 99.3c-37.2 17.9-71.4 25.2-86.6 45.4-15.2 20.2 49.6 9.6 49.6 9.6s7.699-19.2 79.699-30.2 33-78.5 0-95.4c-33-16.9-60.599-47.9-40.399-75.4l-24.9-89.2Z"/><path fill="#fff" stroke="#314F9C" stroke-linecap="round" stroke-linejoin="round" stroke-width="3" d="M544.265 500.483c7-3.7 13.2 27.6-5.3 30.4-18.5 2.8-50.2-35.4-48.2-38.6 2-3.2 19.5-26.1 19.5-26.1s12.9 45.3 34 34.3ZM584.766 481.283c-.6-.4-19.9-18.1-26.1-24.3-6.2-6.2-17.4-9.9-19-6.4-3 6.4 4.1 15.5 7.3 18.8 3.2 3.3 18.1 22.7 26.2 25.5 8.1 2.8 11.6-13.6 11.6-13.6Z"/><path fill="#fff" stroke="#314F9C" stroke-linecap="round" stroke-linejoin="round" stroke-width="3" d="M555.766 419.483c2.4 4.9 14.999 26.5 1.799 37.5-19.4 16.1-34 14.2-34 14.2s-52.699 57.8-40.799 94.3c11.9 36.5 20.599 43.8 35.799 52.7 0 0-5.8 22.2-29.1 3.8s-35.1-37.5-31.9-77.2c3.2-39.7 33.001-43.7 19.201-90.8-13.8-47.1-55.001-51.5-65.101-37.5 0 0-60.499-17.7-33.899-76.9s149.2 22.4 178 79.9Z"/><path fill="#fff" d="M386.966 337.083c-4.2 3.4-15.2 21.4-15.2 21.4l15.2-21.4Z"/><path stroke="#314F9C" stroke-linecap="round" stroke-linejoin="round" stroke-width="3" d="M386.966 337.083c-4.2 3.4-15.2 21.4-15.2 21.4M380.365 358.483l-9.199 5.4"/><path fill="#fff" stroke="#314F9C" stroke-linecap="round" stroke-linejoin="round" stroke-width="3" d="M646.766 490.683c-.7 0-20.701-10.7-35.401-11.2-14.7-.5-36-6.9-38.9 8.9-2.9 15.8-10.4 34 25.6 48 40.9 15.8 54.2 16.9 63.6 15.3 9.4-1.6-14.899-61-14.899-61Z"/><path fill="#F1E300" d="M682.765 531.082s33 33.001 57.7 18.601c24.7-14.4 22.8-47.7 10.4-55.8-38.1-24.5-67.6 6.6-56.6 1.3 4.4-2.1 22.2-22.9-8.1-27.2-30.3-4.301-28.2 11.5-28.2 11.5s18.6-24.101-4.8-28.201c-23.4-4.1-26.3 12.1-24.9 16.701 0 0 .1-18.2-20.7-8.5-14.2 6.699 2.9 23.4 8.4 22.7 5.5-.7 18.6 0 18.6 0s-14.6 24.599 17.9 19.799c0 0-13.1 15.3 5.5 20.8 0 0-26.1 13.8-1.4 22.7 0 0-26.3 12.6-2 24.8 32.4 16.4 41.2-13.799 38.5-17.899-2.7-4.1 5.6 4.199 10.1 1.199s3.6-6.299-5.2-10.399"/><path stroke="#314F9C" stroke-linecap="round" stroke-linejoin="round" stroke-width="3" d="M682.765 531.082s33 33.001 57.7 18.601c24.7-14.4 22.8-47.7 10.4-55.8-38.1-24.5-67.6 6.6-56.6 1.3 4.4-2.1 22.2-22.9-8.1-27.2-30.3-4.301-28.2 11.5-28.2 11.5s18.6-24.101-4.8-28.201c-23.4-4.1-26.3 12.101-24.9 16.701 0 0 .1-18.2-20.7-8.5-14.2 6.699 2.9 23.4 8.4 22.7 5.5-.7 18.6 0 18.6 0s-14.6 24.599 17.9 19.799c0 0-13.1 15.3 5.5 20.8 0 0-26.1 13.8-1.4 22.7 0 0-26.3 12.6-2 24.8 32.4 16.4 41.2-13.799 38.5-17.899-2.7-4.1 5.6 4.199 10.1 1.199s3.6-6.299-5.2-10.399"/><path fill="#F1E300" d="M706.065 534.782s13.101 18.5 28.701 5.2l-28.701-5.2Z"/><path stroke="#314F9C" stroke-linecap="round" stroke-linejoin="round" stroke-width="3" d="M706.065 534.782s13.101 18.5 28.701 5.2"/><path fill="#F1E300" d="M661.165 561.383c1 .1 9.7 11 18.1 5.1l-18.1-5.1Z"/><path stroke="#314F9C" stroke-linecap="round" stroke-linejoin="round" stroke-width="3" d="M661.165 561.383c1 .1 9.7 11 18.1 5.1"/><path fill="#F1E300" d="M636.865 463.183c.2-.7.2-5.7 6.4-6.2l-6.4 6.2Z"/><path stroke="#314F9C" stroke-linecap="round" stroke-linejoin="round" stroke-width="3" d="M636.865 463.183c.2-.7.2-5.7 6.4-6.2"/><path fill="#fff" d="M612.565 491.183c-.5-.7 2.8-10.1 9.6-13.5 8.3-4.2 21.8-1.3 19.1 6.7-2.7 8-21.4 10.5-21.4 10.5"/><path stroke="#314F9C" stroke-linecap="round" stroke-linejoin="round" stroke-width="3" d="M612.565 491.183c-.5-.7 2.8-10.1 9.6-13.5 8.3-4.2 21.8-1.3 19.1 6.7-2.7 8-21.4 10.5-21.4 10.5"/><path fill="#fff" d="M613.065 527.583s-2.3 18.2-4.6 18.4c-2.3.2-4.9 2.5-8.1-4.6-3.2-7.1-.6-12.1 0-12.4"/><path stroke="#314F9C" stroke-linecap="round" stroke-linejoin="round" stroke-width="3" d="M613.065 527.583s-2.3 18.2-4.6 18.4c-2.3.2-4.9 2.5-8.1-4.6-3.2-7.1-.6-12.1 0-12.4"/><path fill="#fff" stroke="#314F9C" stroke-linecap="round" stroke-linejoin="round" stroke-width="3" d="M635.963 548.419c.602-3.595-3.768-7.322-9.759-8.325-5.992-1.003-11.337 1.099-11.939 4.694-.602 3.595 3.768 7.322 9.76 8.325 5.992 1.002 11.337-1.099 11.938-4.694Z"/><path fill="#314F9C" stroke="#314F9C" stroke-linecap="round" stroke-linejoin="round" stroke-width="3" d="M624.065 547.883c1.16 0 2.1-.314 2.1-.7 0-.387-.94-.7-2.1-.7-1.16 0-2.1.313-2.1.7 0 .386.94.7 2.1.7Z"/><path fill="#fff" d="M624.865 547.283a.8.8 0 1 0 0-1.599.8.8 0 0 0 0 1.599ZM627.665 511.383l-4.1 10.3s2.1-8.5-1.6-10.3"/><path stroke="#314F9C" stroke-linecap="round" stroke-linejoin="round" stroke-width="3" d="m627.665 511.383-4.1 10.3s2.1-8.5-1.6-10.3"/><path stroke="#EB3D8D" stroke-linecap="round" stroke-linejoin="round" stroke-width="3" d="m602.665 499.383 7.4 2.1M596.965 504.483l16.1 5M598.865 511.383l7.1 2.3"/><path fill="#EB3D8D" stroke="#314F9C" stroke-linecap="round" stroke-linejoin="round" stroke-width="3" d="M321.565 634.782s-6.1 5.9.4 15.9 83.9 10.6 88.9 4.1 1.3-12.8 2-11.8-91.3-8.2-91.3-8.2Z"/><path fill="#fff" stroke="#314F9C" stroke-linecap="round" stroke-linejoin="round" stroke-width="3" d="M319.265 614.583s.8 23.7 5.4 27.2c4.6 3.5 74 9.5 84.6 6.8 5.4-1.4 3.1-4.9 3.5-12.1.6-9.5-11.3-11.4-39.1-22.1l-13.7-3s-6.6 17.3-40.7 3.2Z"/><path fill="#fff" stroke="#314F9C" stroke-linecap="round" stroke-linejoin="round" stroke-width="3" d="M349.265 616.283s13.5-13.2 11.8-17c-1.7-3.8 19.5-11.4 20.2-3 .7 8.4 4.8 3.6 0 9s-16.5 8.7-16.5 8.7-12 1.7-14.8 3c-2.8 1.3-.7-.7-.7-.7Z"/><path stroke="#314F9C" stroke-linecap="round" stroke-linejoin="round" stroke-width="3" d="M357.065 615.282c2.9-.9 37.6 7.7 44.3 14.9"/><path stroke="#314F9C" stroke-linecap="round" stroke-linejoin="round" stroke-width="3" d="M365.765 627.183c9.3-2.6 12.5-10.9 5.7-12.3M380.365 630.282s10.6-8.3 3.7-11M392.065 631.582s7.3-6.3 3.1-7.3"/><path fill="#F1E300" d="m334.465 629.782 11.1 12-12.3-1.8 1.2-10.2Z"/><path stroke="#314F9C" stroke-linecap="round" stroke-linejoin="round" stroke-width="3" d="M371.665 604.883c-.6.6-11.3 11.2-16.2 10.7l5.9-8.2"/><path fill="#fff" stroke="#314F9C" stroke-linecap="round" stroke-linejoin="round" stroke-width="3" d="M570.365 486.783s4.4-8 7.6-3.4c3.2 4.6-3.7 15.1-5.1 16-1.4.9 1.4 10.8-4.1 14.3 0 0 5.5 8.9 12.8 11.2 7.3 2.3 12.5 9.2 11.7 11.2-.8 2-5.2 2.8-8.2 1-4.6-2.7-5.3-1.7-16.3-10.8 0 0-4.1-3-10.8 1.3a21.813 21.813 0 0 1-12.8 0s-1.6-17.8 3-23.1c4.6-5.3 13.3-.5 16-7.3a34.597 34.597 0 0 1 6.2-10.4Z"/><path fill="#EB3D8D" stroke="#314F9C" stroke-linecap="round" stroke-linejoin="round" stroke-width="3" d="M218.765 420.183s1.7-10.9-14.8-11.3c-16.5-.4-29.4 67.8-14.2 79.3s19.5.6 19.5.6l9.5-68.6Z"/><path fill="#fff" stroke="#314F9C" stroke-linecap="round" stroke-linejoin="round" stroke-width="3" d="M244.765 442.383s-25.2-2-24.8 25.6c.2 7.8 3.3 5.5 3.3 5.5s-11.5 18.8-19.3 16.5c-7.8-2.3-8.7-1.8-11-18.8-2.3-17 16-58.7 19.2-57.7 3.2 1 22.5-6.5 32.6 28.9Z"/><path stroke="#314F9C" stroke-linecap="round" stroke-linejoin="round" stroke-width="3" d="M219.865 473.183s-7.699 10.5-12.599 14"/><path stroke="#314F9C" stroke-linecap="round" stroke-linejoin="round" stroke-width="3" d="M210.365 471.383c2.8-2.1 8.4 7 5.7 8.4M207.266 478.883c2.8-1.6 8.799 2.5 5.099 7.2"/><path fill="#fff" stroke="#314F9C" stroke-linecap="round" stroke-linejoin="round" stroke-width="3" d="M220.765 466.983c2.3 1 15.2-4.1 15.2 7.2s5.1-1.4 5.1 3.7-3.2 2.1-4.1 5.7c-.9 3.6 7.8 1.3-4.1 6.3-7.5 3.2-9-13.9-9-13.9-5.1-1.3-3.1-9-3.1-9Z"/><path fill="#fff" d="M223.865 475.983s5.2 6.6 9 5.8l-9-5.8Z"/><path stroke="#314F9C" stroke-linecap="round" stroke-linejoin="round" stroke-width="3" d="M223.865 475.983s5.2 6.6 9 5.8"/><path fill="#F1E300" d="m212.165 421.583-4 8.4 6.4-1.9-2.4-6.5Z"/><path fill="#fff" stroke="#314F9C" stroke-linecap="round" stroke-linejoin="round" stroke-width="3" d="M347.965 398.783c1.8 2.3 6.6 38.7 6.6 38.7l12.2-24.1-18.8-14.6Z"/><path fill="#fff" stroke="#314F9C" stroke-linecap="round" stroke-linejoin="round" stroke-width="3" d="M364.666 389.183c-1.1 2.2 14.6 45.4 14.6 45.4v19.4l-27.201-13.5 12.601-51.3Z"/><path fill="#1BB6C9" d="m378.266 412.883-6.5 46.4 10.4-1.5 4.8-36.7-8.7-8.2Z"/><path stroke="#314F9C" stroke-linecap="round" stroke-linejoin="round" stroke-width="3" d="m380.465 414.983-2.2-2.1-.4 3"/><path stroke="#314F9C" stroke-dasharray="5.82 5.82" stroke-linecap="round" stroke-linejoin="round" stroke-width="3" d="m377.065 421.683-4.4 31.7"/><path stroke="#314F9C" stroke-linecap="round" stroke-linejoin="round" stroke-width="3" d="m372.266 456.283-.5 3 3-.5M379.165 458.183l3-.4.3-3"/><path stroke="#314F9C" stroke-dasharray="6.2 6.2" stroke-linecap="round" stroke-linejoin="round" stroke-width="3" d="m383.365 448.683 2.8-21.5"/><path stroke="#314F9C" stroke-linecap="round" stroke-linejoin="round" stroke-width="3" d="m386.565 424.083.401-3-2.2-2M255.165 642.983s6.1 15.4 14.8 13.3c8.7-2.1 21.3-.7 28 3.9 6.7 4.6 17.4 3.7 17.4 3.7"/><path fill="#1BB6C9" stroke="#1BB6C9" stroke-linecap="round" stroke-linejoin="round" stroke-width="3" d="M272.665 601.083s14.9 22.3 5.3 26.7c-9.6 4.4-15.5-.9-15.1-8.3.4-7.4 4.4-17.3 4.4-17.3l5.4-1.1Z"/><path fill="#fff" stroke="#314F9C" stroke-linecap="round" stroke-linejoin="round" stroke-width="3" d="M237.865 590.483c-1.4-1.9-2.3-4.8 0-4.8s6.001 1.8 2.801 4.8-2.801 0-2.801 0ZM225.265 593.683c-.7-1.2-1.4-6-4.4-3.9-3 2.1-.7 7.4 1.3 6.9s3.1-3 3.1-3Z"/><path fill="#fff" d="M246.365 655.083c-4.8.5-7.3-3.4-12.6-8.2-5.3-4.8-3.5-25-3.5-25l-5 3.2c-1.8 1.1-7.3 7.3-10.5 2.2s15.5-15.9 15.5-15.9l17-2.1c.9.4 11.6 10.4 12.3 13.4.7 3 1.1 5.7-3.7 6.7"/><path stroke="#314F9C" stroke-linecap="round" stroke-linejoin="round" stroke-width="3" d="M246.365 655.083c-4.8.5-7.3-3.4-12.6-8.2-5.3-4.8-3.5-25-3.5-25l-5 3.2c-1.8 1.1-7.3 7.3-10.5 2.2s15.5-15.9 15.5-15.9l17-2.1c.9.4 11.6 10.4 12.3 13.4.7 3 1.1 5.7-3.7 6.7"/><path stroke="#314F9C" stroke-linecap="round" stroke-linejoin="round" stroke-width="3" d="M283.565 592.883c-1.3-.2-62.4 50.1-62.4 50.1"/><path fill="#1BB6C9" stroke="#1BB6C9" stroke-linecap="round" stroke-linejoin="round" stroke-width="3" d="m274.565 593.283-1.4 5.1-5.9 2.7-2.4-6.3 3.1-.4 1.8-7.6 2.4 5.5 2.5-1.8-.1 2.8Z"/><path fill="#314F9C" stroke="#314F9C" stroke-linecap="round" stroke-linejoin="round" stroke-width="3" d="M255.565 652.883s1.6-2.9 4-1.2-.9 9.6-2 9.9c-1.1.3-3.2-6.3-2-8.7Z"/><path stroke="#314F9C" stroke-linecap="round" stroke-linejoin="round" stroke-width="3" d="M240.665 642.983c0 .7 4.6 4.8 5.7 4.8"/><path fill="#fff" d="M253.665 622.683c-.5.2-2.999-5.4-6.399-6.4s-5.4 6.4 3.2 11.3c-.2 0 3.7 1.3 4 1.6a14.608 14.608 0 0 1 5.099 10.5c.5 8.3-3.8 7-4.4 13.2-.6 6.2 1.9 7.6 2 9 .1 1.4-10.399 4.8-13.199 2-2.8-2.8 5.399-5.1 5.399-5.1-6.7-7.1 0-19.1 0-19.1"/><path stroke="#314F9C" stroke-linecap="round" stroke-linejoin="round" stroke-width="3" d="M253.665 622.683c-.5.2-2.999-5.4-6.399-6.4s-5.4 6.4 3.2 11.3c-.2 0 3.7 1.3 4 1.6a14.608 14.608 0 0 1 5.099 10.5c.5 8.3-3.8 7-4.4 13.2-.6 6.2 1.9 7.6 2 9 .1 1.4-10.399 4.8-13.199 2-2.8-2.8 5.399-5.1 5.399-5.1-6.7-7.1 0-19.1 0-19.1M277.166 623.883a.6.6 0 1 0-.001-1.201.6.6 0 0 0 .001 1.201ZM265.865 612.683a.7.7 0 1 0 0-1.4.7.7 0 0 0 0 1.4ZM277.766 616.183a.5.5 0 1 0 0-1 .5.5 0 0 0 0 1ZM268.065 628.583a.8.8 0 1 0 0-1.6.8.8 0 0 0 0 1.6ZM270.466 617.383a.7.7 0 1 0-.002-1.402.7.7 0 0 0 .002 1.402Z"/><path fill="#fff" stroke="#314F9C" stroke-linecap="round" stroke-linejoin="round" stroke-width="3" d="M255.565 603.783c.9-.7-10.8-13.8-21.4-12.2-10.6 1.6-15.3 9-9.6 14 5.7 5 12.2 10.8 31-1.8Z"/><path fill="#314F9C" d="M254.965 603.583c-.7.3-1.4-16.7 3.2-11.1s-3.2 11.1-3.2 11.1ZM235.565 601.683a3.3 3.3 0 1 0 0-6.6 3.3 3.3 0 0 0 0 6.6ZM243.465 599.383a3.3 3.3 0 1 0 0-6.6 3.3 3.3 0 0 0 0 6.6Z"/><path fill="#fff" d="M241.466 595.983a.7.7 0 1 0-.002-1.402.7.7 0 0 0 .002 1.402ZM233.766 598.183a.7.7 0 1 0-.002-1.402.7.7 0 0 0 .002 1.402Z"/><path fill="#fff" stroke="#314F9C" stroke-miterlimit="10" stroke-width="3" d="M559.865 606.083a62.452 62.452 0 0 1-15 5.5c-6.1 1.2-36.6 5.9-52 1.6-15.4-4.3-56-4-60.5 3.4-6.3 10.3.1 13.4 22.7 12.7 30.2-1 61.2-1.4 67.7-2 6.5-.6 15.1-6.2 44.7 11l-7.6-32.2Z"/><path fill="#fff" stroke="#314F9C" stroke-miterlimit="10" stroke-width="3" d="M565.065 601.883s-24 12-10.5 26.6c13.5 14.6 61.7 33.5 96.3 33.5 37.5 0 88.5-8.4 93.3-30.8 4.8-22.4-6.9-31-46.2-42.7-39.3-11.7-66-9.5-84.9-7-18.9 2.5-41.9 16.5-48 20.4Z"/><path fill="#fff" stroke="#314F9C" stroke-miterlimit="10" stroke-width="3" d="M615.765 589.583c-.7.1-26.8 4.8-38.5 11.4-11.7 6.6-37.6 23.6 0 39.7s80.9 24.8 131.6 9.4c50.7-15.4 30.6-33.9 21.1-39-9.5-5.1-56.4-29.8-114.2-21.5Z"/><path fill="#fff" d="M436.465 618.183c-.5 3-.9 7.1 13.3 6.9 14.2-.2 25.2 0 25.2 0"/><path stroke="#314F9C" stroke-linecap="round" stroke-linejoin="round" stroke-width="3" d="M436.465 618.183c-.5 3-.9 7.1 13.3 6.9 14.2-.2 25.2 0 25.2 0M578.165 618.183s-7.8 12.5 20.6 17.4M720.165 627.683s-4.6-21.8-39.2-26.8"/><path fill="#fff" d="M586.465 613.383a5.8 5.8 0 0 0-1.7 7.4"/><path stroke="#314F9C" stroke-linecap="round" stroke-linejoin="round" stroke-width="3" d="M586.465 613.383a5.8 5.8 0 0 0-1.7 7.4"/><path fill="#fff" stroke="#314F9C" stroke-miterlimit="10" stroke-width="3" d="M627.665 625.782c-1.6-.9-9.7-13.3 5.8-16.7 15.5-3.4 24.1-2.6 30.9.6 6.8 3.2 6.9 8.8 6.7 11.3-.2 2.5-6.2 9.5-16.5 9.8-20.3.8-25.3-4.2-26.9-5Z"/><path fill="#314F9C" stroke="#314F9C" stroke-miterlimit="10" stroke-width="3" d="M644.865 615.283c-6.5.4-23.899 3.1-13.599 9.8 10.3 6.7 22.2 5.1 29.5 2.7 7.3-2.4 5.399-9.5 2.099-10.6-3.3-1.1-11.6-2.2-18-1.9Z"/><path stroke="#314F9C" stroke-miterlimit="10" stroke-width="3" d="M636.866 679.182c-1.3 0-10.1.5-5.5 1.9s9.7 1 10.3 0c.6-1-3.5-1.9-4.8-1.9Z"/><path fill="#fff" stroke="#314F9C" stroke-miterlimit="10" stroke-width="3" d="M719.165 583.783c-3.5 7.6-13.7 17.3-12.3 20.6 1.4 3.3 6.4-.2 7.5-2 1.1-1.8 8.501-12.1 12.401-9.3 3.9 2.8-15.801 17.1-6.401 18.4 5.6.7 4.1-8.8 14.2-9.6 10.1-.8 24.101 1.5 17.901 23.5-6.2 22-9 34.6-5.5 35.9 3.5 1.3 3.199-28.3 11.199-27.6 8 .7-4.1 28.8 1.2 30.1 5.3 1.3 5.901-32.6 11.901-34.6s1.8 25.2 11 28.8c9.2 3.6 15.599-1 20.899 4.5 5.3 5.5 12.8 7.9 13.5 4.1.7-3.8-7.4-10-11.3-11.3-3.9-1.3-16.699 2.2-20.099-3.9-3.4-6.1 1.4-16.7-.5-30.3-1.9-13.6-7.701-34.9-23.101-41.4-15.4-6.5-35.8-10.2-42.5 4.1Z"/><path fill="#fff" stroke="#314F9C" stroke-linecap="round" stroke-linejoin="round" stroke-width="3" d="m722.365 552.283 1.7 8s-17.7 4.3-19.1 7.2l-10.1-3.6 4.1 6.9s-4.8 14.6 7.8 16.9c12.6 2.3 24.6.2 32.1-4.9 2.9-1.9 8.5-13.4 4.2-19.2-3.3-4.2-6.2-5-8.3-4.8-2.1.2-12.4-6.5-12.4-6.5Z"/><path fill="#314F9C" d="M720.565 574.883c-7.1 2.9-18.6 13-9.2 13.7 9.4.7 15.801 3.4 25.101-5 4.9-4.5-.9-13.2-5.7-12.5-4.8.7-3.101.9-10.201 3.8ZM708.165 579.783a1.5 1.5 0 1 0-.001-3.001 1.5 1.5 0 0 0 .001 3.001ZM721.665 572.383a1.5 1.5 0 1 0-.001-3.001 1.5 1.5 0 0 0 .001 3.001Z"/><path fill="#fff" d="m723.565 571.383 5.101 8.4v-8.4h-5.101ZM713.065 578.783l2.6 6.6-6.7-2.7 4.1-3.9Z"/><path fill="#fff" stroke="#314F9C" stroke-linecap="round" stroke-linejoin="round" stroke-width="3" d="M490.666 609.283c-2.2 3.6 9.6 9.9 5.6 19-2.2 5.2 4.1 8 7.2 2.6 3.1-5.4 0-15.6 0-15.6s-1.8 16.5.8 20 12.7-1.7 10.6-14.4c-2.1-12.7-2.1 13.7.3 15.8 2.4 2.1 8.7-7.4 9.3-20.1 1-18.9-31.6-11-33.8-7.3Z"/><path stroke="#314F9C" stroke-linecap="round" stroke-linejoin="round" stroke-width="3" d="m630.065 481.782-8.1 4.3M531.565 500.682c.3.9-14.5.4-6.1 26.9"/><path stroke="#314F9C" stroke-linecap="round" stroke-linejoin="round" stroke-width="3" d="M546.565 507.283c-.4.1-3.9-3.9-22.9.7M544.865 522.483s-6.2 7.4-20.8 0M545.165 514.182l-22.3.8M563.065 447.583s-24.399-.3-24.099 20.4M558.766 455.883l-7-6.201M551.765 461.383l-6.9-7.701"/></svg>